999
dxfrw 0.6.3
  0
SECTION
  2
HEADER
  9
$ACADVER
  1
AC1021
  9
$DWGCODEPAGE
  3
ANSI_1252
  9
$INSBASE
 10
0
 20
0
 30
0
  9
$EXTMIN
 10
25.74807267834013
 20
25.56399896816153
 30
0
  9
$EXTMAX
 10
524.4260537134111
 20
478.3807813726653
 30
0
  9
$LIMMIN
 10
0
 20
0
  9
$LIMMAX
 10
420
 20
297
  9
$ORTHOMODE
 70
    0
  9
$REGENMODE
 70
    1
  9
$FILLMODE
 70
    1
  9
$QTEXTMODE
 70
    0
  9
$MIRRTEXT
 70
    0
  9
$LTSCALE
 40
1
  9
$ATTMODE
 70
    0
  9
$TEXTSIZE
 40
2.5
  9
$TRACEWID
 40
15.68
  9
$TEXTSTYLE
  7
STANDARD
  9
$CLAYER
  8
0
  9
$CELTYPE
  6
BYLAYER
  9
$CECOLOR
 62
  256
  9
$CELTSCALE
 40
1
  9
$DISPSILH
 70
    0
  9
$DIMSCALE
 40
1
  9
$DIMASZ
 40
2.5
  9
$DIMEXO
 40
0.625
  9
$DIMDLI
 40
3.75
  9
$DIMRND
 40
0
  9
$DIMDLE
 40
0
  9
$DIMEXE
 40
1.25
  9
$DIMTP
 40
0
  9
$DIMTM
 40
0
  9
$DIMTXT
 40
2.5
  9
$DIMCEN
 40
2.5
  9
$DIMTSZ
 40
0
  9
$DIMTOL
 70
    0
  9
$DIMLIM
 70
    0
  9
$DIMTIH
 70
    0
  9
$DIMTOH
 70
    0
  9
$DIMSE1
 70
    0
  9
$DIMSE2
 70
    0
  9
$DIMTAD
 70
    1
  9
$DIMZIN
 70
    8
  9
$DIMBLK
  1

  9
$DIMASO
 70
    1
  9
$DIMSHO
 70
    1
  9
$DIMPOST
  1

  9
$DIMAPOST
  1

  9
$DIMALT
 70
    0
  9
$DIMALTD
 70
    3
  9
$DIMALTF
 40
0.03937
  9
$DIMLFAC
 40
1
  9
$DIMTOFL
 70
    1
  9
$DIMTVP
 40
0
  9
$DIMTIX
 70
    0
  9
$DIMSOXD
 70
    0
  9
$DIMSAH
 70
    0
  9
$DIMBLK1
  1

  9
$DIMBLK2
  1

  9
$DIMSTYLE
  2
STANDARD
  9
$DIMCLRD
 70
    1
  9
$DIMCLRE
 70
    1
  9
$DIMCLRT
 70
    1
  9
$DIMTFAC
 40
1
  9
$DIMGAP
 40
0.625
  9
$DIMJUST
 70
    0
  9
$DIMSD1
 70
    0
  9
$DIMSD2
 70
    0
  9
$DIMTOLJ
 70
    0
  9
$DIMTZIN
 70
    8
  9
$DIMALTZ
 70
    0
  9
$DIMALTTZ
 70
    0
  9
$DIMUPT
 70
    0
  9
$DIMDEC
 70
    2
  9
$DIMTDEC
 70
    2
  9
$DIMALTU
 70
    2
  9
$DIMALTTD
 70
    3
  9
$DIMTXSTY
  7
standard
  9
$DIMAUNIT
 70
    0
  9
$DIMADEC
 70
    0
  9
$DIMALTRND
 40
0
  9
$DIMAZIN
 70
    0
  9
$DIMDSEP
 70
   44
  9
$DIMATFIT
 70
    3
  9
$DIMFRAC
 70
    0
  9
$DIMLDRBLK
  1
STANDARD
  9
$DIMLUNIT
 70
    2
  9
$DIMLWD
 70
   -2
  9
$DIMLWE
 70
   -2
  9
$DIMTMOVE
 70
    0
  9
$DIMFXL
 40
1
  9
$DIMFXLON
 70
    0
  9
$DIMJOGANG
 40
0.7854
  9
$DIMTFILL
 70
    0
  9
$DIMTFILLCLR
 70
    0
  9
$DIMARCSYM
 70
    0
  9
$DIMLTYPE
  6

  9
$DIMLTEX1
  6

  9
$DIMLTEX2
  6

  9
$LUNITS
 70
    2
  9
$LUPREC
 70
    4
  9
$SKETCHINC
 40
1
  9
$FILLETRAD
 40
0
  9
$AUNITS
 70
    0
  9
$AUPREC
 70
    2
  9
$MENU
  1
.
  9
$ELEVATION
 40
0
  9
$PELEVATION
 40
0
  9
$THICKNESS
 40
0
  9
$LIMCHECK
 70
    0
  9
$CHAMFERA
 40
0
  9
$CHAMFERB
 40
0
  9
$CHAMFERC
 40
0
  9
$CHAMFERD
 40
0
  9
$SKPOLY
 70
    0
  9
$USRTIMER
 70
    1
  9
$ANGBASE
 50
0
  9
$ANGDIR
 70
    0
  9
$PDMODE
 70
   34
  9
$PDSIZE
 40
0
  9
$PLINEWID
 40
0
  9
$SPLFRAME
 70
    0
  9
$SPLINETYPE
 70
    2
  9
$SPLINESEGS
 70
    8
  9
$HANDSEED
  5
20000
  9
$SURFTAB1
 70
    6
  9
$SURFTAB2
 70
    6
  9
$SURFTYPE
 70
    6
  9
$SURFU
 70
    6
  9
$SURFV
 70
    6
  9
$UCSBASE
  2

  9
$UCSNAME
  2

  9
$UCSORG
 10
0
 20
0
 30
0
  9
$UCSXDIR
 10
1
 20
0
 30
0
  9
$UCSYDIR
 10
0
 20
1
 30
0
  9
$UCSORTHOREF
  2

  9
$UCSORTHOVIEW
 70
    0
  9
$UCSORGTOP
 10
0
 20
0
 30
0
  9
$UCSORGBOTTOM
 10
0
 20
0
 30
0
  9
$UCSORGLEFT
 10
0
 20
0
 30
0
  9
$UCSORGRIGHT
 10
0
 20
0
 30
0
  9
$UCSORGFRONT
 10
0
 20
0
 30
0
  9
$UCSORGBACK
 10
0
 20
0
 30
0
  9
$PUCSBASE
  2

  9
$PUCSNAME
  2

  9
$PUCSORG
 10
0
 20
0
 30
0
  9
$PUCSXDIR
 10
1
 20
0
 30
0
  9
$PUCSYDIR
 10
0
 20
1
 30
0
  9
$PUCSORTHOREF
  2

  9
$PUCSORTHOVIEW
 70
    0
  9
$PUCSORGTOP
 10
0
 20
0
 30
0
  9
$PUCSORGBOTTOM
 10
0
 20
0
 30
0
  9
$PUCSORGLEFT
 10
0
 20
0
 30
0
  9
$PUCSORGRIGHT
 10
0
 20
0
 30
0
  9
$PUCSORGFRONT
 10
0
 20
0
 30
0
  9
$PUCSORGBACK
 10
0
 20
0
 30
0
  9
$USERI1
 70
    0
  9
$USERI2
 70
    0
  9
$USERI3
 70
    0
  9
$USERI4
 70
    0
  9
$USERI5
 70
    0
  9
$USERR1
 40
0
  9
$USERR2
 40
0
  9
$USERR3
 40
0
  9
$USERR4
 40
0
  9
$USERR5
 40
0
  9
$WORLDVIEW
 70
    1
  9
$SHADEDGE
 70
    3
  9
$SHADEDIF
 70
   70
  9
$TILEMODE
 70
    1
  9
$MAXACTVP
 70
   64
  9
$PINSBASE
 10
0
 20
0
 30
0
  9
$PLIMCHECK
 70
    0
  9
$PEXTMIN
 10
0
 20
0
 30
0
  9
$PEXTMAX
 10
0
 20
0
 30
0
  9
$GRIDMODE
 70
    1
  9
$SNAPSTYLE
 70
    0
  9
$GRIDUNIT
 10
0
 20
0
  9
$PLIMMIN
 10
0
 20
0
  9
$PLIMMAX
 10
297
 20
210
  9
$UNITMODE
 70
    0
  9
$VISRETAIN
 70
    1
  9
$PLINEGEN
 70
    0
  9
$PSLTSCALE
 70
    1
  9
$TREEDEPTH
 70
 3020
  9
$CMLSTYLE
  2
Standard
  9
$CMLJUST
 70
    0
  9
$CMLSCALE
 40
20
  9
$PROXYGRAPHICS
 70
    1
  9
$MEASUREMENT
 70
    1
  9
$CELWEIGHT
370
   -1
  9
$ENDCAPS
280
    0
  9
$JOINSTYLE
280
    0
  9
$LWDISPLAY
290
    0
  9
$INSUNITS
 70
    4
  9
$HYPERLINKBASE
  1

  9
$STYLESHEET
  1

  9
$XEDIT
290
    1
  9
$CEPSNTYPE
380
    0
  9
$PSTYLEMODE
290
    1
  9
$EXTNAMES
290
    1
  9
$PSVPSCALE
 40
1
  9
$OLESTARTUP
290
    0
  9
$SORTENTS
280
  127
  9
$INDEXCTL
280
    0
  9
$HIDETEXT
280
    1
  9
$XCLIPFRAME
290
    0
  9
$HALOGAP
280
    0
  9
$OBSCOLOR
 70
  257
  9
$OBSLTYPE
280
    0
  9
$INTERSECTIONDISPLAY
280
    0
  9
$INTERSECTIONCOLOR
 70
  257
  9
$DIMASSOC
280
    1
  9
$PROJECTNAME
  1

  9
$CAMERADISPLAY
290
    0
  9
$LENSLENGTH
 40
50
  9
$CAMERAHEIGHT
 40
0
  9
$STEPSPERSEC
 40
2
  9
$STEPSIZE
 40
50
  9
$3DDWFPREC
 40
2
  9
$PSOLWIDTH
 40
5
  9
$PSOLHEIGHT
 40
80
  9
$LOFTANG1
 40
1.570796326794897
  9
$LOFTANG2
 40
1.570796326794897
  9
$LOFTMAG1
 40
0
  9
$LOFTMAG2
 40
0
  9
$LOFTPARAM
 70
    7
  9
$LOFTNORMALS
280
    1
  9
$LATITUDE
 40
1
  9
$LONGITUDE
 40
1
  9
$NORTHDIRECTION
 40
0
  9
$TIMEZONE
 70
-8000
  9
$LIGHTGLYPHDISPLAY
280
    1
  9
$TILEMODELIGHTSYNCH
280
    1
  9
$SOLIDHIST
280
    1
  9
$SHOWHIST
280
    1
  9
$DWFFRAME
280
    2
  9
$DGNFRAME
280
    0
  9
$REALWORLDSCALE
290
    1
  9
$INTERFERECOLOR
 62
    1
  9
$CSHADOW
280
    0
  9
$SHADOWPLANELOCATION
 40
0
  0
ENDSEC
  0
SECTION
  2
CLASSES
  0
ENDSEC
  0
SECTION
  2
TABLES
  0
TABLE
  2
VPORT
  5
8
330
0
100
AcDbSymbolTable
 70
    1
  0
VPORT
  5
31
330
2
100
AcDbSymbolTableRecord
100
AcDbViewportTableRecord
  2
*ACTIVE
 70
    0
 10
0
 20
0
 11
1
 21
1
 12
397.4010353769992
 22
285.0680272305815
 13
0
 23
0
 14
10
 24
10
 15
10
 25
10
 16
0
 26
0
 36
1
 17
0
 27
0
 37
0
 40
596.6540104826124
 41
1.94320987654321
 42
50
 43
0
 44
0
 50
0
 51
0
 71
    0
 72
  100
 73
    1
 74
    3
 75
    0
 76
    1
 77
    0
 78
    0
281
    0
 65
    1
110
0
120
0
130
0
111
1
121
0
131
0
112
0
122
1
132
0
 79
    0
146
0
348
10020
 60
    7
 61
    5
292
1
282
    1
141
0
142
0
 63
  250
421
3358443
  0
ENDTAB
  0
TABLE
  2
LTYPE
  5
5
330
0
100
AcDbSymbolTable
 70
    4
  0
LTYPE
  5
14
330
5
100
AcDbSymbolTableRecord
100
AcDbLinetypeTableRecord
  2
ByBlock
 70
    0
  3

 72
   65
 73
    0
 40
0
  0
LTYPE
  5
15
330
5
100
AcDbSymbolTableRecord
100
AcDbLinetypeTableRecord
  2
ByLayer
 70
    0
  3

 72
   65
 73
    0
 40
0
  0
LTYPE
  5
16
330
5
100
AcDbSymbolTableRecord
100
AcDbLinetypeTableRecord
  2
Continuous
 70
    0
  3
Solid line
 72
   65
 73
    0
 40
0
  0
LTYPE
  5
32
330
5
100
AcDbSymbolTableRecord
100
AcDbLinetypeTableRecord
  2
DOT
 70
    0
  3
Dot . . . . . . . . . . . . . . . . . . . . . .
 72
   65
 73
    2
 40
6.35
 49
0
 74
    0
 49
-6.35
 74
    0
  0
LTYPE
  5
33
330
5
100
AcDbSymbolTableRecord
100
AcDbLinetypeTableRecord
  2
DOTTINY
 70
    0
  3
Dot (.15x) .....................................
 72
   65
 73
    2
 40
0.9525
 49
0
 74
    0
 49
-0.9525
 74
    0
  0
LTYPE
  5
34
330
5
100
AcDbSymbolTableRecord
100
AcDbLinetypeTableRecord
  2
DOT2
 70
    0
  3
Dot (.5x) .....................................
 72
   65
 73
    2
 40
3.175
 49
0
 74
    0
 49
-3.175
 74
    0
  0
LTYPE
  5
35
330
5
100
AcDbSymbolTableRecord
100
AcDbLinetypeTableRecord
  2
DOTX2
 70
    0
  3
Dot (2x) .  .  .  .  .  .  .  .  .  .  .  .  .
 72
   65
 73
    2
 40
12.7
 49
0
 74
    0
 49
-12.7
 74
    0
  0
LTYPE
  5
36
330
5
100
AcDbSymbolTableRecord
100
AcDbLinetypeTableRecord
  2
DASHED
 70
    0
  3
Dashed _ _ _ _ _ _ _ _ _ _ _ _ _ _ _ _ _
 72
   65
 73
    2
 40
19.05
 49
12.7
 74
    0
 49
-6.35
 74
    0
  0
LTYPE
  5
37
330
5
100
AcDbSymbolTableRecord
100
AcDbLinetypeTableRecord
  2
DASHEDTINY
 70
    0
  3
Dashed (.15x) _ _ _ _ _ _ _ _ _ _ _ _ _ _ _ _ _
 72
   65
 73
    2
 40
2.8575
 49
1.905
 74
    0
 49
-0.9525
 74
    0
  0
LTYPE
  5
38
330
5
100
AcDbSymbolTableRecord
100
AcDbLinetypeTableRecord
  2
DASHED2
 70
    0
  3
Dashed (.5x) _ _ _ _ _ _ _ _ _ _ _ _ _ _ _ _ _
 72
   65
 73
    2
 40
9.524999999999999
 49
6.35
 74
    0
 49
-3.175
 74
    0
  0
LTYPE
  5
39
330
5
100
AcDbSymbolTableRecord
100
AcDbLinetypeTableRecord
  2
DASHEDX2
 70
    0
  3
Dashed (2x) ____  ____  ____  ____  ____  ___
 72
   65
 73
    2
 40
38.09999999999999
 49
25.4
 74
    0
 49
-12.7
 74
    0
  0
LTYPE
  5
3A
330
5
100
AcDbSymbolTableRecord
100
AcDbLinetypeTableRecord
  2
DASHDOT
 70
    0
  3
Dash dot __ . __ . __ . __ . __ . __ . __ . __
 72
   65
 73
    4
 40
25.4
 49
12.7
 74
    0
 49
-6.35
 74
    0
 49
0
 74
    0
 49
-6.35
 74
    0
  0
LTYPE
  5
3B
330
5
100
AcDbSymbolTableRecord
100
AcDbLinetypeTableRecord
  2
DASHDOTTINY
 70
    0
  3
Dash dot (.15x) _._._._._._._._._._._._._._._.
 72
   65
 73
    4
 40
3.81
 49
1.905
 74
    0
 49
-0.9525
 74
    0
 49
0
 74
    0
 49
-0.9525
 74
    0
  0
LTYPE
  5
3C
330
5
100
AcDbSymbolTableRecord
100
AcDbLinetypeTableRecord
  2
DASHDOT2
 70
    0
  3
Dash dot (.5x) _._._._._._._._._._._._._._._.
 72
   65
 73
    4
 40
12.7
 49
6.35
 74
    0
 49
-3.175
 74
    0
 49
0
 74
    0
 49
-3.175
 74
    0
  0
LTYPE
  5
3D
330
5
100
AcDbSymbolTableRecord
100
AcDbLinetypeTableRecord
  2
DASHDOTX2
 70
    0
  3
Dash dot (2x) ____  .  ____  .  ____  .  ___
 72
   65
 73
    4
 40
50.8
 49
25.4
 74
    0
 49
-12.7
 74
    0
 49
0
 74
    0
 49
-12.7
 74
    0
  0
LTYPE
  5
3E
330
5
100
AcDbSymbolTableRecord
100
AcDbLinetypeTableRecord
  2
DIVIDE
 70
    0
  3
Divide ____ . . ____ . . ____ . . ____ . . ____
 72
   65
 73
    6
 40
31.75
 49
12.7
 74
    0
 49
-6.35
 74
    0
 49
0
 74
    0
 49
-6.35
 74
    0
 49
0
 74
    0
 49
-6.35
 74
    0
  0
LTYPE
  5
3F
330
5
100
AcDbSymbolTableRecord
100
AcDbLinetypeTableRecord
  2
DIVIDETINY
 70
    0
  3
Divide (.15x) __..__..__..__..__..__..__..__.._
 72
   65
 73
    6
 40
4.7625
 49
1.905
 74
    0
 49
-0.9525
 74
    0
 49
0
 74
    0
 49
-0.9525
 74
    0
 49
0
 74
    0
 49
-0.9525
 74
    0
  0
LTYPE
  5
40
330
5
100
AcDbSymbolTableRecord
100
AcDbLinetypeTableRecord
  2
DIVIDE2
 70
    0
  3
Divide (.5x) __..__..__..__..__..__..__..__.._
 72
   65
 73
    6
 40
15.875
 49
6.35
 74
    0
 49
-3.175
 74
    0
 49
0
 74
    0
 49
-3.175
 74
    0
 49
0
 74
    0
 49
-3.175
 74
    0
  0
LTYPE
  5
41
330
5
100
AcDbSymbolTableRecord
100
AcDbLinetypeTableRecord
  2
DIVIDEX2
 70
    0
  3
Divide (2x) ________  .  .  ________  .  .  _
 72
   65
 73
    6
 40
63.5
 49
25.4
 74
    0
 49
-12.7
 74
    0
 49
0
 74
    0
 49
-12.7
 74
    0
 49
0
 74
    0
 49
-12.7
 74
    0
  0
LTYPE
  5
42
330
5
100
AcDbSymbolTableRecord
100
AcDbLinetypeTableRecord
  2
BORDER
 70
    0
  3
Border __ __ . __ __ . __ __ . __ __ . __ __ .
 72
   65
 73
    6
 40
44.45
 49
12.7
 74
    0
 49
-6.35
 74
    0
 49
12.7
 74
    0
 49
-6.35
 74
    0
 49
0
 74
    0
 49
-6.35
 74
    0
  0
LTYPE
  5
43
330
5
100
AcDbSymbolTableRecord
100
AcDbLinetypeTableRecord
  2
BORDERTINY
 70
    0
  3
Border (.15x) __.__.__.__.__.__.__.__.__.__.__.
 72
   65
 73
    6
 40
6.6675
 49
1.905
 74
    0
 49
-0.9525
 74
    0
 49
1.905
 74
    0
 49
-0.9525
 74
    0
 49
0
 74
    0
 49
-0.9525
 74
    0
  0
LTYPE
  5
44
330
5
100
AcDbSymbolTableRecord
100
AcDbLinetypeTableRecord
  2
BORDER2
 70
    0
  3
Border (.5x) __.__.__.__.__.__.__.__.__.__.__.
 72
   65
 73
    6
 40
22.225
 49
6.35
 74
    0
 49
-3.175
 74
    0
 49
6.35
 74
    0
 49
-3.175
 74
    0
 49
0
 74
    0
 49
-3.175
 74
    0
  0
LTYPE
  5
45
330
5
100
AcDbSymbolTableRecord
100
AcDbLinetypeTableRecord
  2
BORDERX2
 70
    0
  3
Border (2x) ____  ____  .  ____  ____  .  ___
 72
   65
 73
    6
 40
88.89999999999999
 49
25.4
 74
    0
 49
-12.7
 74
    0
 49
25.4
 74
    0
 49
-12.7
 74
    0
 49
0
 74
    0
 49
-12.7
 74
    0
  0
LTYPE
  5
46
330
5
100
AcDbSymbolTableRecord
100
AcDbLinetypeTableRecord
  2
CENTER
 70
    0
  3
Center ____ _ ____ _ ____ _ ____ _ ____ _ ____
 72
   65
 73
    4
 40
50.8
 49
31.75
 74
    0
 49
-6.35
 74
    0
 49
6.35
 74
    0
 49
-6.35
 74
    0
  0
LTYPE
  5
47
330
5
100
AcDbSymbolTableRecord
100
AcDbLinetypeTableRecord
  2
CENTERTINY
 70
    0
  3
Center (.15x) ___ _ ___ _ ___ _ ___ _ ___ _ ___
 72
   65
 73
    4
 40
7.619999999999999
 49
4.7625
 74
    0
 49
-0.9525
 74
    0
 49
0.9525
 74
    0
 49
-0.9525
 74
    0
  0
LTYPE
  5
48
330
5
100
AcDbSymbolTableRecord
100
AcDbLinetypeTableRecord
  2
CENTER2
 70
    0
  3
Center (.5x) ___ _ ___ _ ___ _ ___ _ ___ _ ___
 72
   65
 73
    4
 40
28.575
 49
19.05
 74
    0
 49
-3.175
 74
    0
 49
3.175
 74
    0
 49
-3.175
 74
    0
  0
LTYPE
  5
49
330
5
100
AcDbSymbolTableRecord
100
AcDbLinetypeTableRecord
  2
CENTERX2
 70
    0
  3
Center (2x) ________  __  ________  __  _____
 72
   65
 73
    4
 40
101.6
 49
63.5
 74
    0
 49
-12.7
 74
    0
 49
12.7
 74
    0
 49
-12.7
 74
    0
  0
ENDTAB
  0
TABLE
  2
LAYER
  5
2
330
0
100
AcDbSymbolTable
 70
    1
  0
LAYER
  5
10
330
2
100
AcDbSymbolTableRecord
100
AcDbLayerTableRecord
  2
0
 70
    0
 62
    7
  6
CONTINUOUS
370
    0
390
F
  0
ENDTAB
  0
TABLE
  2
STYLE
  5
3
330
0
100
AcDbSymbolTable
 70
    3
  0
STYLE
  5
4A
330
2
100
AcDbSymbolTableRecord
100
AcDbTextStyleTableRecord
  2
Standard
 70
    0
 40
0
 41
1
 50
0
 71
    0
 42
1
  3
txt
  4

  0
ENDTAB
  0
TABLE
  2
VIEW
  5
6
330
0
100
AcDbSymbolTable
 70
    0
  0
ENDTAB
  0
TABLE
  2
UCS
  5
7
330
0
100
AcDbSymbolTable
 70
    0
  0
ENDTAB
  0
TABLE
  2
APPID
  5
9
330
0
100
AcDbSymbolTable
 70
    1
  0
APPID
  5
12
330
9
100
AcDbSymbolTableRecord
100
AcDbRegAppTableRecord
  2
ACAD
 70
    0
  0
APPID
  5
4B
330
9
100
AcDbSymbolTableRecord
100
AcDbRegAppTableRecord
  2
LibreCad
 70
    0
  0
ENDTAB
  0
TABLE
  2
DIMSTYLE
  5
A
330
0
100
AcDbSymbolTable
 70
    1
100
AcDbDimStyleTable
 71
    1
  0
DIMSTYLE
105
4C
330
A
100
AcDbSymbolTableRecord
100
AcDbDimStyleTableRecord
  2
Standard
 70
    0
 40
1
 41
2.5
 42
0.625
 43
0.38
 44
1.25
 45
0
 46
0
 47
0
 48
0
 49
1
140
2.5
141
0.09
142
0
143
25.4
144
1
145
0
146
1
147
0.625
148
0
 71
    0
 72
    0
 73
    0
 74
    1
 75
    0
 76
    0
 77
    0
 78
    8
 79
    0
170
    0
171
    2
172
    0
173
    0
174
    0
175
    0
176
    1
177
    1
178
    1
179
    0
271
    2
272
    4
273
    2
274
    2
275
    0
276
    0
277
    2
278
   44
279
    0
280
    0
281
    0
282
    0
283
    1
284
    0
285
    0
286
    0
288
    0
289
    3
340
standard
341

371
   -2
372
   -2
  0
ENDTAB
  0
TABLE
  2
BLOCK_RECORD
  5
1
330
0
100
AcDbSymbolTable
 70
    2
  0
BLOCK_RECORD
  5
1F
330
1
100
AcDbSymbolTableRecord
100
AcDbBlockTableRecord
  2
*Model_Space
 70
    0
280
    1
281
    0
  0
BLOCK_RECORD
  5
1E
330
1
100
AcDbSymbolTableRecord
100
AcDbBlockTableRecord
  2
*Paper_Space
 70
    0
280
    1
281
    0
  0
BLOCK_RECORD
  5
4D
330
1
100
AcDbSymbolTableRecord
100
AcDbBlockTableRecord
  2
pcb-brd
 70
    0
280
    1
281
    0
  0
BLOCK_RECORD
  5
50
330
1
100
AcDbSymbolTableRecord
100
AcDbBlockTableRecord
  2
plate
 70
    0
280
    1
281
    0
  0
BLOCK_RECORD
  5
53
330
1
100
AcDbSymbolTableRecord
100
AcDbBlockTableRecord
  2
pcb-brd-0
 70
    0
280
    1
281
    0
  0
BLOCK_RECORD
  5
56
330
1
100
AcDbSymbolTableRecord
100
AcDbBlockTableRecord
  2
pcb-brd-1
 70
    0
280
    1
281
    0
  0
ENDTAB
  0
ENDSEC
  0
SECTION
  2
BLOCKS
  0
BLOCK
  5
20
330
1F
100
AcDbEntity
  8
0
100
AcDbBlockBegin
  2
*Model_Space
 70
    0
 10
0
 20
0
 30
0
  3
*Model_Space
  1

  0
ENDBLK
  5
21
330
1F
100
AcDbEntity
  8
0
100
AcDbBlockEnd
  0
BLOCK
  5
1C
330
1B
100
AcDbEntity
  8
0
100
AcDbBlockBegin
  2
*Paper_Space
 70
    0
 10
0
 20
0
 30
0
  3
*Paper_Space
  1

  0
ENDBLK
  5
1D
330
1F
100
AcDbEntity
  8
0
100
AcDbBlockEnd
  0
BLOCK
  5
4E
330
4D
100
AcDbEntity
  8
0
100
AcDbBlockBegin
  2
pcb-brd
 70
    0
 10
0
 20
0
  3
pcb-brd
  1

  0
ENDBLK
  5
4F
330
4D
100
AcDbEntity
  8
0
100
AcDbBlockEnd
  0
BLOCK
  5
51
330
50
100
AcDbEntity
  8
0
100
AcDbBlockBegin
  2
plate
 70
    0
 10
0
 20
0
  3
plate
  1

  0
LWPOLYLINE
  5
59
100
AcDbEntity
  8
0
  6
ByLayer
 62
  256
370
   -1
100
AcDbPolyline
 90
    4
 70
    1
 43
0
 10
164.0517292831934
 20
88.6323981287308
 10
178.0517292831934
 20
88.6323981287308
 10
178.0517292831934
 20
102.6323981287308
 10
164.0517292831934
 20
102.6323981287308
  0
LWPOLYLINE
  5
5A
100
AcDbEntity
  8
0
  6
ByLayer
 62
  256
370
   -1
100
AcDbPolyline
 90
    4
 70
    1
 43
0
 10
164.0517292831934
 20
107.6823981287308
 10
178.0517292831934
 20
107.6823981287308
 10
178.0517292831934
 20
121.6823981287308
 10
164.0517292831934
 20
121.6823981287308
  0
LWPOLYLINE
  5
5B
100
AcDbEntity
  8
0
  6
ByLayer
 62
  256
370
   -1
100
AcDbPolyline
 90
    4
 70
    1
 43
0
 10
164.0517292831934
 20
126.7323981287308
 10
178.0517292831934
 20
126.7323981287308
 10
178.0517292831934
 20
140.7323981287308
 10
164.0517292831934
 20
140.7323981287308
  0
LWPOLYLINE
  5
5C
100
AcDbEntity
  8
0
  6
ByLayer
 62
  256
370
   -1
100
AcDbPolyline
 90
    4
 70
    1
 43
0
 10
164.0517292831934
 20
145.7823981287308
 10
178.0517292831934
 20
145.7823981287308
 10
178.0517292831934
 20
159.7823981287308
 10
164.0517292831934
 20
159.7823981287308
  0
LWPOLYLINE
  5
5D
100
AcDbEntity
  8
0
  6
ByLayer
 62
  256
370
   -1
100
AcDbPolyline
 90
    4
 70
    1
 43
0
 10
145.0017292831935
 20
83.8698981287308
 10
159.0017292831935
 20
83.8698981287308
 10
159.0017292831935
 20
97.8698981287308
 10
145.0017292831935
 20
97.8698981287308
  0
LWPOLYLINE
  5
5E
100
AcDbEntity
  8
0
  6
ByLayer
 62
  256
370
   -1
100
AcDbPolyline
 90
    4
 70
    1
 43
0
 10
145.0017292831935
 20
102.9198981287308
 10
159.0017292831935
 20
102.9198981287308
 10
159.0017292831935
 20
116.9198981287308
 10
145.0017292831935
 20
116.9198981287308
  0
LWPOLYLINE
  5
5F
100
AcDbEntity
  8
0
  6
ByLayer
 62
  256
370
   -1
100
AcDbPolyline
 90
    4
 70
    1
 43
0
 10
145.0017292831935
 20
121.9698981287308
 10
159.0017292831935
 20
121.9698981287308
 10
159.0017292831935
 20
135.9698981287308
 10
145.0017292831935
 20
135.9698981287308
  0
LWPOLYLINE
  5
60
100
AcDbEntity
  8
0
  6
ByLayer
 62
  256
370
   -1
100
AcDbPolyline
 90
    4
 70
    1
 43
0
 10
145.0017292831935
 20
141.0198981287309
 10
159.0017292831935
 20
141.0198981287309
 10
159.0017292831935
 20
155.0198981287309
 10
145.0017292831935
 20
155.0198981287309
  0
LWPOLYLINE
  5
61
100
AcDbEntity
  8
0
  6
ByLayer
 62
  256
370
   -1
100
AcDbPolyline
 90
    4
 70
    1
 43
0
 10
183.1017292831934
 20
83.8698981287308
 10
197.1017292831934
 20
83.8698981287308
 10
197.1017292831934
 20
97.8698981287308
 10
183.1017292831934
 20
97.8698981287308
  0
LWPOLYLINE
  5
62
100
AcDbEntity
  8
0
  6
ByLayer
 62
  256
370
   -1
100
AcDbPolyline
 90
    4
 70
    1
 43
0
 10
183.1017292831934
 20
102.9198981287308
 10
197.1017292831934
 20
102.9198981287308
 10
197.1017292831934
 20
116.9198981287308
 10
183.1017292831934
 20
116.9198981287308
  0
LWPOLYLINE
  5
63
100
AcDbEntity
  8
0
  6
ByLayer
 62
  256
370
   -1
100
AcDbPolyline
 90
    4
 70
    1
 43
0
 10
183.1017292831934
 20
121.9698981287308
 10
197.1017292831934
 20
121.9698981287308
 10
197.1017292831934
 20
135.9698981287308
 10
183.1017292831934
 20
135.9698981287308
  0
LWPOLYLINE
  5
64
100
AcDbEntity
  8
0
  6
ByLayer
 62
  256
370
   -1
100
AcDbPolyline
 90
    4
 70
    1
 43
0
 10
183.1017292831934
 20
141.0198981287309
 10
197.1017292831934
 20
141.0198981287309
 10
197.1017292831934
 20
155.0198981287309
 10
183.1017292831934
 20
155.0198981287309
  0
LWPOLYLINE
  5
65
100
AcDbEntity
  8
0
  6
ByLayer
 62
  256
370
   -1
100
AcDbPolyline
 90
    4
 70
    1
 43
0
 10
125.9517292831935
 20
79.10739812873079
 10
139.9517292831935
 20
79.10739812873079
 10
139.9517292831935
 20
93.10739812873079
 10
125.9517292831935
 20
93.10739812873079
  0
LWPOLYLINE
  5
66
100
AcDbEntity
  8
0
  6
ByLayer
 62
  256
370
   -1
100
AcDbPolyline
 90
    4
 70
    1
 43
0
 10
125.9517292831935
 20
98.1573981287308
 10
139.9517292831935
 20
98.1573981287308
 10
139.9517292831935
 20
112.1573981287308
 10
125.9517292831935
 20
112.1573981287308
  0
LWPOLYLINE
  5
67
100
AcDbEntity
  8
0
  6
ByLayer
 62
  256
370
   -1
100
AcDbPolyline
 90
    4
 70
    1
 43
0
 10
125.9517292831935
 20
117.2073981287308
 10
139.9517292831935
 20
117.2073981287308
 10
139.9517292831935
 20
131.2073981287308
 10
125.9517292831935
 20
131.2073981287308
  0
LWPOLYLINE
  5
68
100
AcDbEntity
  8
0
  6
ByLayer
 62
  256
370
   -1
100
AcDbPolyline
 90
    4
 70
    1
 43
0
 10
125.9517292831935
 20
136.2573981287308
 10
139.9517292831935
 20
136.2573981287308
 10
139.9517292831935
 20
150.2573981287308
 10
125.9517292831935
 20
150.2573981287308
  0
CIRCLE
  5
69
100
AcDbEntity
  8
0
  6
ByLayer
 62
  256
370
   -1
100
AcDbCircle
 10
133.6671881214441
 20
178.2174915169736
 40
11
  0
CIRCLE
  5
6A
100
AcDbEntity
  8
0
  6
ByLayer
 62
  256
370
   -1
100
AcDbCircle
 10
158.6671881214441
 20
178.2174915169736
 40
11
  0
CIRCLE
  5
6B
100
AcDbEntity
  8
0
  6
ByLayer
 62
  256
370
   -1
100
AcDbCircle
 10
294.2512881214441
 20
178.2174915169736
 40
11
  0
ARC
  5
6C
100
AcDbEntity
  8
0
  6
ByLayer
 62
  256
370
   -1
100
AcDbCircle
 10
284.0109393485424
 20
152.7823981287307
 40
0.5
100
AcDbArc
 50
90
 51
180
  0
LINE
  5
6D
100
AcDbEntity
  8
0
  6
ByLayer
 62
  256
370
   -1
100
AcDbLine
 10
284.0109393485424
 20
153.2823981287307
 11
302.0609393485424
 21
153.2823981287308
  0
ARC
  5
6E
100
AcDbEntity
  8
0
  6
ByLayer
 62
  256
370
   -1
100
AcDbCircle
 10
302.0609393485424
 20
153.7823981287308
 40
0.5
100
AcDbArc
 50
270
 51
0
  0
LINE
  5
6F
100
AcDbEntity
  8
0
  6
ByLayer
 62
  256
370
   -1
100
AcDbLine
 10
302.5609393485424
 20
153.7823981287308
 11
302.5609393485424
 21
157.5448981287308
  0
ARC
  5
70
100
AcDbEntity
  8
0
  6
ByLayer
 62
  256
370
   -1
100
AcDbCircle
 10
303.0609393485424
 20
157.5448981287308
 40
0.5
100
AcDbArc
 50
90
 51
180
  0
LINE
  5
71
100
AcDbEntity
  8
0
  6
ByLayer
 62
  256
370
   -1
100
AcDbLine
 10
303.0609393485424
 20
158.0448981287308
 11
321.1109393485424
 21
158.0448981287308
  0
ARC
  5
72
100
AcDbEntity
  8
0
  6
ByLayer
 62
  256
370
   -1
100
AcDbCircle
 10
321.1109393485424
 20
158.5448981287308
 40
0.5
100
AcDbArc
 50
270
 51
0
  0
LINE
  5
73
100
AcDbEntity
  8
0
  6
ByLayer
 62
  256
370
   -1
100
AcDbLine
 10
321.6109393485424
 20
158.5448981287308
 11
321.6109393485424
 21
162.3073981287308
  0
ARC
  5
74
100
AcDbEntity
  8
0
  6
ByLayer
 62
  256
370
   -1
100
AcDbCircle
 10
322.1109393485424
 20
162.3073981287308
 40
0.5
100
AcDbArc
 50
90
 51
180
  0
LINE
  5
75
100
AcDbEntity
  8
0
  6
ByLayer
 62
  256
370
   -1
100
AcDbLine
 10
322.1109393485424
 20
162.8073981287308
 11
341.1609393485424
 21
162.8073981287308
  0
ARC
  5
76
100
AcDbEntity
  8
0
  6
ByLayer
 62
  256
370
   -1
100
AcDbCircle
 10
341.1609393485424
 20
162.3073981287308
 40
0.5
100
AcDbArc
 50
0
 51
90
  0
LINE
  5
77
100
AcDbEntity
  8
0
  6
ByLayer
 62
  256
370
   -1
100
AcDbLine
 10
341.6609393485424
 20
162.3073981287308
 11
341.6609393485424
 21
158.5448981287308
  0
ARC
  5
78
100
AcDbEntity
  8
0
  6
ByLayer
 62
  256
370
   -1
100
AcDbCircle
 10
342.1609393485424
 20
158.5448981287308
 40
0.5
100
AcDbArc
 50
180
 51
270
  0
LINE
  5
79
100
AcDbEntity
  8
0
  6
ByLayer
 62
  256
370
   -1
100
AcDbLine
 10
342.1609393485424
 20
158.0448981287308
 11
360.2109393485424
 21
158.0448981287308
  0
ARC
  5
7A
100
AcDbEntity
  8
0
  6
ByLayer
 62
  256
370
   -1
100
AcDbCircle
 10
360.2109393485424
 20
157.5448981287308
 40
0.5
100
AcDbArc
 50
0
 51
90
  0
LINE
  5
7B
100
AcDbEntity
  8
0
  6
ByLayer
 62
  256
370
   -1
100
AcDbLine
 10
360.7109393485424
 20
157.5448981287308
 11
360.7109393485424
 21
81.34489812873078
  0
ARC
  5
7C
100
AcDbEntity
  8
0
  6
ByLayer
 62
  256
370
   -1
100
AcDbCircle
 10
360.2109393485424
 20
81.34489812873079
 40
0.5
100
AcDbArc
 50
270
 51
359.9999999999984
  0
LINE
  5
7D
100
AcDbEntity
  8
0
  6
ByLayer
 62
  256
370
   -1
100
AcDbLine
 10
341.1609393485424
 20
80.84489812873079
 11
360.2109393485424
 21
80.84489812873079
  0
ARC
  5
7E
100
AcDbEntity
  8
0
  6
ByLayer
 62
  256
370
   -1
100
AcDbCircle
 10
341.1609393485424
 20
81.34489812873079
 40
0.5
100
AcDbArc
 50
180
 51
270
  0
LINE
  5
7F
100
AcDbEntity
  8
0
  6
ByLayer
 62
  256
370
   -1
100
AcDbLine
 10
340.6609393485424
 20
85.10739812873081
 11
340.6609393485424
 21
81.34489812873079
  0
ARC
  5
80
100
AcDbEntity
  8
0
  6
ByLayer
 62
  256
370
   -1
100
AcDbCircle
 10
340.1609393485424
 20
85.10739812873081
 40
0.5
100
AcDbArc
 50
0
 51
90
  0
LINE
  5
81
100
AcDbEntity
  8
0
  6
ByLayer
 62
  256
370
   -1
100
AcDbLine
 10
323.1109393485424
 20
85.60739812873081
 11
340.1609393485424
 21
85.60739812873081
  0
ARC
  5
82
100
AcDbEntity
  8
0
  6
ByLayer
 62
  256
370
   -1
100
AcDbCircle
 10
323.1109393485424
 20
85.10739812873081
 40
0.5
100
AcDbArc
 50
90
 51
180
  0
LINE
  5
83
100
AcDbEntity
  8
0
  6
ByLayer
 62
  256
370
   -1
100
AcDbLine
 10
322.6109393485424
 20
81.34489812873079
 11
322.6109393485424
 21
85.10739812873081
  0
ARC
  5
84
100
AcDbEntity
  8
0
  6
ByLayer
 62
  256
370
   -1
100
AcDbCircle
 10
322.1109393485424
 20
81.34489812873079
 40
0.5
100
AcDbArc
 50
270
 51
0
  0
LINE
  5
85
100
AcDbEntity
  8
0
  6
ByLayer
 62
  256
370
   -1
100
AcDbLine
 10
304.0609393485424
 20
80.84489812873079
 11
322.1109393485424
 21
80.84489812873079
  0
ARC
  5
86
100
AcDbEntity
  8
0
  6
ByLayer
 62
  256
370
   -1
100
AcDbCircle
 10
304.0609393485424
 20
80.34489812873079
 40
0.5
100
AcDbArc
 50
90
 51
180
  0
LINE
  5
87
100
AcDbEntity
  8
0
  6
ByLayer
 62
  256
370
   -1
100
AcDbLine
 10
303.5609393485424
 20
76.5823981287308
 11
303.5609393485424
 21
80.34489812873079
  0
ARC
  5
88
100
AcDbEntity
  8
0
  6
ByLayer
 62
  256
370
   -1
100
AcDbCircle
 10
303.0609393485424
 20
76.5823981287308
 40
0.5
100
AcDbArc
 50
270
 51
0
  0
LINE
  5
89
100
AcDbEntity
  8
0
  6
ByLayer
 62
  256
370
   -1
100
AcDbLine
 10
283.5109393485424
 20
152.7823981287307
 11
283.5109393485424
 21
76.58239812873079
  0
LINE
  5
8A
100
AcDbEntity
  8
0
  6
ByLayer
 62
  256
370
   -1
100
AcDbLine
 10
284.0109393485424
 20
76.08239812873079
 11
303.0609393485424
 21
76.0823981287308
  0
ARC
  5
8B
100
AcDbEntity
  8
0
  6
ByLayer
 62
  256
370
   -1
100
AcDbCircle
 10
284.0109393485424
 20
76.58239812873079
 40
0.5
100
AcDbArc
 50
180
 51
270
  0
CIRCLE
  5
8C
100
AcDbEntity
  8
0
  6
ByLayer
 62
  256
370
   -1
100
AcDbCircle
 10
438.3973516811471
 20
178.2174915169736
 40
11
  0
ARC
  5
8D
100
AcDbEntity
  8
0
  6
ByLayer
 62
  256
370
   -1
100
AcDbCircle
 10
428.1570029082454
 20
152.7823981287307
 40
0.5
100
AcDbArc
 50
90
 51
180
  0
LINE
  5
8E
100
AcDbEntity
  8
0
  6
ByLayer
 62
  256
370
   -1
100
AcDbLine
 10
428.1570029082454
 20
153.2823981287307
 11
446.2070029082454
 21
153.2823981287308
  0
ARC
  5
8F
100
AcDbEntity
  8
0
  6
ByLayer
 62
  256
370
   -1
100
AcDbCircle
 10
446.2070029082454
 20
153.7823981287308
 40
0.5
100
AcDbArc
 50
270
 51
0
  0
LINE
  5
90
100
AcDbEntity
  8
0
  6
ByLayer
 62
  256
370
   -1
100
AcDbLine
 10
446.7070029082454
 20
153.7823981287308
 11
446.7070029082453
 21
157.5448981287308
  0
ARC
  5
91
100
AcDbEntity
  8
0
  6
ByLayer
 62
  256
370
   -1
100
AcDbCircle
 10
447.2070029082453
 20
157.5448981287308
 40
0.5
100
AcDbArc
 50
90
 51
180
  0
LINE
  5
92
100
AcDbEntity
  8
0
  6
ByLayer
 62
  256
370
   -1
100
AcDbLine
 10
447.2070029082453
 20
158.0448981287308
 11
465.2570029082453
 21
158.0448981287308
  0
ARC
  5
93
100
AcDbEntity
  8
0
  6
ByLayer
 62
  256
370
   -1
100
AcDbCircle
 10
465.2570029082453
 20
158.5448981287308
 40
0.5
100
AcDbArc
 50
270
 51
0
  0
LINE
  5
94
100
AcDbEntity
  8
0
  6
ByLayer
 62
  256
370
   -1
100
AcDbLine
 10
465.7570029082453
 20
158.5448981287308
 11
465.7570029082453
 21
162.3073981287308
  0
ARC
  5
95
100
AcDbEntity
  8
0
  6
ByLayer
 62
  256
370
   -1
100
AcDbCircle
 10
466.2570029082453
 20
162.3073981287308
 40
0.5
100
AcDbArc
 50
90
 51
180
  0
LINE
  5
96
100
AcDbEntity
  8
0
  6
ByLayer
 62
  256
370
   -1
100
AcDbLine
 10
466.2570029082453
 20
162.8073981287308
 11
485.3070029082454
 21
162.8073981287308
  0
ARC
  5
97
100
AcDbEntity
  8
0
  6
ByLayer
 62
  256
370
   -1
100
AcDbCircle
 10
485.3070029082454
 20
162.3073981287308
 40
0.5
100
AcDbArc
 50
0
 51
90
  0
LINE
  5
98
100
AcDbEntity
  8
0
  6
ByLayer
 62
  256
370
   -1
100
AcDbLine
 10
485.8070029082454
 20
162.3073981287308
 11
485.8070029082454
 21
158.5448981287308
  0
ARC
  5
99
100
AcDbEntity
  8
0
  6
ByLayer
 62
  256
370
   -1
100
AcDbCircle
 10
486.3070029082454
 20
158.5448981287308
 40
0.5
100
AcDbArc
 50
180
 51
270
  0
LINE
  5
9A
100
AcDbEntity
  8
0
  6
ByLayer
 62
  256
370
   -1
100
AcDbLine
 10
486.3070029082454
 20
158.0448981287308
 11
504.3570029082453
 21
158.0448981287308
  0
ARC
  5
9B
100
AcDbEntity
  8
0
  6
ByLayer
 62
  256
370
   -1
100
AcDbCircle
 10
504.3570029082453
 20
157.5448981287308
 40
0.5
100
AcDbArc
 50
0
 51
90
  0
LINE
  5
9C
100
AcDbEntity
  8
0
  6
ByLayer
 62
  256
370
   -1
100
AcDbLine
 10
504.8570029082453
 20
157.5448981287308
 11
504.8570029082453
 21
81.34489812873078
  0
ARC
  5
9D
100
AcDbEntity
  8
0
  6
ByLayer
 62
  256
370
   -1
100
AcDbCircle
 10
504.3570029082453
 20
81.34489812873079
 40
0.5
100
AcDbArc
 50
270
 51
359.9999999999984
  0
LINE
  5
9E
100
AcDbEntity
  8
0
  6
ByLayer
 62
  256
370
   -1
100
AcDbLine
 10
485.3070029082454
 20
80.84489812873079
 11
504.3570029082453
 21
80.84489812873079
  0
ARC
  5
9F
100
AcDbEntity
  8
0
  6
ByLayer
 62
  256
370
   -1
100
AcDbCircle
 10
485.3070029082454
 20
81.34489812873079
 40
0.5
100
AcDbArc
 50
180
 51
270
  0
LINE
  5
A0
100
AcDbEntity
  8
0
  6
ByLayer
 62
  256
370
   -1
100
AcDbLine
 10
484.8070029082454
 20
85.10739812873081
 11
484.8070029082454
 21
81.34489812873079
  0
ARC
  5
A1
100
AcDbEntity
  8
0
  6
ByLayer
 62
  256
370
   -1
100
AcDbCircle
 10
484.3070029082454
 20
85.10739812873081
 40
0.5
100
AcDbArc
 50
0
 51
90
  0
LINE
  5
A2
100
AcDbEntity
  8
0
  6
ByLayer
 62
  256
370
   -1
100
AcDbLine
 10
467.2570029082453
 20
85.60739812873081
 11
484.3070029082454
 21
85.60739812873081
  0
ARC
  5
A3
100
AcDbEntity
  8
0
  6
ByLayer
 62
  256
370
   -1
100
AcDbCircle
 10
467.2570029082453
 20
85.10739812873081
 40
0.5
100
AcDbArc
 50
90
 51
180
  0
LINE
  5
A4
100
AcDbEntity
  8
0
  6
ByLayer
 62
  256
370
   -1
100
AcDbLine
 10
466.7570029082453
 20
81.34489812873079
 11
466.7570029082453
 21
85.10739812873081
  0
ARC
  5
A5
100
AcDbEntity
  8
0
  6
ByLayer
 62
  256
370
   -1
100
AcDbCircle
 10
466.2570029082453
 20
81.34489812873079
 40
0.5
100
AcDbArc
 50
270
 51
0
  0
LINE
  5
A6
100
AcDbEntity
  8
0
  6
ByLayer
 62
  256
370
   -1
100
AcDbLine
 10
448.2070029082453
 20
80.84489812873079
 11
466.2570029082453
 21
80.84489812873079
  0
ARC
  5
A7
100
AcDbEntity
  8
0
  6
ByLayer
 62
  256
370
   -1
100
AcDbCircle
 10
448.2070029082453
 20
80.34489812873079
 40
0.5
100
AcDbArc
 50
90
 51
180
  0
LINE
  5
A8
100
AcDbEntity
  8
0
  6
ByLayer
 62
  256
370
   -1
100
AcDbLine
 10
447.7070029082454
 20
76.5823981287308
 11
447.7070029082453
 21
80.34489812873079
  0
ARC
  5
A9
100
AcDbEntity
  8
0
  6
ByLayer
 62
  256
370
   -1
100
AcDbCircle
 10
447.2070029082454
 20
76.5823981287308
 40
0.5
100
AcDbArc
 50
270
 51
0
  0
LINE
  5
AA
100
AcDbEntity
  8
0
  6
ByLayer
 62
  256
370
   -1
100
AcDbLine
 10
427.6570029082454
 20
152.7823981287307
 11
427.6570029082454
 21
76.58239812873079
  0
LINE
  5
AB
100
AcDbEntity
  8
0
  6
ByLayer
 62
  256
370
   -1
100
AcDbLine
 10
428.1570029082454
 20
76.08239812873079
 11
447.2070029082454
 21
76.0823981287308
  0
ARC
  5
AC
100
AcDbEntity
  8
0
  6
ByLayer
 62
  256
370
   -1
100
AcDbCircle
 10
428.1570029082454
 20
76.58239812873079
 40
0.5
100
AcDbArc
 50
180
 51
270
  0
CIRCLE
  5
AD
100
AcDbEntity
  8
0
  6
ByLayer
 62
  256
370
   -1
100
AcDbCircle
 10
637.1131747705081
 20
178.2174915169736
 40
11
  0
CIRCLE
  5
AE
100
AcDbEntity
  8
0
  6
ByLayer
 62
  256
370
   -1
100
AcDbCircle
 10
612.1130647051591
 20
178.2174915169736
 40
11
  0
ARC
  5
AF
100
AcDbEntity
  8
0
  6
ByLayer
 62
  256
370
   -1
100
AcDbCircle
 10
601.8727159322573
 20
152.7823981287307
 40
0.5
100
AcDbArc
 50
90
 51
180
  0
LINE
  5
B0
100
AcDbEntity
  8
0
  6
ByLayer
 62
  256
370
   -1
100
AcDbLine
 10
601.8727159322573
 20
153.2823981287307
 11
619.9227159322573
 21
153.2823981287308
  0
ARC
  5
B1
100
AcDbEntity
  8
0
  6
ByLayer
 62
  256
370
   -1
100
AcDbCircle
 10
619.9227159322573
 20
153.7823981287308
 40
0.5
100
AcDbArc
 50
270
 51
0
  0
LINE
  5
B2
100
AcDbEntity
  8
0
  6
ByLayer
 62
  256
370
   -1
100
AcDbLine
 10
620.4227159322573
 20
153.7823981287308
 11
620.4227159322572
 21
157.5448981287308
  0
ARC
  5
B3
100
AcDbEntity
  8
0
  6
ByLayer
 62
  256
370
   -1
100
AcDbCircle
 10
620.9227159322572
 20
157.5448981287308
 40
0.5
100
AcDbArc
 50
90
 51
180
  0
LINE
  5
B4
100
AcDbEntity
  8
0
  6
ByLayer
 62
  256
370
   -1
100
AcDbLine
 10
620.9227159322572
 20
158.0448981287308
 11
638.9727159322573
 21
158.0448981287308
  0
ARC
  5
B5
100
AcDbEntity
  8
0
  6
ByLayer
 62
  256
370
   -1
100
AcDbCircle
 10
638.9727159322573
 20
158.5448981287308
 40
0.5
100
AcDbArc
 50
270
 51
0
  0
LINE
  5
B6
100
AcDbEntity
  8
0
  6
ByLayer
 62
  256
370
   -1
100
AcDbLine
 10
639.4727159322573
 20
158.5448981287308
 11
639.4727159322573
 21
162.3073981287308
  0
ARC
  5
B7
100
AcDbEntity
  8
0
  6
ByLayer
 62
  256
370
   -1
100
AcDbCircle
 10
639.9727159322573
 20
162.3073981287308
 40
0.5
100
AcDbArc
 50
90
 51
180
  0
LINE
  5
B8
100
AcDbEntity
  8
0
  6
ByLayer
 62
  256
370
   -1
100
AcDbLine
 10
639.9727159322573
 20
162.8073981287308
 11
659.0227159322574
 21
162.8073981287308
  0
ARC
  5
B9
100
AcDbEntity
  8
0
  6
ByLayer
 62
  256
370
   -1
100
AcDbCircle
 10
659.0227159322574
 20
162.3073981287308
 40
0.5
100
AcDbArc
 50
0
 51
90
  0
LINE
  5
BA
100
AcDbEntity
  8
0
  6
ByLayer
 62
  256
370
   -1
100
AcDbLine
 10
659.5227159322574
 20
162.3073981287308
 11
659.5227159322574
 21
158.5448981287308
  0
ARC
  5
BB
100
AcDbEntity
  8
0
  6
ByLayer
 62
  256
370
   -1
100
AcDbCircle
 10
660.0227159322574
 20
158.5448981287308
 40
0.5
100
AcDbArc
 50
180
 51
270
  0
LINE
  5
BC
100
AcDbEntity
  8
0
  6
ByLayer
 62
  256
370
   -1
100
AcDbLine
 10
660.0227159322574
 20
158.0448981287308
 11
678.0727159322573
 21
158.0448981287308
  0
ARC
  5
BD
100
AcDbEntity
  8
0
  6
ByLayer
 62
  256
370
   -1
100
AcDbCircle
 10
678.0727159322573
 20
157.5448981287308
 40
0.5
100
AcDbArc
 50
0
 51
90
  0
LINE
  5
BE
100
AcDbEntity
  8
0
  6
ByLayer
 62
  256
370
   -1
100
AcDbLine
 10
678.5727159322573
 20
157.5448981287308
 11
678.5727159322573
 21
81.34489812873073
  0
ARC
  5
BF
100
AcDbEntity
  8
0
  6
ByLayer
 62
  256
370
   -1
100
AcDbCircle
 10
678.0727159322573
 20
81.34489812873075
 40
0.5
100
AcDbArc
 50
270
 51
359.9999999999984
  0
LINE
  5
C0
100
AcDbEntity
  8
0
  6
ByLayer
 62
  256
370
   -1
100
AcDbLine
 10
659.0227159322574
 20
80.84489812873075
 11
678.0727159322573
 21
80.84489812873075
  0
ARC
  5
C1
100
AcDbEntity
  8
0
  6
ByLayer
 62
  256
370
   -1
100
AcDbCircle
 10
659.0227159322574
 20
81.34489812873075
 40
0.5
100
AcDbArc
 50
180
 51
270
  0
LINE
  5
C2
100
AcDbEntity
  8
0
  6
ByLayer
 62
  256
370
   -1
100
AcDbLine
 10
658.5227159322574
 20
85.10739812873076
 11
658.5227159322574
 21
81.34489812873075
  0
ARC
  5
C3
100
AcDbEntity
  8
0
  6
ByLayer
 62
  256
370
   -1
100
AcDbCircle
 10
658.0227159322574
 20
85.10739812873076
 40
0.5
100
AcDbArc
 50
0
 51
90
  0
LINE
  5
C4
100
AcDbEntity
  8
0
  6
ByLayer
 62
  256
370
   -1
100
AcDbLine
 10
640.9727159322573
 20
85.60739812873076
 11
658.0227159322574
 21
85.60739812873076
  0
ARC
  5
C5
100
AcDbEntity
  8
0
  6
ByLayer
 62
  256
370
   -1
100
AcDbCircle
 10
640.9727159322573
 20
85.10739812873076
 40
0.5
100
AcDbArc
 50
90
 51
180
  0
LINE
  5
C6
100
AcDbEntity
  8
0
  6
ByLayer
 62
  256
370
   -1
100
AcDbLine
 10
640.4727159322573
 20
81.34489812873075
 11
640.4727159322573
 21
85.10739812873076
  0
ARC
  5
C7
100
AcDbEntity
  8
0
  6
ByLayer
 62
  256
370
   -1
100
AcDbCircle
 10
639.9727159322573
 20
81.34489812873075
 40
0.5
100
AcDbArc
 50
270
 51
0
  0
LINE
  5
C8
100
AcDbEntity
  8
0
  6
ByLayer
 62
  256
370
   -1
100
AcDbLine
 10
621.9227159322572
 20
80.84489812873075
 11
639.9727159322573
 21
80.84489812873075
  0
ARC
  5
C9
100
AcDbEntity
  8
0
  6
ByLayer
 62
  256
370
   -1
100
AcDbCircle
 10
621.9227159322572
 20
80.34489812873075
 40
0.5
100
AcDbArc
 50
90
 51
180
  0
LINE
  5
CA
100
AcDbEntity
  8
0
  6
ByLayer
 62
  256
370
   -1
100
AcDbLine
 10
621.4227159322573
 20
76.58239812873076
 11
621.4227159322572
 21
80.34489812873075
  0
ARC
  5
CB
100
AcDbEntity
  8
0
  6
ByLayer
 62
  256
370
   -1
100
AcDbCircle
 10
620.9227159322573
 20
76.58239812873076
 40
0.5
100
AcDbArc
 50
270
 51
0
  0
LINE
  5
CC
100
AcDbEntity
  8
0
  6
ByLayer
 62
  256
370
   -1
100
AcDbLine
 10
601.3727159322573
 20
152.7823981287307
 11
601.3727159322573
 21
76.58239812873074
  0
LINE
  5
CD
100
AcDbEntity
  8
0
  6
ByLayer
 62
  256
370
   -1
100
AcDbLine
 10
601.8727159322573
 20
76.08239812873074
 11
620.9227159322573
 21
76.08239812873076
  0
ARC
  5
CE
100
AcDbEntity
  8
0
  6
ByLayer
 62
  256
370
   -1
100
AcDbCircle
 10
601.8727159322573
 20
76.58239812873074
 40
0.5
100
AcDbArc
 50
180
 51
270
  0
ARC
  5
CF
100
AcDbEntity
  8
0
  6
ByLayer
 62
  256
370
   -1
100
AcDbCircle
 10
279.5109393485424
 20
188.1464237051082
 40
6
100
AcDbArc
 50
135
 51
180
  0
LINE
  5
D0
100
AcDbEntity
  8
0
  6
ByLayer
 62
  256
370
   -1
100
AcDbLine
 10
280.3393664732886
 20
197.460132204093
 11
275.2682986614232
 21
192.3890643922275
  0
ARC
  5
D1
100
AcDbEntity
  8
0
  6
ByLayer
 62
  256
370
   -1
100
AcDbCircle
 10
284.582007160408
 20
193.2174915169737
 40
6
100
AcDbArc
 50
90
 51
135.0000000000002
  0
LINE
  5
D2
100
AcDbEntity
  8
0
  6
ByLayer
 62
  256
370
   -1
100
AcDbLine
 10
284.582007160408
 20
199.2174915169736
 11
359.639871536677
 21
199.2174915169736
  0
ARC
  5
D3
100
AcDbEntity
  8
0
  6
ByLayer
 62
  256
370
   -1
100
AcDbCircle
 10
359.639871536677
 20
193.2174915169736
 40
6
100
AcDbArc
 50
45
 51
90
  0
LINE
  5
D4
100
AcDbEntity
  8
0
  6
ByLayer
 62
  256
370
   -1
100
AcDbLine
 10
363.8825122237963
 20
197.4601322040929
 11
368.9535800356617
 21
192.3890643922275
  0
ARC
  5
D5
100
AcDbEntity
  8
0
  6
ByLayer
 62
  256
370
   -1
100
AcDbCircle
 10
364.7109393485424
 20
188.1464237051082
 40
6
100
AcDbArc
 50
0
 51
45
  0
LINE
  5
D6
100
AcDbEntity
  8
0
  6
ByLayer
 62
  256
370
   -1
100
AcDbLine
 10
370.7109393485424
 20
77.14822262101154
 11
370.7109393485424
 21
188.1464237051082
  0
ARC
  5
D7
100
AcDbEntity
  8
0
  6
ByLayer
 62
  256
370
   -1
100
AcDbCircle
 10
364.7109393485424
 20
77.14822262101154
 40
6
100
AcDbArc
 50
314.9986398128227
 51
0
  0
LINE
  5
D8
100
AcDbEntity
  8
0
  6
ByLayer
 62
  256
370
   -1
100
AcDbLine
 10
363.8825793797482
 20
67.83482203839394
 11
368.9534793152595
 21
72.90548121588108
  0
ARC
  5
D9
100
AcDbEntity
  8
0
  6
ByLayer
 62
  256
370
   -1
100
AcDbCircle
 10
359.6400394130312
 20
72.07756344352438
 40
6
100
AcDbArc
 50
269.9972796256461
 51
314.9986398128228
  0
LINE
  5
DA
100
AcDbEntity
  8
0
  6
ByLayer
 62
  256
370
   -1
100
AcDbLine
 10
284.5818901378066
 20
66.08112715936461
 11
359.6397545360951
 21
66.0775634502873
  0
ARC
  5
DB
100
AcDbEntity
  8
0
  6
ByLayer
 62
  256
370
   -1
100
AcDbCircle
 10
284.5821750147427
 20
72.0811271526017
 40
6
100
AcDbArc
 50
224.9986398128231
 51
269.9972796256456
  0
LINE
  5
DC
100
AcDbEntity
  8
0
  6
ByLayer
 62
  256
370
   -1
100
AcDbLine
 10
275.268197943412
 20
72.91006363748097
 11
280.3394336096122
 21
67.83858718588459
  0
LINE
  5
DD
100
AcDbEntity
  8
0
  6
ByLayer
 62
  256
370
   -1
100
AcDbLine
 10
273.5109393485424
 20
77.15260360419808
 11
273.5109393485424
 21
188.1464237051082
  0
ARC
  5
DE
100
AcDbEntity
  8
0
  6
ByLayer
 62
  256
370
   -1
100
AcDbCircle
 10
279.5109393485424
 20
77.15260360419808
 40
6
100
AcDbArc
 50
180
 51
224.9986398128231
  0
ARC
  5
DF
100
AcDbEntity
  8
0
  6
ByLayer
 62
  256
370
   -1
100
AcDbCircle
 10
423.6570029082454
 20
188.1464237051082
 40
5
100
AcDbArc
 50
135
 51
180
  0
LINE
  5
E0
100
AcDbEntity
  8
0
  6
ByLayer
 62
  256
370
   -1
100
AcDbLine
 10
425.1925368141781
 20
196.7530254229064
 11
420.1214690023127
 21
191.6819576110409
  0
ARC
  5
E1
100
AcDbEntity
  8
0
  6
ByLayer
 62
  256
370
   -1
100
AcDbCircle
 10
428.7280707201109
 20
193.2174915169736
 40
5
100
AcDbArc
 50
90
 51
135
  0
LINE
  5
E2
100
AcDbEntity
  8
0
  6
ByLayer
 62
  256
370
   -1
100
AcDbLine
 10
428.7280707201109
 20
198.2174915169736
 11
503.7859350963799
 21
198.2174915169736
  0
ARC
  5
E3
100
AcDbEntity
  8
0
  6
ByLayer
 62
  256
370
   -1
100
AcDbCircle
 10
503.7859350963799
 20
193.2174915169736
 40
5
100
AcDbArc
 50
45
 51
90
  0
LINE
  5
E4
100
AcDbEntity
  8
0
  6
ByLayer
 62
  256
370
   -1
100
AcDbLine
 10
507.3214690023127
 20
196.7530254229063
 11
512.3925368141781
 21
191.6819576110409
  0
ARC
  5
E5
100
AcDbEntity
  8
0
  6
ByLayer
 62
  256
370
   -1
100
AcDbCircle
 10
508.8570029082454
 20
188.1464237051082
 40
5
100
AcDbArc
 50
3.307776868722058e-13
 51
44.99999999999977
  0
LINE
  5
E6
100
AcDbEntity
  8
0
  6
ByLayer
 62
  256
370
   -1
100
AcDbLine
 10
513.8570029082454
 20
77.14822262101154
 11
513.8570029082454
 21
188.1464237051082
  0
ARC
  5
E7
100
AcDbEntity
  8
0
  6
ByLayer
 62
  256
370
   -1
100
AcDbCircle
 10
508.8570029082454
 20
77.14822262101154
 40
5
100
AcDbArc
 50
314.9986398128232
 51
0
  0
LINE
  5
E8
100
AcDbEntity
  8
0
  6
ByLayer
 62
  256
370
   -1
100
AcDbLine
 10
507.3215529449983
 20
68.54194560591567
 11
512.3924528805096
 21
73.61260478340284
  0
ARC
  5
E9
100
AcDbEntity
  8
0
  6
ByLayer
 62
  256
370
   -1
100
AcDbCircle
 10
503.7861029727341
 20
72.07756344352438
 40
5
100
AcDbArc
 50
269.9972796256462
 51
314.9986398128225
  0
LINE
  5
EA
100
AcDbEntity
  8
0
  6
ByLayer
 62
  256
370
   -1
100
AcDbLine
 10
428.7280011769989
 20
67.08112715823746
 11
503.7858655752874
 21
67.07756344916015
  0
ARC
  5
EB
100
AcDbEntity
  8
0
  6
ByLayer
 62
  256
370
   -1
100
AcDbCircle
 10
428.7282385744456
 20
72.08112715260171
 40
5
100
AcDbArc
 50
224.9986398128231
 51
269.9972796256456
  0
LINE
  5
EC
100
AcDbEntity
  8
0
  6
ByLayer
 62
  256
370
   -1
100
AcDbLine
 10
420.1213850706367
 20
73.61715363193382
 11
425.1926207368369
 21
68.54567718033746
  0
LINE
  5
ED
100
AcDbEntity
  8
0
  6
ByLayer
 62
  256
370
   -1
100
AcDbLine
 10
418.6570029082454
 20
77.15260360419808
 11
418.6570029082454
 21
188.1464237051082
  0
ARC
  5
EE
100
AcDbEntity
  8
0
  6
ByLayer
 62
  256
370
   -1
100
AcDbCircle
 10
423.6570029082454
 20
77.15260360419808
 40
5
100
AcDbArc
 50
180
 51
224.9986398128233
  0
ARC
  5
EF
100
AcDbEntity
  8
0
  6
ByLayer
 62
  256
370
   -1
100
AcDbCircle
 10
597.3727159322573
 20
188.1464237051081
 40
3
100
AcDbArc
 50
135
 51
180
  0
LINE
  5
F0
100
AcDbEntity
  8
0
  6
ByLayer
 62
  256
370
   -1
100
AcDbLine
 10
600.3224634005632
 20
195.3388118605333
 11
595.2513955886976
 21
190.2677440486677
  0
ARC
  5
F1
100
AcDbEntity
  8
0
  6
ByLayer
 62
  256
370
   -1
100
AcDbCircle
 10
602.4437837441228
 20
193.2174915169736
 40
3
100
AcDbArc
 50
90
 51
135
  0
LINE
  5
F2
100
AcDbEntity
  8
0
  6
ByLayer
 62
  256
370
   -1
100
AcDbLine
 10
602.4437837441228
 20
196.2174915169736
 11
677.5016481203918
 21
196.2174915169736
  0
ARC
  5
F3
100
AcDbEntity
  8
0
  6
ByLayer
 62
  256
370
   -1
100
AcDbCircle
 10
677.5016481203918
 20
193.2174915169736
 40
3
100
AcDbArc
 50
45
 51
90
  0
LINE
  5
F4
100
AcDbEntity
  8
0
  6
ByLayer
 62
  256
370
   -1
100
AcDbLine
 10
679.6229684639515
 20
195.3388118605332
 11
684.6940362758171
 21
190.2677440486676
  0
ARC
  5
F5
100
AcDbEntity
  8
0
  6
ByLayer
 62
  256
370
   -1
100
AcDbCircle
 10
682.5727159322574
 20
188.1464237051079
 40
3
100
AcDbArc
 50
0
 51
45
  0
LINE
  5
F6
100
AcDbEntity
  8
0
  6
ByLayer
 62
  256
370
   -1
100
AcDbLine
 10
685.5727159322573
 20
77.14822262101154
 11
685.5727159322573
 21
188.1464237051079
  0
ARC
  5
F7
100
AcDbEntity
  8
0
  6
ByLayer
 62
  256
370
   -1
100
AcDbCircle
 10
682.5727159322573
 20
77.14822262101154
 40
3
100
AcDbArc
 50
314.9986398128225
 51
0
  0
LINE
  5
F8
100
AcDbEntity
  8
0
  6
ByLayer
 62
  256
370
   -1
100
AcDbLine
 10
679.6230859801046
 20
69.95619274095918
 11
684.6939859156158
 21
75.02685191844633
  0
ARC
  5
F9
100
AcDbEntity
  8
0
  6
ByLayer
 62
  256
370
   -1
100
AcDbCircle
 10
677.5018159967461
 20
72.07756344352434
 40
3
100
AcDbArc
 50
269.9972796256456
 51
314.9986398128233
  0
LINE
  5
FA
100
AcDbEntity
  8
0
  6
ByLayer
 62
  256
370
   -1
100
AcDbLine
 10
594.3727159322573
 20
77.15260360419796
 11
594.3727159322573
 21
188.1464237051081
  0
ARC
  5
FB
100
AcDbEntity
  8
0
  6
ByLayer
 62
  256
370
   -1
100
AcDbCircle
 10
597.3727159322573
 20
77.15260360419796
 40
3
100
AcDbArc
 50
180
 51
224.9986398128231
  0
LINE
  5
FC
100
AcDbEntity
  8
0
  6
ByLayer
 62
  256
370
   -1
100
AcDbLine
 10
595.2513452296921
 20
75.03133362083946
 11
600.3225808958923
 21
69.95985716924315
  0
LINE
  5
FD
100
AcDbEntity
  8
0
  6
ByLayer
 62
  256
370
   -1
100
AcDbLine
 10
602.4438091599894
 20
69.08112715598313
 11
677.5016735582781
 21
69.07756344690581
  0
ARC
  5
FE
100
AcDbEntity
  8
0
  6
ByLayer
 62
  256
370
   -1
100
AcDbCircle
 10
602.4439515984575
 20
72.08112715260165
 40
3
100
AcDbArc
 50
224.9986398128231
 51
269.9972796256456
  0
LWPOLYLINE
  5
FF
100
AcDbEntity
  8
0
  6
ByLayer
 62
  256
370
   -1
100
AcDbPolyline
 90
    4
 70
    1
 43
0
 10
66.2938521676224
 20
289.7343167664769
 10
80.2938521676224
 20
289.7343167664769
 10
80.2938521676224
 20
303.7343167664769
 10
66.2938521676224
 20
303.7343167664769
  0
LWPOLYLINE
  5
100
100
AcDbEntity
  8
0
  6
ByLayer
 62
  256
370
   -1
100
AcDbPolyline
 90
    4
 70
    1
 43
0
 10
66.2938521676224
 20
308.7843167664769
 10
80.2938521676224
 20
308.7843167664769
 10
80.2938521676224
 20
322.7843167664769
 10
66.2938521676224
 20
322.7843167664769
  0
LWPOLYLINE
  5
101
100
AcDbEntity
  8
0
  6
ByLayer
 62
  256
370
   -1
100
AcDbPolyline
 90
    4
 70
    1
 43
0
 10
66.2938521676224
 20
327.8343167664769
 10
80.2938521676224
 20
327.8343167664769
 10
80.2938521676224
 20
341.8343167664769
 10
66.2938521676224
 20
341.8343167664769
  0
LWPOLYLINE
  5
102
100
AcDbEntity
  8
0
  6
ByLayer
 62
  256
370
   -1
100
AcDbPolyline
 90
    4
 70
    1
 43
0
 10
66.2938521676224
 20
346.8843167664769
 10
80.2938521676224
 20
346.8843167664769
 10
80.2938521676224
 20
360.8843167664769
 10
66.2938521676224
 20
360.8843167664769
  0
LWPOLYLINE
  5
103
100
AcDbEntity
  8
0
  6
ByLayer
 62
  256
370
   -1
100
AcDbPolyline
 90
    4
 70
    1
 43
0
 10
47.24385216762245
 20
284.9718167664769
 10
61.24385216762245
 20
284.9718167664769
 10
61.24385216762245
 20
298.9718167664769
 10
47.24385216762245
 20
298.9718167664769
  0
LWPOLYLINE
  5
104
100
AcDbEntity
  8
0
  6
ByLayer
 62
  256
370
   -1
100
AcDbPolyline
 90
    4
 70
    1
 43
0
 10
47.24385216762245
 20
304.0218167664769
 10
61.24385216762245
 20
304.0218167664769
 10
61.24385216762245
 20
318.0218167664769
 10
47.24385216762245
 20
318.0218167664769
  0
LWPOLYLINE
  5
105
100
AcDbEntity
  8
0
  6
ByLayer
 62
  256
370
   -1
100
AcDbPolyline
 90
    4
 70
    1
 43
0
 10
47.24385216762245
 20
323.0718167664769
 10
61.24385216762245
 20
323.0718167664769
 10
61.24385216762245
 20
337.0718167664769
 10
47.24385216762245
 20
337.0718167664769
  0
LWPOLYLINE
  5
106
100
AcDbEntity
  8
0
  6
ByLayer
 62
  256
370
   -1
100
AcDbPolyline
 90
    4
 70
    1
 43
0
 10
47.24385216762245
 20
342.121816766477
 10
61.24385216762245
 20
342.121816766477
 10
61.24385216762245
 20
356.121816766477
 10
47.24385216762245
 20
356.121816766477
  0
LWPOLYLINE
  5
107
100
AcDbEntity
  8
0
  6
ByLayer
 62
  256
370
   -1
100
AcDbPolyline
 90
    4
 70
    1
 43
0
 10
85.34385216762242
 20
284.9718167664769
 10
99.34385216762242
 20
284.9718167664769
 10
99.34385216762242
 20
298.9718167664769
 10
85.34385216762242
 20
298.9718167664769
  0
LWPOLYLINE
  5
108
100
AcDbEntity
  8
0
  6
ByLayer
 62
  256
370
   -1
100
AcDbPolyline
 90
    4
 70
    1
 43
0
 10
85.34385216762242
 20
304.0218167664769
 10
99.34385216762242
 20
304.0218167664769
 10
99.34385216762242
 20
318.0218167664769
 10
85.34385216762242
 20
318.0218167664769
  0
LWPOLYLINE
  5
109
100
AcDbEntity
  8
0
  6
ByLayer
 62
  256
370
   -1
100
AcDbPolyline
 90
    4
 70
    1
 43
0
 10
85.34385216762242
 20
323.0718167664769
 10
99.34385216762242
 20
323.0718167664769
 10
99.34385216762242
 20
337.0718167664769
 10
85.34385216762242
 20
337.0718167664769
  0
LWPOLYLINE
  5
10A
100
AcDbEntity
  8
0
  6
ByLayer
 62
  256
370
   -1
100
AcDbPolyline
 90
    4
 70
    1
 43
0
 10
85.34385216762242
 20
342.121816766477
 10
99.34385216762242
 20
342.121816766477
 10
99.34385216762242
 20
356.121816766477
 10
85.34385216762242
 20
356.121816766477
  0
LWPOLYLINE
  5
10B
100
AcDbEntity
  8
0
  6
ByLayer
 62
  256
370
   -1
100
AcDbPolyline
 90
    4
 70
    1
 43
0
 10
28.19385216762244
 20
280.2093167664769
 10
42.19385216762244
 20
280.2093167664769
 10
42.19385216762244
 20
294.2093167664769
 10
28.19385216762244
 20
294.2093167664769
  0
LWPOLYLINE
  5
10C
100
AcDbEntity
  8
0
  6
ByLayer
 62
  256
370
   -1
100
AcDbPolyline
 90
    4
 70
    1
 43
0
 10
28.19385216762244
 20
299.2593167664769
 10
42.19385216762244
 20
299.2593167664769
 10
42.19385216762244
 20
313.2593167664769
 10
28.19385216762244
 20
313.2593167664769
  0
LWPOLYLINE
  5
10D
100
AcDbEntity
  8
0
  6
ByLayer
 62
  256
370
   -1
100
AcDbPolyline
 90
    4
 70
    1
 43
0
 10
28.19385216762244
 20
318.3093167664769
 10
42.19385216762244
 20
318.3093167664769
 10
42.19385216762244
 20
332.3093167664769
 10
28.19385216762244
 20
332.3093167664769
  0
LWPOLYLINE
  5
10E
100
AcDbEntity
  8
0
  6
ByLayer
 62
  256
370
   -1
100
AcDbPolyline
 90
    4
 70
    1
 43
0
 10
28.19385216762244
 20
337.3593167664769
 10
42.19385216762244
 20
337.3593167664769
 10
42.19385216762244
 20
351.3593167664769
 10
28.19385216762244
 20
351.3593167664769
  0
CIRCLE
  5
10F
100
AcDbEntity
  8
0
  6
ByLayer
 62
  256
370
   -1
100
AcDbCircle
 10
35.90931100587311
 20
379.3194101547197
 40
11
  0
CIRCLE
  5
110
100
AcDbEntity
  8
0
  6
ByLayer
 62
  256
370
   -1
100
AcDbCircle
 10
60.90931100587311
 20
379.3194101547197
 40
11
  0
LWPOLYLINE
  5
111
100
AcDbEntity
  8
0
  6
ByLayer
 62
  256
370
   -1
100
AcDbPolyline
 90
    5
 70
    1
 43
0
 10
77.58735216762246
 20
386.553816766477
 10
99.33135216762243
 20
386.553816766477
 10
99.33135216762243
 20
375.689816766477
 10
77.58735216762246
 20
375.689816766477
 10
77.58735216762246
 20
375.689816766477
  0
LWPOLYLINE
  5
112
100
AcDbEntity
  8
0
  6
ByLayer
 62
  256
370
   -1
100
AcDbPolyline
 90
    5
 70
    1
 43
0
 10
73.80935216762244
 20
393.919816766477
 10
103.1093521676224
 20
393.919816766477
 10
103.1093521676224
 20
364.1198167664769
 10
73.80935216762244
 20
364.1198167664769
 10
73.80935216762244
 20
364.1198167664769
  0
CIRCLE
  5
113
100
AcDbEntity
  8
0
  6
ByLayer
 62
  256
370
   -1
100
AcDbCircle
 10
76.80931100587311
 20
367.1198101547196
 40
1.8
  0
LWPOLYLINE
  5
114
100
AcDbEntity
  8
0
  6
ByLayer
 62
  256
370
   -1
100
AcDbPolyline
 90
    5
 70
    1
 43
0
 10
74.80935216762244
 20
365.1198167664769
 10
76.80935216762244
 20
365.1198167664769
 10
76.80935216762244
 20
367.1198167664769
 10
74.80935216762244
 20
367.1198167664769
 10
74.80935216762244
 20
367.1198167664769
  0
LWPOLYLINE
  5
115
100
AcDbEntity
  8
0
  6
ByLayer
 62
  256
370
   -1
100
AcDbPolyline
 90
    5
 70
    1
 43
0
 10
74.80935216762244
 20
365.1198167664769
 10
73.80935216762244
 20
365.1198167664769
 10
73.80935216762244
 20
364.1198167664769
 10
74.80935216762244
 20
364.1198167664769
 10
74.80935216762244
 20
364.1198167664769
  0
CIRCLE
  5
116
100
AcDbEntity
  8
0
  6
ByLayer
 62
  256
370
   -1
100
AcDbCircle
 10
76.80931100587311
 20
390.9194101547197
 40
1.8
  0
LWPOLYLINE
  5
117
100
AcDbEntity
  8
0
  6
ByLayer
 62
  256
370
   -1
100
AcDbPolyline
 90
    5
 70
    1
 43
0
 10
74.80935216762244
 20
392.919816766477
 10
76.80935216762244
 20
392.919816766477
 10
76.80935216762244
 20
390.919816766477
 10
74.80935216762244
 20
390.919816766477
 10
74.80935216762244
 20
390.919816766477
  0
LWPOLYLINE
  5
118
100
AcDbEntity
  8
0
  6
ByLayer
 62
  256
370
   -1
100
AcDbPolyline
 90
    5
 70
    1
 43
0
 10
74.80935216762244
 20
392.919816766477
 10
73.80935216762244
 20
392.919816766477
 10
73.80935216762244
 20
393.919816766477
 10
74.80935216762244
 20
393.919816766477
 10
74.80935216762244
 20
393.919816766477
  0
LWPOLYLINE
  5
119
100
AcDbEntity
  8
0
  6
ByLayer
 62
  256
370
   -1
100
AcDbPolyline
 90
    5
 70
    1
 43
0
 10
103.4593521676224
 20
276.7193167664769
 10
24.45935216762244
 20
276.7193167664769
 10
24.45935216762244
 20
395.7198167664769
 10
103.4593521676224
 20
395.7198167664769
 10
103.4593521676224
 20
395.7198167664769
  0
LWPOLYLINE
  5
11A
100
AcDbEntity
  8
0
  6
ByLayer
 62
  256
370
   -1
100
AcDbPolyline
 90
    5
 70
    1
 43
0
 10
43.75935216762245
 20
396.619816766477
 10
53.15935216762246
 20
396.619816766477
 10
53.15935216762246
 20
390.8198167664769
 10
43.75935216762245
 20
390.8198167664769
 10
43.75935216762245
 20
390.8198167664769
  0
LWPOLYLINE
  5
11B
100
AcDbEntity
  8
0
  6
ByLayer
 62
  256
370
   -1
100
AcDbPolyline
 90
    5
 70
    1
 43
0
 10
44.13935216762245
 20
389.039816766477
 10
52.77935216762246
 20
389.039816766477
 10
52.77935216762246
 20
390.139816766477
 10
44.13935216762245
 20
390.139816766477
 10
44.13935216762245
 20
390.139816766477
  0
CIRCLE
  5
11C
100
AcDbEntity
  8
0
  6
ByLayer
 62
  256
370
   -1
100
AcDbCircle
 10
100.1093110058731
 20
390.9194101547197
 40
1.8
  0
LWPOLYLINE
  5
11D
100
AcDbEntity
  8
0
  6
ByLayer
 62
  256
370
   -1
100
AcDbPolyline
 90
    5
 70
    1
 43
0
 10
102.1093521676224
 20
392.919816766477
 10
100.1093521676224
 20
392.919816766477
 10
100.1093521676224
 20
390.919816766477
 10
102.1093521676224
 20
390.919816766477
 10
102.1093521676224
 20
390.919816766477
  0
LWPOLYLINE
  5
11E
100
AcDbEntity
  8
0
  6
ByLayer
 62
  256
370
   -1
100
AcDbPolyline
 90
    5
 70
    1
 43
0
 10
102.1093521676224
 20
392.919816766477
 10
103.1093521676224
 20
392.919816766477
 10
103.1093521676224
 20
393.919816766477
 10
102.1093521676224
 20
393.919816766477
 10
102.1093521676224
 20
393.919816766477
  0
CIRCLE
  5
11F
100
AcDbEntity
  8
0
  6
ByLayer
 62
  256
370
   -1
100
AcDbCircle
 10
100.1093110058731
 20
367.1198101547196
 40
1.8
  0
LWPOLYLINE
  5
120
100
AcDbEntity
  8
0
  6
ByLayer
 62
  256
370
   -1
100
AcDbPolyline
 90
    5
 70
    1
 43
0
 10
102.1093521676224
 20
365.1198167664769
 10
100.1093521676224
 20
365.1198167664769
 10
100.1093521676224
 20
367.1198167664769
 10
102.1093521676224
 20
367.1198167664769
 10
102.1093521676224
 20
367.1198167664769
  0
LWPOLYLINE
  5
121
100
AcDbEntity
  8
0
  6
ByLayer
 62
  256
370
   -1
100
AcDbPolyline
 90
    5
 70
    1
 43
0
 10
102.1093521676224
 20
365.1198167664769
 10
103.1093521676224
 20
365.1198167664769
 10
103.1093521676224
 20
364.1198167664769
 10
102.1093521676224
 20
364.1198167664769
 10
102.1093521676224
 20
364.1198167664769
  0
LWPOLYLINE
  5
122
100
AcDbEntity
  8
0
  6
ByLayer
 62
  256
370
   -1
100
AcDbPolyline
 90
    4
 70
    1
 43
0
 10
24.45935216762244
 20
395.7198167664769
 10
23.45935216762244
 20
395.7198167664769
 10
23.45935216762244
 20
396.7198167664769
 10
24.45935216762244
 20
396.7198167664769
  0
LWPOLYLINE
  5
123
100
AcDbEntity
  8
0
  6
ByLayer
 62
  256
370
   -1
100
AcDbPolyline
 90
    4
 70
    1
 43
0
 10
24.45935216762244
 20
276.7193167664769
 10
23.45935216762244
 20
276.7193167664769
 10
23.45935216762244
 20
275.7193167664769
 10
24.45935216762244
 20
275.7193167664769
  0
LWPOLYLINE
  5
124
100
AcDbEntity
  8
0
  6
ByLayer
 62
  256
370
   -1
100
AcDbPolyline
 90
    4
 70
    1
 43
0
 10
103.4593521676224
 20
276.7193167664769
 10
104.4593521676224
 20
276.7193167664769
 10
104.4593521676224
 20
275.7193167664769
 10
103.4593521676224
 20
275.7193167664769
  0
LWPOLYLINE
  5
125
100
AcDbEntity
  8
0
  6
ByLayer
 62
  256
370
   -1
100
AcDbPolyline
 90
    4
 70
    1
 43
0
 10
103.4593521676224
 20
395.7198167664769
 10
104.4593521676224
 20
395.7198167664769
 10
104.4593521676224
 20
396.7198167664769
 10
103.4593521676224
 20
396.7198167664769
  0
LINE
  5
126
100
AcDbEntity
  8
0
  6
ByLayer
 62
  256
370
   -1
100
AcDbLine
 10
25.16885216762245
 20
277.1843167664769
 11
45.21885216762244
 21
277.1843167664769
  0
LINE
  5
127
100
AcDbEntity
  8
0
  6
ByLayer
 62
  256
370
   -1
100
AcDbLine
 10
45.21885216762244
 20
277.1843167664769
 11
45.21885216762242
 21
281.9468167664769
  0
LINE
  5
128
100
AcDbEntity
  8
0
  6
ByLayer
 62
  256
370
   -1
100
AcDbLine
 10
45.21885216762242
 20
281.9468167664769
 11
64.26885216762243
 21
281.9468167664769
  0
LINE
  5
129
100
AcDbEntity
  8
0
  6
ByLayer
 62
  256
370
   -1
100
AcDbLine
 10
64.26885216762243
 20
281.9468167664769
 11
64.26885216762243
 21
286.7093167664769
  0
LINE
  5
12A
100
AcDbEntity
  8
0
  6
ByLayer
 62
  256
370
   -1
100
AcDbLine
 10
64.26885216762243
 20
286.7093167664769
 11
82.31885216762244
 21
286.7093167664769
  0
LINE
  5
12B
100
AcDbEntity
  8
0
  6
ByLayer
 62
  256
370
   -1
100
AcDbLine
 10
82.31885216762244
 20
286.7093167664769
 11
82.31885216762244
 21
281.9468167664769
  0
LINE
  5
12C
100
AcDbEntity
  8
0
  6
ByLayer
 62
  256
370
   -1
100
AcDbLine
 10
82.31885216762244
 20
281.9468167664769
 11
102.3688521676224
 21
281.9468167664769
  0
LINE
  5
12D
100
AcDbEntity
  8
0
  6
ByLayer
 62
  256
370
   -1
100
AcDbLine
 10
16.16885216762246
 20
399.3194101547197
 11
111.3688521676224
 21
399.3194101547197
  0
LINE
  5
12E
100
AcDbEntity
  8
0
  6
ByLayer
 62
  256
370
   -1
100
AcDbLine
 10
16.16885216762245
 20
268.1835239618391
 11
16.16885216762246
 21
399.3194101547197
  0
LINE
  5
12F
100
AcDbEntity
  8
0
  6
ByLayer
 62
  256
370
   -1
100
AcDbLine
 10
111.3688521676224
 20
268.1790039144479
 11
111.3688521676224
 21
399.3194101547197
  0
LINE
  5
130
100
AcDbEntity
  8
0
  6
ByLayer
 62
  256
370
   -1
100
AcDbLine
 10
16.16885216762245
 20
268.1835239618391
 11
111.3688521676224
 21
268.1790039144479
  0
LINE
  5
131
100
AcDbEntity
  8
0
  6
ByLayer
 62
  256
370
   -1
100
AcDbLine
 10
25.16885216762243
 20
354.3843167664768
 11
44.21885216762244
 21
354.3843167664769
  0
LINE
  5
132
100
AcDbEntity
  8
0
  6
ByLayer
 62
  256
370
   -1
100
AcDbLine
 10
44.21885216762244
 20
354.3843167664769
 11
44.21885216762242
 21
359.1468167664769
  0
LINE
  5
133
100
AcDbEntity
  8
0
  6
ByLayer
 62
  256
370
   -1
100
AcDbLine
 10
44.21885216762242
 20
359.1468167664769
 11
63.26885216762243
 21
359.1468167664769
  0
LINE
  5
134
100
AcDbEntity
  8
0
  6
ByLayer
 62
  256
370
   -1
100
AcDbLine
 10
63.26885216762243
 20
359.1468167664769
 11
63.26885216762243
 21
363.9093167664769
  0
LINE
  5
135
100
AcDbEntity
  8
0
  6
ByLayer
 62
  256
370
   -1
100
AcDbLine
 10
63.26885216762243
 20
363.9093167664769
 11
83.31885216762244
 21
363.9093167664769
  0
LINE
  5
136
100
AcDbEntity
  8
0
  6
ByLayer
 62
  256
370
   -1
100
AcDbLine
 10
83.31885216762244
 20
363.9093167664769
 11
83.31885216762244
 21
359.1468167664769
  0
LINE
  5
137
100
AcDbEntity
  8
0
  6
ByLayer
 62
  256
370
   -1
100
AcDbLine
 10
83.31885216762244
 20
359.1468167664769
 11
102.3688521676224
 21
359.1468167664769
  0
LINE
  5
138
100
AcDbEntity
  8
0
  6
ByLayer
 62
  256
370
   -1
100
AcDbLine
 10
25.16885216762243
 20
354.3843167664768
 11
25.16885216762245
 21
277.1843167664769
  0
LINE
  5
139
100
AcDbEntity
  8
0
  6
ByLayer
 62
  256
370
   -1
100
AcDbLine
 10
102.3688521676224
 20
359.1468167664769
 11
102.3688521676224
 21
281.9468167664769
  0
ARC
  5
13A
100
AcDbEntity
  8
0
  6
ByLayer
 62
  256
370
   -1
100
AcDbCircle
 10
118.9267292831934
 20
188.1464237051082
 40
6
100
AcDbArc
 50
135
 51
180
  0
LINE
  5
13B
100
AcDbEntity
  8
0
  6
ByLayer
 62
  256
370
   -1
100
AcDbLine
 10
119.7551564079396
 20
197.460132204093
 11
114.6840885960741
 21
192.3890643922275
  0
ARC
  5
13C
100
AcDbEntity
  8
0
  6
ByLayer
 62
  256
370
   -1
100
AcDbCircle
 10
123.9977970950589
 20
193.2174915169737
 40
6
100
AcDbArc
 50
90
 51
135.0000000000002
  0
LINE
  5
13D
100
AcDbEntity
  8
0
  6
ByLayer
 62
  256
370
   -1
100
AcDbLine
 10
123.9977970950589
 20
199.2174915169736
 11
199.0556614713279
 21
199.2174915169736
  0
ARC
  5
13E
100
AcDbEntity
  8
0
  6
ByLayer
 62
  256
370
   -1
100
AcDbCircle
 10
199.0556614713279
 20
193.2174915169736
 40
6
100
AcDbArc
 50
45
 51
90
  0
LINE
  5
13F
100
AcDbEntity
  8
0
  6
ByLayer
 62
  256
370
   -1
100
AcDbLine
 10
203.2983021584472
 20
197.4601322040929
 11
208.3693699703126
 21
192.3890643922275
  0
ARC
  5
140
100
AcDbEntity
  8
0
  6
ByLayer
 62
  256
370
   -1
100
AcDbCircle
 10
204.1267292831934
 20
188.1464237051082
 40
6
100
AcDbArc
 50
0
 51
45
  0
LINE
  5
141
100
AcDbEntity
  8
0
  6
ByLayer
 62
  256
370
   -1
100
AcDbLine
 10
210.1267292831934
 20
77.14822262101154
 11
210.1267292831934
 21
188.1464237051082
  0
ARC
  5
142
100
AcDbEntity
  8
0
  6
ByLayer
 62
  256
370
   -1
100
AcDbCircle
 10
204.1267292831934
 20
77.14822262101154
 40
6
100
AcDbArc
 50
314.9986398128227
 51
0
  0
LINE
  5
143
100
AcDbEntity
  8
0
  6
ByLayer
 62
  256
370
   -1
100
AcDbLine
 10
203.2983693143992
 20
67.83482203839394
 11
208.3692692499104
 21
72.90548121588108
  0
ARC
  5
144
100
AcDbEntity
  8
0
  6
ByLayer
 62
  256
370
   -1
100
AcDbCircle
 10
199.0558293476821
 20
72.07756344352438
 40
6
100
AcDbArc
 50
269.9972796256461
 51
314.9986398128228
  0
LINE
  5
145
100
AcDbEntity
  8
0
  6
ByLayer
 62
  256
370
   -1
100
AcDbLine
 10
123.9976800724575
 20
66.08112715936461
 11
199.055544470746
 21
66.0775634502873
  0
ARC
  5
146
100
AcDbEntity
  8
0
  6
ByLayer
 62
  256
370
   -1
100
AcDbCircle
 10
123.9979649493936
 20
72.0811271526017
 40
6
100
AcDbArc
 50
224.9986398128231
 51
269.9972796256456
  0
LINE
  5
147
100
AcDbEntity
  8
0
  6
ByLayer
 62
  256
370
   -1
100
AcDbLine
 10
114.6839878780629
 20
72.91006363748097
 11
119.7552235442632
 21
67.83858718588459
  0
LINE
  5
148
100
AcDbEntity
  8
0
  6
ByLayer
 62
  256
370
   -1
100
AcDbLine
 10
112.9267292831934
 20
77.15260360419808
 11
112.9267292831934
 21
188.1464237051082
  0
ARC
  5
149
100
AcDbEntity
  8
0
  6
ByLayer
 62
  256
370
   -1
100
AcDbCircle
 10
118.9267292831934
 20
77.15260360419808
 40
6
100
AcDbArc
 50
180
 51
224.9986398128231
  0
ARC
  5
14A
100
AcDbEntity
  8
0
  6
ByLayer
 62
  256
370
   -1
100
AcDbCircle
 10
173.5672292831935
 20
190.8178981287309
 40
2
100
AcDbArc
 50
90
 51
180
  0
LINE
  5
14B
100
AcDbEntity
  8
0
  6
ByLayer
 62
  256
370
   -1
100
AcDbLine
 10
173.5672292831935
 20
192.8178981287309
 11
198.8672292831935
 21
192.8178981287309
  0
ARC
  5
14C
100
AcDbEntity
  8
0
  6
ByLayer
 62
  256
370
   -1
100
AcDbCircle
 10
198.8672292831935
 20
190.8178981287309
 40
2
100
AcDbArc
 50
0
 51
90
  0
LWPOLYLINE
  5
14D
100
AcDbEntity
  8
0
  6
ByLayer
 62
  256
370
   -1
100
AcDbPolyline
 90
    9
 70
    1
 43
0
 10
653.7912159322573
 20
186.9518981287308
 10
675.5352159322573
 20
186.9518981287308
 42
-0.414213562373095
 10
677.0352159322573
 20
185.4518981287308
 10
677.0352159322573
 20
174.5878981287308
 42
-0.414213562373095
 10
675.5352159322573
 20
173.0878981287308
 10
653.7912159322573
 20
173.0878981287308
 42
-0.414213562373095
 10
652.2912159322573
 20
174.5878981287308
 10
652.2912159322573
 20
174.5878981287308
 10
652.2912159322573
 20
185.4518981287308
 42
-0.414213562373095
  0
LWPOLYLINE
  5
14E
100
AcDbEntity
  8
0
  6
ByLayer
 62
  256
370
   -1
100
AcDbPolyline
 90
    9
 70
    1
 43
0
 10
695.6449719528326
 20
186.9518981287308
 10
717.3889719528327
 20
186.9518981287308
 42
-0.414213562373095
 10
718.8889719528327
 20
185.4518981287308
 10
718.8889719528327
 20
174.5878981287308
 42
-0.414213562373095
 10
717.3889719528327
 20
173.0878981287308
 10
695.6449719528326
 20
173.0878981287308
 42
-0.414213562373095
 10
694.1449719528326
 20
174.5878981287308
 10
694.1449719528326
 20
174.5878981287308
 10
694.1449719528326
 20
185.4518981287308
 42
-0.414213562373095
  0
CIRCLE
  5
14F
100
AcDbEntity
  8
0
  6
ByLayer
 62
  256
370
   -1
100
AcDbCircle
 10
319.2512881214441
 20
178.2174915169736
 40
11
  0
ARC
  5
150
100
AcDbEntity
  8
0
  6
ByLayer
 62
  256
370
   -1
100
AcDbCircle
 10
334.1513292831935
 20
190.8178981287309
 40
2
100
AcDbArc
 50
90
 51
180
  0
LINE
  5
151
100
AcDbEntity
  8
0
  6
ByLayer
 62
  256
370
   -1
100
AcDbLine
 10
334.1513292831935
 20
192.8178981287309
 11
359.4513292831934
 21
192.8178981287309
  0
ARC
  5
152
100
AcDbEntity
  8
0
  6
ByLayer
 62
  256
370
   -1
100
AcDbCircle
 10
359.4513292831934
 20
190.8178981287309
 40
2
100
AcDbArc
 50
0
 51
90
  0
CIRCLE
  5
153
100
AcDbEntity
  8
0
  6
ByLayer
 62
  256
370
   -1
100
AcDbCircle
 10
463.3973516811471
 20
178.2174915169736
 40
11
  0
ARC
  5
154
100
AcDbEntity
  8
0
  6
ByLayer
 62
  256
370
   -1
100
AcDbCircle
 10
478.2973928428964
 20
190.8178981287309
 40
2
100
AcDbArc
 50
90
 51
180
  0
LINE
  5
155
100
AcDbEntity
  8
0
  6
ByLayer
 62
  256
370
   -1
100
AcDbLine
 10
478.2973928428964
 20
192.8178981287309
 11
503.5973928428964
 21
192.8178981287309
  0
ARC
  5
156
100
AcDbEntity
  8
0
  6
ByLayer
 62
  256
370
   -1
100
AcDbCircle
 10
503.5973928428964
 20
190.8178981287309
 40
2
100
AcDbArc
 50
0
 51
90
  0
LINE
  5
157
100
AcDbEntity
  8
0
  6
ByLayer
 62
  256
370
   -1
100
AcDbLine
 10
332.1513292831935
 20
165.5178981287308
 11
332.1513292831935
 21
190.8178981287309
  0
ARC
  5
158
100
AcDbEntity
  8
0
  6
ByLayer
 62
  256
370
   -1
100
AcDbCircle
 10
334.1513292831935
 20
165.5178981287308
 40
2
100
AcDbArc
 50
180
 51
270
  0
LINE
  5
159
100
AcDbEntity
  8
0
  6
ByLayer
 62
  256
370
   -1
100
AcDbLine
 10
359.4513292831934
 20
163.5178981287308
 11
334.1513292831935
 21
163.5178981287308
  0
LINE
  5
15A
100
AcDbEntity
  8
0
  6
ByLayer
 62
  256
370
   -1
100
AcDbLine
 10
361.4513292831934
 20
190.8178981287309
 11
361.4513292831934
 21
165.5178981287308
  0
ARC
  5
15B
100
AcDbEntity
  8
0
  6
ByLayer
 62
  256
370
   -1
100
AcDbCircle
 10
359.4513292831934
 20
165.5178981287308
 40
2
100
AcDbArc
 50
270
 51
0
  0
ARC
  5
15C
100
AcDbEntity
  8
0
  6
ByLayer
 62
  256
370
   -1
100
AcDbCircle
 10
173.5672292831934
 20
165.5178981287308
 40
2
100
AcDbArc
 50
180
 51
270
  0
LINE
  5
15D
100
AcDbEntity
  8
0
  6
ByLayer
 62
  256
370
   -1
100
AcDbLine
 10
198.8672292831934
 20
163.5178981287308
 11
173.5672292831934
 21
163.5178981287308
  0
ARC
  5
15E
100
AcDbEntity
  8
0
  6
ByLayer
 62
  256
370
   -1
100
AcDbCircle
 10
198.8672292831934
 20
165.5178981287308
 40
2
100
AcDbArc
 50
270
 51
0
  0
ARC
  5
15F
100
AcDbEntity
  8
0
  6
ByLayer
 62
  256
370
   -1
100
AcDbCircle
 10
478.2973928428964
 20
165.5178981287308
 40
2
100
AcDbArc
 50
180
 51
270
  0
LINE
  5
160
100
AcDbEntity
  8
0
  6
ByLayer
 62
  256
370
   -1
100
AcDbLine
 10
503.5973928428964
 20
163.5178981287308
 11
478.2973928428964
 21
163.5178981287308
  0
ARC
  5
161
100
AcDbEntity
  8
0
  6
ByLayer
 62
  256
370
   -1
100
AcDbCircle
 10
503.5973928428964
 20
165.5178981287308
 40
2
100
AcDbArc
 50
270
 51
0
  0
LINE
  5
162
100
AcDbEntity
  8
0
  6
ByLayer
 62
  256
370
   -1
100
AcDbLine
 10
476.2973928428964
 20
165.5178981287308
 11
476.2973928428964
 21
190.8178981287309
  0
LINE
  5
163
100
AcDbEntity
  8
0
  6
ByLayer
 62
  256
370
   -1
100
AcDbLine
 10
505.5973928428964
 20
190.8178981287309
 11
505.5973928428964
 21
165.5178981287308
  0
LINE
  5
164
100
AcDbEntity
  8
0
  6
ByLayer
 62
  256
370
   -1
100
AcDbLine
 10
200.8672292831935
 20
190.8178981287309
 11
200.8672292831934
 21
165.5178981287308
  0
LINE
  5
165
100
AcDbEntity
  8
0
  6
ByLayer
 62
  256
370
   -1
100
AcDbLine
 10
171.5672292831935
 20
165.517901702974
 11
171.5672292831935
 21
190.8178981287309
  0
ENDBLK
  5
52
330
50
100
AcDbEntity
  8
0
100
AcDbBlockEnd
  0
BLOCK
  5
54
330
53
100
AcDbEntity
  8
0
100
AcDbBlockBegin
  2
pcb-brd-0
 70
    0
 10
0
 20
0
  3
pcb-brd-0
  1

  0
ENDBLK
  5
55
330
53
100
AcDbEntity
  8
0
100
AcDbBlockEnd
  0
BLOCK
  5
57
330
56
100
AcDbEntity
  8
0
100
AcDbBlockBegin
  2
pcb-brd-1
 70
    0
 10
0
 20
0
  3
pcb-brd-1
  1

  0
ENDBLK
  5
58
330
56
100
AcDbEntity
  8
0
100
AcDbBlockEnd
  0
ENDSEC
  0
SECTION
  2
ENTITIES
  0
ARC
  5
166
100
AcDbEntity
  8
0
  6
ByLayer
 62
  256
370
   -1
100
AcDbCircle
 10
167.9186683167085
 20
329.7612722134869
 40
1
100
AcDbArc
 50
90
 51
180
  0
ARC
  5
167
100
AcDbEntity
  8
0
  6
ByLayer
 62
  256
370
   -1
100
AcDbCircle
 10
245.9186683167085
 20
329.7612722134869
 40
1
100
AcDbArc
 50
0
 51
90
  0
LINE
  5
168
100
AcDbEntity
  8
0
  6
ByLayer
 62
  256
370
   -1
100
AcDbLine
 10
166.9186683167085
 20
212.2607722134869
 11
166.9186683167085
 21
329.7612722134869
  0
ARC
  5
169
100
AcDbEntity
  8
0
  6
ByLayer
 62
  256
370
   -1
100
AcDbCircle
 10
167.9186683167085
 20
212.2607722134869
 40
1
100
AcDbArc
 50
180
 51
270
  0
LINE
  5
16A
100
AcDbEntity
  8
0
  6
ByLayer
 62
  256
370
   -1
100
AcDbLine
 10
245.9186683167085
 20
211.2607722134869
 11
167.9186683167085
 21
211.2607722134869
  0
LINE
  5
16B
100
AcDbEntity
  8
0
  6
ByLayer
 62
  256
370
   -1
100
AcDbLine
 10
246.9186683167085
 20
329.7612722134869
 11
246.9186683167085
 21
212.2607722134869
  0
ARC
  5
16C
100
AcDbEntity
  8
0
  6
ByLayer
 62
  256
370
   -1
100
AcDbCircle
 10
245.9186683167085
 20
212.2607722134869
 40
1
100
AcDbArc
 50
270
 51
0
  0
ARC
  5
16D
100
AcDbEntity
  8
0
  6
ByLayer
 62
  256
370
   -1
100
AcDbCircle
 10
164.3181683167085
 20
333.7609675686382
 40
6
100
AcDbArc
 50
90
 51
180
  0
ARC
  5
16E
100
AcDbEntity
  8
0
  6
ByLayer
 62
  256
370
   -1
100
AcDbCircle
 10
249.5181683167083
 20
333.7609038449983
 40
6
100
AcDbArc
 50
2.798888119687895e-13
 51
90
  0
LINE
  5
16F
100
AcDbEntity
  8
0
  6
ByLayer
 62
  256
370
   -1
100
AcDbLine
 10
255.5181683167083
 20
208.7206967645407
 11
255.5181683167083
 21
333.7609038449983
  0
ARC
  5
170
100
AcDbEntity
  8
0
  6
ByLayer
 62
  256
370
   -1
100
AcDbCircle
 10
249.5181683167083
 20
208.7206967645407
 40
6
100
AcDbArc
 50
269.9972796256458
 51
0
  0
LINE
  5
171
100
AcDbEntity
  8
0
  6
ByLayer
 62
  256
370
   -1
100
AcDbLine
 10
164.3178834397724
 20
202.7247420238007
 11
249.5178834397722
 21
202.7206967713037
  0
LINE
  5
172
100
AcDbEntity
  8
0
  6
ByLayer
 62
  256
370
   -1
100
AcDbLine
 10
158.3181683167085
 20
208.7247420170378
 11
158.3181683167085
 21
333.7609675686382
  0
ARC
  5
173
100
AcDbEntity
  8
0
  6
ByLayer
 62
  256
370
   -1
100
AcDbCircle
 10
164.3181683167085
 20
208.7247420170378
 40
6
100
AcDbArc
 50
180
 51
269.9972796256458
  0
CIRCLE
  5
174
100
AcDbEntity
  8
0
  6
ByLayer
 62
  256
370
   -1
100
AcDbCircle
 10
163.3181683167086
 20
207.7247420170379
 40
1.6
  0
CIRCLE
  5
175
100
AcDbEntity
  8
0
  6
ByLayer
 62
  256
370
   -1
100
AcDbCircle
 10
163.3181686225997
 20
334.7608656017297
 40
1.6
  0
CIRCLE
  5
176
100
AcDbEntity
  8
0
  6
ByLayer
 62
  256
370
   -1
100
AcDbCircle
 10
163.3181684696542
 20
271.2428038093838
 40
1.6
  0
CIRCLE
  5
177
100
AcDbEntity
  8
0
  6
ByLayer
 62
  256
370
   -1
100
AcDbCircle
 10
250.5181680108175
 20
207.7247420170379
 40
1.6
  0
CIRCLE
  5
178
100
AcDbEntity
  8
0
  6
ByLayer
 62
  256
370
   -1
100
AcDbCircle
 10
250.5181683167086
 20
334.7608656017297
 40
1.6
  0
CIRCLE
  5
179
100
AcDbEntity
  8
0
  6
ByLayer
 62
  256
370
   -1
100
AcDbCircle
 10
250.5181681637631
 20
271.2428038093838
 40
1.6
  0
ARC
  5
17A
100
AcDbEntity
  8
0
  6
ByLayer
 62
  256
370
   -1
100
AcDbCircle
 10
183.1086683167086
 20
338.7609675686382
 40
1
100
AcDbArc
 50
0
 51
90
  0
LINE
  5
17B
100
AcDbEntity
  8
0
  6
ByLayer
 62
  256
370
   -1
100
AcDbLine
 10
184.1086683167086
 20
338.7609675686382
 11
184.1086683167086
 21
331.7612722134869
  0
ARC
  5
17C
100
AcDbEntity
  8
0
  6
ByLayer
 62
  256
370
   -1
100
AcDbCircle
 10
183.1086683167086
 20
331.7612722134869
 40
1
100
AcDbArc
 50
270
 51
0
  0
ARC
  5
17D
100
AcDbEntity
  8
0
  6
ByLayer
 62
  256
370
   -1
100
AcDbCircle
 10
200.108668344988
 20
338.7609038449982
 40
1
100
AcDbArc
 50
90
 51
180
  0
LINE
  5
17E
100
AcDbEntity
  8
0
  6
ByLayer
 62
  256
370
   -1
100
AcDbLine
 10
199.108668344988
 20
338.7609038449982
 11
199.108668344988
 21
331.7612722134869
  0
ARC
  5
17F
100
AcDbEntity
  8
0
  6
ByLayer
 62
  256
370
   -1
100
AcDbCircle
 10
200.108668344988
 20
331.7612722134869
 40
1
100
AcDbArc
 50
180
 51
270
  0
LINE
  5
180
100
AcDbEntity
  8
0
  6
ByLayer
 62
  256
370
   -1
100
AcDbLine
 10
164.3181683167086
 20
339.7609675686382
 11
183.1086683167086
 21
339.7609675686382
  0
LINE
  5
181
100
AcDbEntity
  8
0
  6
ByLayer
 62
  256
370
   -1
100
AcDbLine
 10
183.1086683167086
 20
330.7612722134869
 11
167.9186683167086
 21
330.7612722134869
  0
LINE
  5
182
100
AcDbEntity
  8
0
  6
ByLayer
 62
  256
370
   -1
100
AcDbLine
 10
200.108668344988
 20
330.7612722134869
 11
245.9186683167086
 21
330.7612722134869
  0
LINE
  5
183
100
AcDbEntity
  8
0
  6
ByLayer
 62
  256
370
   -1
100
AcDbLine
 10
200.108668344988
 20
339.7609038449982
 11
249.5181683167086
 21
339.7609038449982
  0
ARC
  5
184
100
AcDbEntity
  8
0
  6
ByLayer
 62
  256
370
   -1
100
AcDbCircle
 10
305.4720092201949
 20
330.4595427643153
 40
1
100
AcDbArc
 50
90
 51
180
  0
ARC
  5
185
100
AcDbEntity
  8
0
  6
ByLayer
 62
  256
370
   -1
100
AcDbCircle
 10
383.4720092201949
 20
330.4595427643153
 40
1
100
AcDbArc
 50
0
 51
90
  0
LINE
  5
186
100
AcDbEntity
  8
0
  6
ByLayer
 62
  256
370
   -1
100
AcDbLine
 10
304.4720092201949
 20
212.9590427643153
 11
304.4720092201949
 21
330.4595427643153
  0
ARC
  5
187
100
AcDbEntity
  8
0
  6
ByLayer
 62
  256
370
   -1
100
AcDbCircle
 10
305.4720092201949
 20
212.9590427643153
 40
1
100
AcDbArc
 50
180
 51
270
  0
LINE
  5
188
100
AcDbEntity
  8
0
  6
ByLayer
 62
  256
370
   -1
100
AcDbLine
 10
383.4720092201949
 20
211.9590427643153
 11
305.4720092201949
 21
211.9590427643153
  0
LINE
  5
189
100
AcDbEntity
  8
0
  6
ByLayer
 62
  256
370
   -1
100
AcDbLine
 10
384.4720092201949
 20
330.4595427643153
 11
384.4720092201949
 21
212.9590427643153
  0
ARC
  5
18A
100
AcDbEntity
  8
0
  6
ByLayer
 62
  256
370
   -1
100
AcDbCircle
 10
383.4720092201949
 20
212.9590427643153
 40
1
100
AcDbArc
 50
270
 51
0
  0
ARC
  5
18B
100
AcDbEntity
  8
0
  6
ByLayer
 62
  256
370
   -1
100
AcDbCircle
 10
301.8715092201948
 20
334.4592381194666
 40
6
100
AcDbArc
 50
90
 51
180
  0
LINE
  5
18C
100
AcDbEntity
  8
0
  6
ByLayer
 62
  256
370
   -1
100
AcDbLine
 10
295.8715092201948
 20
209.4230125678662
 11
295.8715092201948
 21
334.4592381194666
  0
ARC
  5
18D
100
AcDbEntity
  8
0
  6
ByLayer
 62
  256
370
   -1
100
AcDbCircle
 10
301.8715092201948
 20
209.4230125678662
 40
6
100
AcDbArc
 50
180
 51
269.9972796256458
  0
LINE
  5
18E
100
AcDbEntity
  8
0
  6
ByLayer
 62
  256
370
   -1
100
AcDbLine
 10
301.8712243432587
 20
203.4230125746292
 11
387.0712243432587
 21
203.4189673221321
  0
ARC
  5
18F
100
AcDbEntity
  8
0
  6
ByLayer
 62
  256
370
   -1
100
AcDbCircle
 10
387.0715092201949
 20
209.4189673153691
 40
6
100
AcDbArc
 50
269.9972796256458
 51
0
  0
LINE
  5
190
100
AcDbEntity
  8
0
  6
ByLayer
 62
  256
370
   -1
100
AcDbLine
 10
393.0715092201949
 20
209.4189673153691
 11
393.0715092201949
 21
334.4591743958266
  0
ARC
  5
191
100
AcDbEntity
  8
0
  6
ByLayer
 62
  256
370
   -1
100
AcDbCircle
 10
387.0715092201949
 20
334.4591743958266
 40
6
100
AcDbArc
 50
2.798888119687895e-13
 51
90
  0
CIRCLE
  5
192
100
AcDbEntity
  8
0
  6
ByLayer
 62
  256
370
   -1
100
AcDbCircle
 10
300.8715092201949
 20
208.4230125678663
 40
1.6
  0
CIRCLE
  5
193
100
AcDbEntity
  8
0
  6
ByLayer
 62
  256
370
   -1
100
AcDbCircle
 10
300.871509526086
 20
335.4591361525581
 40
1.6
  0
CIRCLE
  5
194
100
AcDbEntity
  8
0
  6
ByLayer
 62
  256
370
   -1
100
AcDbCircle
 10
300.8715093731404
 20
271.9410743602123
 40
1.6
  0
CIRCLE
  5
195
100
AcDbEntity
  8
0
  6
ByLayer
 62
  256
370
   -1
100
AcDbCircle
 10
388.0715089143038
 20
208.4230125678663
 40
1.6
  0
CIRCLE
  5
196
100
AcDbEntity
  8
0
  6
ByLayer
 62
  256
370
   -1
100
AcDbCircle
 10
388.0715092201949
 20
335.4591361525581
 40
1.6
  0
CIRCLE
  5
197
100
AcDbEntity
  8
0
  6
ByLayer
 62
  256
370
   -1
100
AcDbCircle
 10
388.0715090672493
 20
271.9410743602123
 40
1.6
  0
ARC
  5
198
100
AcDbEntity
  8
0
  6
ByLayer
 62
  256
370
   -1
100
AcDbCircle
 10
320.6620092201948
 20
339.4592381194666
 40
1
100
AcDbArc
 50
0
 51
90
  0
LINE
  5
199
100
AcDbEntity
  8
0
  6
ByLayer
 62
  256
370
   -1
100
AcDbLine
 10
321.6620092201948
 20
339.4592381194666
 11
321.6620092201948
 21
332.4595427643153
  0
ARC
  5
19A
100
AcDbEntity
  8
0
  6
ByLayer
 62
  256
370
   -1
100
AcDbCircle
 10
320.6620092201948
 20
332.4595427643153
 40
1
100
AcDbArc
 50
270
 51
0
  0
ARC
  5
19B
100
AcDbEntity
  8
0
  6
ByLayer
 62
  256
370
   -1
100
AcDbCircle
 10
337.6620092484742
 20
339.4591743958266
 40
1
100
AcDbArc
 50
90
 51
180
  0
LINE
  5
19C
100
AcDbEntity
  8
0
  6
ByLayer
 62
  256
370
   -1
100
AcDbLine
 10
336.6620092484742
 20
339.4591743958266
 11
336.6620092484742
 21
332.4595427643153
  0
ARC
  5
19D
100
AcDbEntity
  8
0
  6
ByLayer
 62
  256
370
   -1
100
AcDbCircle
 10
337.6620092484742
 20
332.4595427643153
 40
1
100
AcDbArc
 50
180
 51
270
  0
LINE
  5
19E
100
AcDbEntity
  8
0
  6
ByLayer
 62
  256
370
   -1
100
AcDbLine
 10
301.8715092201948
 20
340.4592381194666
 11
320.6620092201948
 21
340.4592381194666
  0
LINE
  5
19F
100
AcDbEntity
  8
0
  6
ByLayer
 62
  256
370
   -1
100
AcDbLine
 10
320.6620092201948
 20
331.4595427643153
 11
305.4720092201949
 21
331.4595427643153
  0
LINE
  5
1A0
100
AcDbEntity
  8
0
  6
ByLayer
 62
  256
370
   -1
100
AcDbLine
 10
337.6620092484742
 20
331.4595427643153
 11
383.4720092201949
 21
331.4595427643153
  0
LINE
  5
1A1
100
AcDbEntity
  8
0
  6
ByLayer
 62
  256
370
   -1
100
AcDbLine
 10
337.6620092484742
 20
340.4591743958266
 11
387.0715092201949
 21
340.4591743958266
  0
ARC
  5
1A2
100
AcDbEntity
  8
0
  6
ByLayer
 62
  256
370
   -1
100
AcDbCircle
 10
436.339474362544
 20
330.4595427643153
 40
1
100
AcDbArc
 50
90
 51
180
  0
ARC
  5
1A3
100
AcDbEntity
  8
0
  6
ByLayer
 62
  256
370
   -1
100
AcDbCircle
 10
514.3394743625439
 20
330.4595427643153
 40
1
100
AcDbArc
 50
0
 51
90
  0
LINE
  5
1A4
100
AcDbEntity
  8
0
  6
ByLayer
 62
  256
370
   -1
100
AcDbLine
 10
435.339474362544
 20
212.9590427643153
 11
435.339474362544
 21
330.4595427643153
  0
ARC
  5
1A5
100
AcDbEntity
  8
0
  6
ByLayer
 62
  256
370
   -1
100
AcDbCircle
 10
436.339474362544
 20
212.9590427643153
 40
1
100
AcDbArc
 50
180
 51
270
  0
LINE
  5
1A6
100
AcDbEntity
  8
0
  6
ByLayer
 62
  256
370
   -1
100
AcDbLine
 10
514.3394743625439
 20
211.9590427643153
 11
436.339474362544
 21
211.9590427643153
  0
LINE
  5
1A7
100
AcDbEntity
  8
0
  6
ByLayer
 62
  256
370
   -1
100
AcDbLine
 10
515.3394743625439
 20
330.4595427643153
 11
515.3394743625439
 21
212.9590427643153
  0
ARC
  5
1A8
100
AcDbEntity
  8
0
  6
ByLayer
 62
  256
370
   -1
100
AcDbCircle
 10
514.3394743625439
 20
212.9590427643153
 40
1
100
AcDbArc
 50
270
 51
0
  0
ARC
  5
1A9
100
AcDbEntity
  8
0
  6
ByLayer
 62
  256
370
   -1
100
AcDbCircle
 10
432.7389743625437
 20
209.4230125678662
 40
6
100
AcDbArc
 50
180
 51
269.9972796256458
  0
LINE
  5
1AA
100
AcDbEntity
  8
0
  6
ByLayer
 62
  256
370
   -1
100
AcDbLine
 10
432.7386894856076
 20
203.4230125746291
 11
517.9386894856076
 21
203.4189673221321
  0
ARC
  5
1AB
100
AcDbEntity
  8
0
  6
ByLayer
 62
  256
370
   -1
100
AcDbCircle
 10
517.9389743625437
 20
209.4189673153692
 40
6
100
AcDbArc
 50
269.9972796256461
 51
0
  0
LINE
  5
1AC
100
AcDbEntity
  8
0
  6
ByLayer
 62
  256
370
   -1
100
AcDbLine
 10
523.9389743625437
 20
209.4189673153692
 11
523.9389743625437
 21
334.4591361515352
  0
ARC
  5
1AD
100
AcDbEntity
  8
0
  6
ByLayer
 62
  256
370
   -1
100
AcDbCircle
 10
517.9389743625437
 20
334.4591361515351
 40
6
100
AcDbArc
 50
2.798888119687895e-13
 51
89.99894197809662
  0
LINE
  5
1AE
100
AcDbEntity
  8
0
  6
ByLayer
 62
  256
370
   -1
100
AcDbLine
 10
426.7389743625437
 20
209.4230125678662
 11
426.7389743625437
 21
334.4591361452435
  0
ARC
  5
1AF
100
AcDbEntity
  8
0
  6
ByLayer
 62
  256
370
   -1
100
AcDbCircle
 10
432.7389743625437
 20
334.4591361452435
 40
6
100
AcDbArc
 50
90.00282919123347
 51
179.9999999999997
  0
CIRCLE
  5
1B0
100
AcDbEntity
  8
0
  6
ByLayer
 62
  256
370
   -1
100
AcDbCircle
 10
431.738974362544
 20
208.4230125678662
 40
1.6
  0
CIRCLE
  5
1B1
100
AcDbEntity
  8
0
  6
ByLayer
 62
  256
370
   -1
100
AcDbCircle
 10
431.738974668435
 20
335.4591361525581
 40
1.6
  0
CIRCLE
  5
1B2
100
AcDbEntity
  8
0
  6
ByLayer
 62
  256
370
   -1
100
AcDbCircle
 10
431.7389745154895
 20
271.9410743602122
 40
1.6
  0
CIRCLE
  5
1B3
100
AcDbEntity
  8
0
  6
ByLayer
 62
  256
370
   -1
100
AcDbCircle
 10
518.9389740566529
 20
208.4230125678662
 40
1.6
  0
CIRCLE
  5
1B4
100
AcDbEntity
  8
0
  6
ByLayer
 62
  256
370
   -1
100
AcDbCircle
 10
518.9389743625439
 20
335.4591361525581
 40
1.6
  0
CIRCLE
  5
1B5
100
AcDbEntity
  8
0
  6
ByLayer
 62
  256
370
   -1
100
AcDbCircle
 10
518.9389742095985
 20
271.9410743602122
 40
1.6
  0
LINE
  5
1B6
100
AcDbEntity
  8
0
  6
ByLayer
 62
  256
370
   -1
100
AcDbLine
 10
436.339474362544
 20
331.4595427643153
 11
514.3394743625439
 21
331.4595427643153
  0
LINE
  5
1B7
100
AcDbEntity
  8
0
  6
ByLayer
 62
  256
370
   -1
100
AcDbLine
 10
432.7386780903308
 20
340.4591361379287
 11
517.9390851583383
 21
340.4591361505121
  0
CIRCLE
  5
1B8
100
AcDbEntity
  8
0
  6
ByLayer
 62
  256
370
   -1
100
AcDbCircle
 10
316.8630435534372
 20
138.4024383561789
 40
11
  0
ARC
  5
1B9
100
AcDbEntity
  8
0
  6
ByLayer
 62
  256
370
   -1
100
AcDbCircle
 10
325.6726947805356
 20
117.7298449679361
 40
0.5
100
AcDbArc
 50
90
 51
180
  0
ARC
  5
1BA
100
AcDbEntity
  8
0
  6
ByLayer
 62
  256
370
   -1
100
AcDbCircle
 10
326.6726947805356
 20
40.52984496793606
 40
0.5
100
AcDbArc
 50
90
 51
180
  0
CIRCLE
  5
1BB
100
AcDbEntity
  8
0
  6
ByLayer
 62
  256
370
   -1
100
AcDbCircle
 10
341.8630435534372
 20
138.4024383561789
 40
11
  0
ARC
  5
1BC
100
AcDbEntity
  8
0
  6
ByLayer
 62
  256
370
   -1
100
AcDbCircle
 10
306.6226947805355
 20
115.347344967936
 40
0.5
100
AcDbArc
 50
90
 51
180
  0
LINE
  5
1BD
100
AcDbEntity
  8
0
  6
ByLayer
 62
  256
370
   -1
100
AcDbLine
 10
306.6226947805355
 20
115.847344967936
 11
324.6726947805356
 21
115.8473449679361
  0
ARC
  5
1BE
100
AcDbEntity
  8
0
  6
ByLayer
 62
  256
370
   -1
100
AcDbCircle
 10
324.6726947805356
 20
116.3473449679361
 40
0.5
100
AcDbArc
 50
270
 51
0
  0
ARC
  5
1BF
100
AcDbEntity
  8
0
  6
ByLayer
 62
  256
370
   -1
100
AcDbCircle
 10
325.6726947805356
 20
39.14734496793606
 40
0.5
100
AcDbArc
 50
270
 51
0
  0
LINE
  5
1C0
100
AcDbEntity
  8
0
  6
ByLayer
 62
  256
370
   -1
100
AcDbLine
 10
306.1226947805355
 20
115.347344967936
 11
306.1226947805355
 21
39.14734496793606
  0
LINE
  5
1C1
100
AcDbEntity
  8
0
  6
ByLayer
 62
  256
370
   -1
100
AcDbLine
 10
306.6226947805355
 20
38.64734496793606
 11
325.6726947805356
 21
38.64734496793606
  0
ARC
  5
1C2
100
AcDbEntity
  8
0
  6
ByLayer
 62
  256
370
   -1
100
AcDbCircle
 10
306.6226947805355
 20
39.14734496793606
 40
0.5
100
AcDbArc
 50
180
 51
270
  0
LINE
  5
1C3
100
AcDbEntity
  8
0
  6
ByLayer
 62
  256
370
   -1
100
AcDbLine
 10
325.1726947805356
 20
116.3473417420351
 11
325.1726947805356
 21
117.7298449679361
  0
LINE
  5
1C4
100
AcDbEntity
  8
0
  6
ByLayer
 62
  256
370
   -1
100
AcDbLine
 10
326.1726947805356
 20
39.14734496793606
 11
326.1726947805356
 21
40.52984496793606
  0
ARC
  5
1C5
100
AcDbEntity
  8
0
  6
ByLayer
 62
  256
370
   -1
100
AcDbCircle
 10
363.7726947805356
 20
115.3523449679361
 40
0.5
100
AcDbArc
 50
0
 51
90
  0
ARC
  5
1C6
100
AcDbEntity
  8
0
  6
ByLayer
 62
  256
370
   -1
100
AcDbCircle
 10
362.7726947805356
 20
38.15234496793614
 40
0.5
100
AcDbArc
 50
0
 51
90
  0
LINE
  5
1C7
100
AcDbEntity
  8
0
  6
ByLayer
 62
  256
370
   -1
100
AcDbLine
 10
325.6726947805356
 20
118.2298449679361
 11
343.7226947805355
 21
118.2298449679361
  0
ARC
  5
1C8
100
AcDbEntity
  8
0
  6
ByLayer
 62
  256
370
   -1
100
AcDbCircle
 10
343.7226947805355
 20
117.7298449679361
 40
0.5
100
AcDbArc
 50
0
 51
90
  0
LINE
  5
1C9
100
AcDbEntity
  8
0
  6
ByLayer
 62
  256
370
   -1
100
AcDbLine
 10
344.2226947805355
 20
117.7298449679361
 11
344.2226947805355
 21
116.3523449679361
  0
LINE
  5
1CA
100
AcDbEntity
  8
0
  6
ByLayer
 62
  256
370
   -1
100
AcDbLine
 10
344.7226947805355
 20
115.8523449679361
 11
363.7726947805356
 21
115.8523449679361
  0
ARC
  5
1CB
100
AcDbEntity
  8
0
  6
ByLayer
 62
  256
370
   -1
100
AcDbCircle
 10
344.7226947805355
 20
116.3523449679361
 40
0.5
100
AcDbArc
 50
180
 51
270
  0
LINE
  5
1CC
100
AcDbEntity
  8
0
  6
ByLayer
 62
  256
370
   -1
100
AcDbLine
 10
326.6726947805356
 20
41.02984496793606
 11
344.7226947805355
 21
41.02984496793606
  0
ARC
  5
1CD
100
AcDbEntity
  8
0
  6
ByLayer
 62
  256
370
   -1
100
AcDbCircle
 10
344.7226947805355
 20
40.52984496793606
 40
0.5
100
AcDbArc
 50
0
 51
90
  0
LINE
  5
1CE
100
AcDbEntity
  8
0
  6
ByLayer
 62
  256
370
   -1
100
AcDbLine
 10
345.2226947805355
 20
40.52984496793606
 11
345.2226947805355
 21
39.15234496793614
  0
LINE
  5
1CF
100
AcDbEntity
  8
0
  6
ByLayer
 62
  256
370
   -1
100
AcDbLine
 10
345.7226947805355
 20
38.65234496793614
 11
362.7726947805356
 21
38.65234496793614
  0
ARC
  5
1D0
100
AcDbEntity
  8
0
  6
ByLayer
 62
  256
370
   -1
100
AcDbCircle
 10
345.7226947805355
 20
39.15234496793614
 40
0.5
100
AcDbArc
 50
180
 51
270
  0
ARC
  5
1D1
100
AcDbEntity
  8
0
  6
ByLayer
 62
  256
370
   -1
100
AcDbCircle
 10
364.7726947805356
 20
113.9698449679361
 40
0.5
100
AcDbArc
 50
180
 51
270
  0
LINE
  5
1D2
100
AcDbEntity
  8
0
  6
ByLayer
 62
  256
370
   -1
100
AcDbLine
 10
364.7726947805356
 20
113.4698449679361
 11
382.8226947805354
 21
113.4698449679361
  0
ARC
  5
1D3
100
AcDbEntity
  8
0
  6
ByLayer
 62
  256
370
   -1
100
AcDbCircle
 10
382.8226947805354
 20
112.9698449679361
 40
0.5
100
AcDbArc
 50
0
 51
90
  0
ARC
  5
1D4
100
AcDbEntity
  8
0
  6
ByLayer
 62
  256
370
   -1
100
AcDbCircle
 10
363.7726947805356
 20
36.76984496793607
 40
0.5
100
AcDbArc
 50
180
 51
270
  0
LINE
  5
1D5
100
AcDbEntity
  8
0
  6
ByLayer
 62
  256
370
   -1
100
AcDbLine
 10
383.3226947805354
 20
112.9698449679361
 11
383.3226947805354
 21
36.76984496793615
  0
LINE
  5
1D6
100
AcDbEntity
  8
0
  6
ByLayer
 62
  256
370
   -1
100
AcDbLine
 10
363.7726947805356
 20
36.26984496793607
 11
382.8226947805354
 21
36.26984496793607
  0
ARC
  5
1D7
100
AcDbEntity
  8
0
  6
ByLayer
 62
  256
370
   -1
100
AcDbCircle
 10
382.8226947805354
 20
36.76984496793607
 40
0.5
100
AcDbArc
 50
270
 51
1.628443996909321e-12
  0
LINE
  5
1D8
100
AcDbEntity
  8
0
  6
ByLayer
 62
  256
370
   -1
100
AcDbLine
 10
364.2726947805356
 20
115.3523449679361
 11
364.2726947805356
 21
113.9698449679361
  0
LINE
  5
1D9
100
AcDbEntity
  8
0
  6
ByLayer
 62
  256
370
   -1
100
AcDbLine
 10
363.2726947805356
 20
38.15234496793614
 11
363.2726947805356
 21
36.76984496793607
  0
ARC
  5
1DA
100
AcDbEntity
  8
0
  6
ByLayer
 62
  256
370
   -1
100
AcDbCircle
 10
302.1225847151866
 20
157.3024383561789
 40
6
100
AcDbArc
 50
90
 51
180.0000000000001
  0
LINE
  5
1DB
100
AcDbEntity
  8
0
  6
ByLayer
 62
  256
370
   -1
100
AcDbLine
 10
302.1225847151866
 20
163.3024383561789
 11
387.3225847151866
 21
163.3024383561789
  0
ARC
  5
1DC
100
AcDbEntity
  8
0
  6
ByLayer
 62
  256
370
   -1
100
AcDbCircle
 10
387.3225847151866
 20
157.3024383561789
 40
6
100
AcDbArc
 50
7.63333123551244e-14
 51
90
  0
LINE
  5
1DD
100
AcDbEntity
  8
0
  6
ByLayer
 62
  256
370
   -1
100
AcDbLine
 10
296.1225847151866
 20
32.26631477148705
 11
296.1225847151866
 21
157.3024383561789
  0
ARC
  5
1DE
100
AcDbEntity
  8
0
  6
ByLayer
 62
  256
370
   -1
100
AcDbCircle
 10
302.1225847151866
 20
32.26631477148705
 40
6
100
AcDbArc
 50
180
 51
269.9972796256456
  0
LINE
  5
1DF
100
AcDbEntity
  8
0
  6
ByLayer
 62
  256
370
   -1
100
AcDbLine
 10
393.3225847151866
 20
32.26226951898995
 11
393.3225847151866
 21
157.3024383561789
  0
LINE
  5
1E0
100
AcDbEntity
  8
0
  6
ByLayer
 62
  256
370
   -1
100
AcDbLine
 10
302.1222998382505
 20
26.26631477824996
 11
387.3222998382506
 21
26.26226952575287
  0
ARC
  5
1E1
100
AcDbEntity
  8
0
  6
ByLayer
 62
  256
370
   -1
100
AcDbCircle
 10
387.3225847151866
 20
32.26226951898995
 40
6
100
AcDbArc
 50
269.9972796256458
 51
0
  0
CIRCLE
  5
1E2
100
AcDbEntity
  8
0
  6
ByLayer
 62
  256
370
   -1
100
AcDbCircle
 10
301.1225847151866
 20
31.26631477148705
 40
1.6
  0
CIRCLE
  5
1E3
100
AcDbEntity
  8
0
  6
ByLayer
 62
  256
370
   -1
100
AcDbCircle
 10
301.1225850210777
 20
158.3024383561789
 40
1.6
  0
CIRCLE
  5
1E4
100
AcDbEntity
  8
0
  6
ByLayer
 62
  256
370
   -1
100
AcDbCircle
 10
301.1225848681322
 20
94.78437656383295
 40
1.6
  0
CIRCLE
  5
1E5
100
AcDbEntity
  8
0
  6
ByLayer
 62
  256
370
   -1
100
AcDbCircle
 10
388.3225844092955
 20
31.26631477148705
 40
1.6
  0
CIRCLE
  5
1E6
100
AcDbEntity
  8
0
  6
ByLayer
 62
  256
370
   -1
100
AcDbCircle
 10
388.3225847151866
 20
158.3024383561789
 40
1.6
  0
CIRCLE
  5
1E7
100
AcDbEntity
  8
0
  6
ByLayer
 62
  256
370
   -1
100
AcDbCircle
 10
388.322584562241
 20
94.78437656383295
 40
1.6
  0
CIRCLE
  5
1E8
100
AcDbEntity
  8
0
  6
ByLayer
 62
  256
370
   -1
100
AcDbCircle
 10
472.9666226170107
 20
139.1007089070073
 40
11
  0
CIRCLE
  5
1E9
100
AcDbEntity
  8
0
  6
ByLayer
 62
  256
370
   -1
100
AcDbCircle
 10
447.9665125516618
 20
139.1007089070073
 40
11
  0
ARC
  5
1EA
100
AcDbEntity
  8
0
  6
ByLayer
 62
  256
370
   -1
100
AcDbCircle
 10
456.7761637787599
 20
118.4281155187645
 40
0.5
100
AcDbArc
 50
90
 51
180
  0
ARC
  5
1EB
100
AcDbEntity
  8
0
  6
ByLayer
 62
  256
370
   -1
100
AcDbCircle
 10
457.7761637787599
 20
41.22811551876445
 40
0.5
100
AcDbArc
 50
90
 51
180
  0
ARC
  5
1EC
100
AcDbEntity
  8
0
  6
ByLayer
 62
  256
370
   -1
100
AcDbCircle
 10
437.7261637787599
 20
116.0456155187644
 40
0.5
100
AcDbArc
 50
90
 51
180
  0
LINE
  5
1ED
100
AcDbEntity
  8
0
  6
ByLayer
 62
  256
370
   -1
100
AcDbLine
 10
437.7261637787599
 20
116.5456155187644
 11
455.7761637787599
 21
116.5456155187644
  0
ARC
  5
1EE
100
AcDbEntity
  8
0
  6
ByLayer
 62
  256
370
   -1
100
AcDbCircle
 10
455.7761637787599
 20
117.0456155187644
 40
0.5
100
AcDbArc
 50
270
 51
0
  0
ARC
  5
1EF
100
AcDbEntity
  8
0
  6
ByLayer
 62
  256
370
   -1
100
AcDbCircle
 10
456.7761637787599
 20
39.84561551876446
 40
0.5
100
AcDbArc
 50
270
 51
0
  0
LINE
  5
1F0
100
AcDbEntity
  8
0
  6
ByLayer
 62
  256
370
   -1
100
AcDbLine
 10
437.2261637787599
 20
116.0456155187644
 11
437.2261637787599
 21
39.84561551876446
  0
LINE
  5
1F1
100
AcDbEntity
  8
0
  6
ByLayer
 62
  256
370
   -1
100
AcDbLine
 10
437.7261637787599
 20
39.34561551876446
 11
456.7761637787599
 21
39.34561551876446
  0
ARC
  5
1F2
100
AcDbEntity
  8
0
  6
ByLayer
 62
  256
370
   -1
100
AcDbCircle
 10
437.7261637787599
 20
39.84561551876446
 40
0.5
100
AcDbArc
 50
180
 51
270
  0
LINE
  5
1F3
100
AcDbEntity
  8
0
  6
ByLayer
 62
  256
370
   -1
100
AcDbLine
 10
457.2761637787599
 20
39.84561551876446
 11
457.2761637787599
 21
41.22811551876445
  0
LINE
  5
1F4
100
AcDbEntity
  8
0
  6
ByLayer
 62
  256
370
   -1
100
AcDbLine
 10
456.2761637787599
 20
117.0456155187644
 11
456.2761637787599
 21
118.4281155187645
  0
ARC
  5
1F5
100
AcDbEntity
  8
0
  6
ByLayer
 62
  256
370
   -1
100
AcDbCircle
 10
494.8761519042995
 20
116.0506155187644
 40
0.5
100
AcDbArc
 50
0
 51
90
  0
ARC
  5
1F6
100
AcDbEntity
  8
0
  6
ByLayer
 62
  256
370
   -1
100
AcDbCircle
 10
493.8761519042995
 20
38.85061551876446
 40
0.5
100
AcDbArc
 50
0
 51
90
  0
LINE
  5
1F7
100
AcDbEntity
  8
0
  6
ByLayer
 62
  256
370
   -1
100
AcDbLine
 10
456.7761637787599
 20
118.9281155187645
 11
474.8261519042995
 21
118.9281155187645
  0
ARC
  5
1F8
100
AcDbEntity
  8
0
  6
ByLayer
 62
  256
370
   -1
100
AcDbCircle
 10
474.8261519042995
 20
118.4281155187645
 40
0.5
100
AcDbArc
 50
0
 51
90
  0
LINE
  5
1F9
100
AcDbEntity
  8
0
  6
ByLayer
 62
  256
370
   -1
100
AcDbLine
 10
475.3261519042995
 20
117.0506155187644
 11
475.3261519042995
 21
118.4281155187645
  0
LINE
  5
1FA
100
AcDbEntity
  8
0
  6
ByLayer
 62
  256
370
   -1
100
AcDbLine
 10
475.8261519042995
 20
116.5506155187644
 11
494.8761519042995
 21
116.5506155187644
  0
ARC
  5
1FB
100
AcDbEntity
  8
0
  6
ByLayer
 62
  256
370
   -1
100
AcDbCircle
 10
475.8261519042995
 20
117.0506155187644
 40
0.5
100
AcDbArc
 50
180
 51
270
  0
LINE
  5
1FC
100
AcDbEntity
  8
0
  6
ByLayer
 62
  256
370
   -1
100
AcDbLine
 10
457.7761637787599
 20
41.72811551876445
 11
475.8261519042995
 21
41.72811551876445
  0
ARC
  5
1FD
100
AcDbEntity
  8
0
  6
ByLayer
 62
  256
370
   -1
100
AcDbCircle
 10
475.8261519042995
 20
41.22811551876445
 40
0.5
100
AcDbArc
 50
0
 51
90
  0
LINE
  5
1FE
100
AcDbEntity
  8
0
  6
ByLayer
 62
  256
370
   -1
100
AcDbLine
 10
476.3261519042995
 20
41.22811551876445
 11
476.3261519042995
 21
39.85061551876446
  0
LINE
  5
1FF
100
AcDbEntity
  8
0
  6
ByLayer
 62
  256
370
   -1
100
AcDbLine
 10
476.8261519042995
 20
39.35061551876446
 11
493.8761519042995
 21
39.35061551876446
  0
ARC
  5
200
100
AcDbEntity
  8
0
  6
ByLayer
 62
  256
370
   -1
100
AcDbCircle
 10
476.8261519042995
 20
39.85061551876446
 40
0.5
100
AcDbArc
 50
180
 51
270
  0
ARC
  5
201
100
AcDbEntity
  8
0
  6
ByLayer
 62
  256
370
   -1
100
AcDbCircle
 10
495.8761519042995
 20
114.6681155187645
 40
0.5
100
AcDbArc
 50
180
 51
270
  0
LINE
  5
202
100
AcDbEntity
  8
0
  6
ByLayer
 62
  256
370
   -1
100
AcDbLine
 10
495.8761519042995
 20
114.1681155187645
 11
513.9261519042994
 21
114.1681155187645
  0
ARC
  5
203
100
AcDbEntity
  8
0
  6
ByLayer
 62
  256
370
   -1
100
AcDbCircle
 10
513.9261519042994
 20
113.6681155187645
 40
0.5
100
AcDbArc
 50
0
 51
90
  0
ARC
  5
204
100
AcDbEntity
  8
0
  6
ByLayer
 62
  256
370
   -1
100
AcDbCircle
 10
494.8761519042995
 20
37.46811551876446
 40
0.5
100
AcDbArc
 50
180
 51
270
  0
LINE
  5
205
100
AcDbEntity
  8
0
  6
ByLayer
 62
  256
370
   -1
100
AcDbLine
 10
494.8761519042995
 20
36.96811551876446
 11
513.9261519042994
 21
36.96811551876446
  0
ARC
  5
206
100
AcDbEntity
  8
0
  6
ByLayer
 62
  256
370
   -1
100
AcDbCircle
 10
513.9261519042994
 20
37.46811551876446
 40
0.5
100
AcDbArc
 50
270
 51
1.628443996909321e-12
  0
LINE
  5
207
100
AcDbEntity
  8
0
  6
ByLayer
 62
  256
370
   -1
100
AcDbLine
 10
514.4261519042994
 20
113.6681104825917
 11
514.4261519042994
 21
37.46811551876446
  0
LINE
  5
208
100
AcDbEntity
  8
0
  6
ByLayer
 62
  256
370
   -1
100
AcDbLine
 10
494.3761519042995
 20
38.85061551876446
 11
494.3761519042995
 21
37.46811551876446
  0
LINE
  5
209
100
AcDbEntity
  8
0
  6
ByLayer
 62
  256
370
   -1
100
AcDbLine
 10
495.3761519042995
 20
116.0506155187644
 11
495.3761519042995
 21
114.6681155187645
  0
ARC
  5
20A
100
AcDbEntity
  8
0
  6
ByLayer
 62
  256
370
   -1
100
AcDbCircle
 10
433.2260537134111
 20
158.0007089070073
 40
6
100
AcDbArc
 50
90
 51
180.0000000000001
  0
ARC
  5
20B
100
AcDbEntity
  8
0
  6
ByLayer
 62
  256
370
   -1
100
AcDbCircle
 10
518.4260537134111
 20
158.0007089070073
 40
6
100
AcDbArc
 50
7.63333123551244e-14
 51
90
  0
LINE
  5
20C
100
AcDbEntity
  8
0
  6
ByLayer
 62
  256
370
   -1
100
AcDbLine
 10
427.2260537134111
 20
32.96458532231544
 11
427.2260537134111
 21
158.0007089070073
  0
ARC
  5
20D
100
AcDbEntity
  8
0
  6
ByLayer
 62
  256
370
   -1
100
AcDbCircle
 10
433.2260537134111
 20
32.96458532231544
 40
6
100
AcDbArc
 50
180
 51
269.9972796256456
  0
LINE
  5
20E
100
AcDbEntity
  8
0
  6
ByLayer
 62
  256
370
   -1
100
AcDbLine
 10
524.4260537134111
 20
32.96054006981835
 11
524.4260537134111
 21
158.0007089070073
  0
LINE
  5
20F
100
AcDbEntity
  8
0
  6
ByLayer
 62
  256
370
   -1
100
AcDbLine
 10
433.2257688364751
 20
26.96458532907836
 11
518.4257688364752
 21
26.96054007658127
  0
ARC
  5
210
100
AcDbEntity
  8
0
  6
ByLayer
 62
  256
370
   -1
100
AcDbCircle
 10
518.4260537134111
 20
32.96054006981835
 40
6
100
AcDbArc
 50
269.9972796256458
 51
0
  0
CIRCLE
  5
211
100
AcDbEntity
  8
0
  6
ByLayer
 62
  256
370
   -1
100
AcDbCircle
 10
432.2258701659924
 20
159.0006765727359
 40
1
  0
CIRCLE
  5
212
100
AcDbEntity
  8
0
  6
ByLayer
 62
  256
370
   -1
100
AcDbCircle
 10
432.2258700130467
 20
95.48261478039001
 40
1
  0
CIRCLE
  5
213
100
AcDbEntity
  8
0
  6
ByLayer
 62
  256
370
   -1
100
AcDbCircle
 10
432.2258698601013
 20
31.96455298804416
 40
1
  0
CIRCLE
  5
214
100
AcDbEntity
  8
0
  6
ByLayer
 62
  256
370
   -1
100
AcDbCircle
 10
519.4258695542104
 20
31.96455298804416
 40
1
  0
CIRCLE
  5
215
100
AcDbEntity
  8
0
  6
ByLayer
 62
  256
370
   -1
100
AcDbCircle
 10
519.4258697071558
 20
95.48261478039001
 40
1
  0
LINE
  5
216
100
AcDbEntity
  8
0
  6
ByLayer
 62
  256
370
   -1
100
AcDbLine
 10
433.2260537134111
 20
164.0007089070073
 11
518.4260537134111
 21
164.0007089070073
  0
CIRCLE
  5
217
100
AcDbEntity
  8
0
  6
ByLayer
 62
  256
370
   -1
100
AcDbCircle
 10
179.6819450767645
 20
137.7041678053505
 40
11
  0
ARC
  5
218
100
AcDbEntity
  8
0
  6
ByLayer
 62
  256
370
   -1
100
AcDbCircle
 10
188.4915963038628
 20
117.0315744171076
 40
0.5
100
AcDbArc
 50
90
 51
180
  0
ARC
  5
219
100
AcDbEntity
  8
0
  6
ByLayer
 62
  256
370
   -1
100
AcDbCircle
 10
189.4915963038628
 20
39.83157441710763
 40
0.5
100
AcDbArc
 50
90
 51
180
  0
CIRCLE
  5
21A
100
AcDbEntity
  8
0
  6
ByLayer
 62
  256
370
   -1
100
AcDbCircle
 10
204.6819450767645
 20
137.7041678053505
 40
11
  0
ARC
  5
21B
100
AcDbEntity
  8
0
  6
ByLayer
 62
  256
370
   -1
100
AcDbCircle
 10
169.4415963038629
 20
114.6490744171075
 40
0.5
100
AcDbArc
 50
90
 51
180
  0
LINE
  5
21C
100
AcDbEntity
  8
0
  6
ByLayer
 62
  256
370
   -1
100
AcDbLine
 10
169.4415963038629
 20
115.1490744171075
 11
187.4915963038628
 21
115.1490744171077
  0
ARC
  5
21D
100
AcDbEntity
  8
0
  6
ByLayer
 62
  256
370
   -1
100
AcDbCircle
 10
187.4915963038628
 20
115.6490744171077
 40
0.5
100
AcDbArc
 50
270
 51
0
  0
ARC
  5
21E
100
AcDbEntity
  8
0
  6
ByLayer
 62
  256
370
   -1
100
AcDbCircle
 10
188.4915963038628
 20
38.44907441710764
 40
0.5
100
AcDbArc
 50
270
 51
0
  0
LINE
  5
21F
100
AcDbEntity
  8
0
  6
ByLayer
 62
  256
370
   -1
100
AcDbLine
 10
168.9415963038629
 20
114.6490744171075
 11
168.9415963038629
 21
38.44907441710764
  0
LINE
  5
220
100
AcDbEntity
  8
0
  6
ByLayer
 62
  256
370
   -1
100
AcDbLine
 10
169.4415963038629
 20
37.94907441710764
 11
188.4915963038628
 21
37.94907441710764
  0
ARC
  5
221
100
AcDbEntity
  8
0
  6
ByLayer
 62
  256
370
   -1
100
AcDbCircle
 10
169.4415963038629
 20
38.44907441710764
 40
0.5
100
AcDbArc
 50
180
 51
270
  0
LINE
  5
222
100
AcDbEntity
  8
0
  6
ByLayer
 62
  256
370
   -1
100
AcDbLine
 10
187.9915963038628
 20
115.6490735650052
 11
187.9915963038628
 21
117.0315744171076
  0
LINE
  5
223
100
AcDbEntity
  8
0
  6
ByLayer
 62
  256
370
   -1
100
AcDbLine
 10
188.9915963038628
 20
38.44907441710764
 11
188.9915963038628
 21
39.83157441710763
  0
ARC
  5
224
100
AcDbEntity
  8
0
  6
ByLayer
 62
  256
370
   -1
100
AcDbCircle
 10
226.5915963038628
 20
114.6540744171077
 40
0.5
100
AcDbArc
 50
0
 51
90
  0
ARC
  5
225
100
AcDbEntity
  8
0
  6
ByLayer
 62
  256
370
   -1
100
AcDbCircle
 10
225.5915963038628
 20
37.45407441710772
 40
0.5
100
AcDbArc
 50
0
 51
90
  0
LINE
  5
226
100
AcDbEntity
  8
0
  6
ByLayer
 62
  256
370
   -1
100
AcDbLine
 10
188.4915963038628
 20
117.5315744171076
 11
206.5415963038628
 21
117.5315744171076
  0
ARC
  5
227
100
AcDbEntity
  8
0
  6
ByLayer
 62
  256
370
   -1
100
AcDbCircle
 10
206.5415963038628
 20
117.0315744171076
 40
0.5
100
AcDbArc
 50
0
 51
90
  0
LINE
  5
228
100
AcDbEntity
  8
0
  6
ByLayer
 62
  256
370
   -1
100
AcDbLine
 10
207.0415963038628
 20
117.0315744171076
 11
207.0415963038628
 21
115.6540744171077
  0
LINE
  5
229
100
AcDbEntity
  8
0
  6
ByLayer
 62
  256
370
   -1
100
AcDbLine
 10
207.5415963038628
 20
115.1540744171077
 11
226.5915963038628
 21
115.1540744171077
  0
ARC
  5
22A
100
AcDbEntity
  8
0
  6
ByLayer
 62
  256
370
   -1
100
AcDbCircle
 10
207.5415963038628
 20
115.6540744171077
 40
0.5
100
AcDbArc
 50
180
 51
270
  0
LINE
  5
22B
100
AcDbEntity
  8
0
  6
ByLayer
 62
  256
370
   -1
100
AcDbLine
 10
189.4915963038628
 20
40.33157441710763
 11
207.5415963038628
 21
40.33157441710763
  0
ARC
  5
22C
100
AcDbEntity
  8
0
  6
ByLayer
 62
  256
370
   -1
100
AcDbCircle
 10
207.5415963038628
 20
39.83157441710763
 40
0.5
100
AcDbArc
 50
0
 51
90
  0
LINE
  5
22D
100
AcDbEntity
  8
0
  6
ByLayer
 62
  256
370
   -1
100
AcDbLine
 10
208.0415963038628
 20
39.83157441710763
 11
208.0415963038628
 21
38.45407441710772
  0
LINE
  5
22E
100
AcDbEntity
  8
0
  6
ByLayer
 62
  256
370
   -1
100
AcDbLine
 10
208.5415963038628
 20
37.95407441710772
 11
225.5915963038628
 21
37.95407441710772
  0
ARC
  5
22F
100
AcDbEntity
  8
0
  6
ByLayer
 62
  256
370
   -1
100
AcDbCircle
 10
208.5415963038628
 20
38.45407441710772
 40
0.5
100
AcDbArc
 50
180
 51
270
  0
ARC
  5
230
100
AcDbEntity
  8
0
  6
ByLayer
 62
  256
370
   -1
100
AcDbCircle
 10
227.5915963038628
 20
113.2715744171077
 40
0.5
100
AcDbArc
 50
180
 51
270
  0
LINE
  5
231
100
AcDbEntity
  8
0
  6
ByLayer
 62
  256
370
   -1
100
AcDbLine
 10
227.5915963038628
 20
112.7715744171077
 11
245.6415963038629
 21
112.7715744171077
  0
ARC
  5
232
100
AcDbEntity
  8
0
  6
ByLayer
 62
  256
370
   -1
100
AcDbCircle
 10
245.6415963038629
 20
112.2715744171077
 40
0.5
100
AcDbArc
 50
0
 51
90
  0
ARC
  5
233
100
AcDbEntity
  8
0
  6
ByLayer
 62
  256
370
   -1
100
AcDbCircle
 10
226.5915963038628
 20
36.07157441710764
 40
0.5
100
AcDbArc
 50
180
 51
270
  0
LINE
  5
234
100
AcDbEntity
  8
0
  6
ByLayer
 62
  256
370
   -1
100
AcDbLine
 10
246.1415963038629
 20
112.2715744171077
 11
246.1415963038629
 21
36.07157441710773
  0
LINE
  5
235
100
AcDbEntity
  8
0
  6
ByLayer
 62
  256
370
   -1
100
AcDbLine
 10
226.5915963038628
 20
35.57157441710764
 11
245.6415963038629
 21
35.57157441710764
  0
LINE
  5
236
100
AcDbEntity
  8
0
  6
ByLayer
 62
  256
370
   -1
100
AcDbLine
 10
226.0915963038628
 20
37.45407441710772
 11
226.0915963038628
 21
36.07157685228684
  0
LINE
  5
237
100
AcDbEntity
  8
0
  6
ByLayer
 62
  256
370
   -1
100
AcDbLine
 10
227.0915963038628
 20
114.6540744171077
 11
227.0915963038628
 21
113.2715744171077
  0
ARC
  5
238
100
AcDbEntity
  8
0
  6
ByLayer
 62
  256
370
   -1
100
AcDbCircle
 10
245.6415963038629
 20
36.07157441710764
 40
0.5
100
AcDbArc
 50
270
 51
1.628443996909321e-12
  0
ARC
  5
239
100
AcDbEntity
  8
0
  6
ByLayer
 62
  256
370
   -1
100
AcDbCircle
 10
164.9414862385138
 20
156.6041678053505
 40
6
100
AcDbArc
 50
90
 51
180.0000000000001
  0
LINE
  5
23A
100
AcDbEntity
  8
0
  6
ByLayer
 62
  256
370
   -1
100
AcDbLine
 10
164.9414862385138
 20
162.6041678053505
 11
250.1414862385139
 21
162.6041678053505
  0
ARC
  5
23B
100
AcDbEntity
  8
0
  6
ByLayer
 62
  256
370
   -1
100
AcDbCircle
 10
250.1414862385139
 20
156.6041678053505
 40
6
100
AcDbArc
 50
7.63333123551244e-14
 51
90
  0
LINE
  5
23C
100
AcDbEntity
  8
0
  6
ByLayer
 62
  256
370
   -1
100
AcDbLine
 10
158.9414862385138
 20
31.56804422065862
 11
158.9414862385138
 21
156.6041678053505
  0
ARC
  5
23D
100
AcDbEntity
  8
0
  6
ByLayer
 62
  256
370
   -1
100
AcDbCircle
 10
164.9414862385138
 20
31.56804422065862
 40
6
100
AcDbArc
 50
180
 51
269.9972796256456
  0
LINE
  5
23E
100
AcDbEntity
  8
0
  6
ByLayer
 62
  256
370
   -1
100
AcDbLine
 10
256.1414862385139
 20
31.56399896816153
 11
256.1414862385139
 21
156.6041678053505
  0
LINE
  5
23F
100
AcDbEntity
  8
0
  6
ByLayer
 62
  256
370
   -1
100
AcDbLine
 10
164.9412013615777
 20
25.56804422742154
 11
250.1412013615778
 21
25.56399897492444
  0
ARC
  5
240
100
AcDbEntity
  8
0
  6
ByLayer
 62
  256
370
   -1
100
AcDbCircle
 10
250.1414862385139
 20
31.56399896816153
 40
6
100
AcDbArc
 50
269.9972796256458
 51
0
  0
CIRCLE
  5
241
100
AcDbEntity
  8
0
  6
ByLayer
 62
  256
370
   -1
100
AcDbCircle
 10
163.9414862385138
 20
30.56804422065862
 40
1.6
  0
CIRCLE
  5
242
100
AcDbEntity
  8
0
  6
ByLayer
 62
  256
370
   -1
100
AcDbCircle
 10
163.9414863914594
 20
94.08610601300452
 40
1.6
  0
CIRCLE
  5
243
100
AcDbEntity
  8
0
  6
ByLayer
 62
  256
370
   -1
100
AcDbCircle
 10
251.1414859326229
 20
30.56804422065862
 40
1.6
  0
CIRCLE
  5
244
100
AcDbEntity
  8
0
  6
ByLayer
 62
  256
370
   -1
100
AcDbCircle
 10
251.1414862385139
 20
157.6041678053505
 40
1.6
  0
CIRCLE
  5
245
100
AcDbEntity
  8
0
  6
ByLayer
 62
  256
370
   -1
100
AcDbCircle
 10
251.1414860855684
 20
94.08610601300455
 40
1.6
  0
ARC
  5
246
100
AcDbEntity
  8
0
  6
ByLayer
 62
  256
370
   -1
100
AcDbCircle
 10
32.28820827165073
 20
332.3644073438196
 40
6
100
AcDbArc
 50
89.99996416638081
 51
180
  0
ARC
  5
247
100
AcDbEntity
  8
0
  6
ByLayer
 62
  256
370
   -1
100
AcDbCircle
 10
117.4882082716505
 20
332.3643540584928
 40
6
100
AcDbArc
 50
0
 51
89.99996416638108
  0
LINE
  5
248
100
AcDbEntity
  8
0
  6
ByLayer
 62
  256
370
   -1
100
AcDbLine
 10
123.4882082716505
 20
207.3241556628839
 11
123.4882082716505
 21
332.3643540584928
  0
ARC
  5
249
100
AcDbEntity
  8
0
  6
ByLayer
 62
  256
370
   -1
100
AcDbCircle
 10
117.4882082716505
 20
207.3241556628839
 40
6
100
AcDbArc
 50
269.9972796256458
 51
0
  0
LINE
  5
24A
100
AcDbEntity
  8
0
  6
ByLayer
 62
  256
370
   -1
100
AcDbLine
 10
32.28792339471461
 20
201.328200922144
 11
117.4879233947144
 21
201.3241556696469
  0
LINE
  5
24B
100
AcDbEntity
  8
0
  6
ByLayer
 62
  256
370
   -1
100
AcDbLine
 10
26.28820827165073
 20
207.328200915381
 11
26.28820827165073
 21
332.3644073438196
  0
ARC
  5
24C
100
AcDbEntity
  8
0
  6
ByLayer
 62
  256
370
   -1
100
AcDbCircle
 10
32.28820827165073
 20
207.328200915381
 40
6
100
AcDbArc
 50
180
 51
269.9972796256456
  0
CIRCLE
  5
24D
100
AcDbEntity
  8
0
  6
ByLayer
 62
  256
370
   -1
100
AcDbCircle
 10
31.28820857754188
 20
333.3643245000729
 40
1
  0
CIRCLE
  5
24E
100
AcDbEntity
  8
0
  6
ByLayer
 62
  256
370
   -1
100
AcDbCircle
 10
118.4882082716507
 20
333.3643245000729
 40
1
  0
CIRCLE
  5
24F
100
AcDbEntity
  8
0
  6
ByLayer
 62
  256
370
   -1
100
AcDbCircle
 10
118.4882081187053
 20
269.846262707727
 40
1
  0
CIRCLE
  5
250
100
AcDbEntity
  8
0
  6
ByLayer
 62
  256
370
   -1
100
AcDbCircle
 10
31.28820842459625
 20
269.846262707727
 40
1
  0
CIRCLE
  5
251
100
AcDbEntity
  8
0
  6
ByLayer
 62
  256
370
   -1
100
AcDbCircle
 10
31.28820827165073
 20
206.328200915381
 40
1
  0
CIRCLE
  5
252
100
AcDbEntity
  8
0
  6
ByLayer
 62
  256
370
   -1
100
AcDbCircle
 10
118.4882079657597
 20
206.328200915381
 40
1
  0
ARC
  5
253
100
AcDbEntity
  8
0
  6
ByLayer
 62
  256
370
   -1
100
AcDbCircle
 10
51.07870827165068
 20
337.3644264669814
 40
1
100
AcDbArc
 50
0
 51
90
  0
ARC
  5
254
100
AcDbEntity
  8
0
  6
ByLayer
 62
  256
370
   -1
100
AcDbCircle
 10
68.07870829993006
 20
337.3643627433414
 40
1
100
AcDbArc
 50
90
 51
180
  0
LINE
  5
255
100
AcDbEntity
  8
0
  6
ByLayer
 62
  256
370
   -1
100
AcDbLine
 10
32.28820827165062
 20
338.3644264669814
 11
51.07870827165068
 21
338.3644264669814
  0
LINE
  5
256
100
AcDbEntity
  8
0
  6
ByLayer
 62
  256
370
   -1
100
AcDbLine
 10
68.07870829993006
 20
338.3643627433414
 11
117.4882082716507
 21
338.3643627433414
  0
ARC
  5
257
100
AcDbEntity
  8
0
  6
ByLayer
 62
  256
370
   -1
100
AcDbCircle
 10
53.07870827165068
 20
330.3647311118301
 40
1
100
AcDbArc
 50
180
 51
270
  0
LINE
  5
258
100
AcDbEntity
  8
0
  6
ByLayer
 62
  256
370
   -1
100
AcDbLine
 10
53.07870827165068
 20
329.3647311118301
 11
66.07870829993006
 21
329.3647311118301
  0
ARC
  5
259
100
AcDbEntity
  8
0
  6
ByLayer
 62
  256
370
   -1
100
AcDbCircle
 10
66.07870829993006
 20
330.3647311118301
 40
1
100
AcDbArc
 50
270
 51
0
  0
LINE
  5
25A
100
AcDbEntity
  8
0
  6
ByLayer
 62
  256
370
   -1
100
AcDbLine
 10
52.07870827165068
 20
337.3644264669814
 11
52.07870827165068
 21
330.3647311118301
  0
LINE
  5
25B
100
AcDbEntity
  8
0
  6
ByLayer
 62
  256
370
   -1
100
AcDbLine
 10
67.07870829993006
 20
337.3643627433414
 11
67.07870829993006
 21
330.3647294083457
  0
CIRCLE
  5
25C
100
AcDbEntity
  8
0
  6
ByLayer
 62
  256
370
   -1
100
AcDbCircle
 10
163.941
 20
157.604
 40
1.6
  0
ARC
  5
25D
100
AcDbEntity
  8
0
  6
ByLayer
 62
  256
370
   -1
100
AcDbCircle
 10
31.74807267834013
 20
158.1183198106012
 40
6
100
AcDbArc
 50
89.99996416638081
 51
180
  0
ARC
  5
25E
100
AcDbEntity
  8
0
  6
ByLayer
 62
  256
370
   -1
100
AcDbCircle
 10
116.9480726783399
 20
158.1182665252743
 40
6
100
AcDbArc
 50
0
 51
89.99996416638108
  0
LINE
  5
25F
100
AcDbEntity
  8
0
  6
ByLayer
 62
  256
370
   -1
100
AcDbLine
 10
122.9480726783399
 20
33.07806812966538
 11
122.9480726783399
 21
158.1182665252743
  0
ARC
  5
260
100
AcDbEntity
  8
0
  6
ByLayer
 62
  256
370
   -1
100
AcDbCircle
 10
116.9480726783399
 20
33.07806812966538
 40
6
100
AcDbArc
 50
269.9972796256458
 51
0
  0
LINE
  5
261
100
AcDbEntity
  8
0
  6
ByLayer
 62
  256
370
   -1
100
AcDbLine
 10
31.74778780140401
 20
27.08211338892539
 11
116.9477878014038
 21
27.07806813642827
  0
LINE
  5
262
100
AcDbEntity
  8
0
  6
ByLayer
 62
  256
370
   -1
100
AcDbLine
 10
25.74807267834013
 20
33.08211338216245
 11
25.74807267834013
 21
158.1183198106012
  0
ARC
  5
263
100
AcDbEntity
  8
0
  6
ByLayer
 62
  256
370
   -1
100
AcDbCircle
 10
31.74807267834013
 20
33.08211338216245
 40
6
100
AcDbArc
 50
180
 51
269.9972796256456
  0
CIRCLE
  5
264
100
AcDbEntity
  8
0
  6
ByLayer
 62
  256
370
   -1
100
AcDbCircle
 10
30.74807298423117
 20
159.1182369668545
 40
1
  0
CIRCLE
  5
265
100
AcDbEntity
  8
0
  6
ByLayer
 62
  256
370
   -1
100
AcDbCircle
 10
117.9480726783401
 20
159.1182369668545
 40
1
  0
CIRCLE
  5
266
100
AcDbEntity
  8
0
  6
ByLayer
 62
  256
370
   -1
100
AcDbCircle
 10
117.9480725253947
 20
95.60017517450837
 40
1
  0
CIRCLE
  5
267
100
AcDbEntity
  8
0
  6
ByLayer
 62
  256
370
   -1
100
AcDbCircle
 10
30.74807283128554
 20
95.60017517450837
 40
1
  0
CIRCLE
  5
268
100
AcDbEntity
  8
0
  6
ByLayer
 62
  256
370
   -1
100
AcDbCircle
 10
30.74807267834013
 20
32.08211338216245
 40
1
  0
CIRCLE
  5
269
100
AcDbEntity
  8
0
  6
ByLayer
 62
  256
370
   -1
100
AcDbCircle
 10
117.9480723724491
 20
32.08211338216245
 40
1
  0
ARC
  5
26A
100
AcDbEntity
  8
0
  6
ByLayer
 62
  256
370
   -1
100
AcDbCircle
 10
50.53857267833997
 20
163.1183389337629
 40
1
100
AcDbArc
 50
0
 51
90
  0
ARC
  5
26B
100
AcDbEntity
  8
0
  6
ByLayer
 62
  256
370
   -1
100
AcDbCircle
 10
67.53857270661946
 20
163.1182752101228
 40
1
100
AcDbArc
 50
90
 51
180
  0
LINE
  5
26C
100
AcDbEntity
  8
0
  6
ByLayer
 62
  256
370
   -1
100
AcDbLine
 10
31.74807267834013
 20
164.1183389337629
 11
50.53857267833997
 21
164.1183389337629
  0
LINE
  5
26D
100
AcDbEntity
  8
0
  6
ByLayer
 62
  256
370
   -1
100
AcDbLine
 10
67.53857270661946
 20
164.1182752101228
 11
116.94807267834
 21
164.1182752101228
  0
ARC
  5
26E
100
AcDbEntity
  8
0
  6
ByLayer
 62
  256
370
   -1
100
AcDbCircle
 10
52.53857267833997
 20
156.1186435786117
 40
1
100
AcDbArc
 50
180
 51
270
  0
LINE
  5
26F
100
AcDbEntity
  8
0
  6
ByLayer
 62
  256
370
   -1
100
AcDbLine
 10
52.53857267833997
 20
155.1186435786117
 11
65.53857270661946
 21
155.1186435786117
  0
ARC
  5
270
100
AcDbEntity
  8
0
  6
ByLayer
 62
  256
370
   -1
100
AcDbCircle
 10
65.53857270661946
 20
156.1186435786117
 40
1
100
AcDbArc
 50
270
 51
0
  0
LINE
  5
271
100
AcDbEntity
  8
0
  6
ByLayer
 62
  256
370
   -1
100
AcDbLine
 10
51.53857267833997
 20
163.1183389337629
 11
51.53857267833997
 21
156.1186435786117
  0
LINE
  5
272
100
AcDbEntity
  8
0
  6
ByLayer
 62
  256
370
   -1
100
AcDbLine
 10
66.53857270661946
 20
163.1182752101228
 11
66.53857270661946
 21
156.1186418751274
  0
LWPOLYLINE
  5
273
100
AcDbEntity
  8
0
  6
ByLayer
 62
  256
370
   -1
100
AcDbPolyline
 90
    4
 70
    1
 43
0
 10
38.74807283128554
 20
125.6001751745084
 10
41.74807283128554
 20
125.6001751745084
 10
41.74807283128554
 20
75.60017517450837
 10
38.74807283128554
 20
75.60017517450837
  0
LWPOLYLINE
  5
274
100
AcDbEntity
  8
0
  6
ByLayer
 62
  256
370
   -1
100
AcDbPolyline
 90
    4
 70
    1
 43
0
 10
109.9475027715223
 20
125.6001751745084
 10
106.9475027715223
 20
125.6001751745084
 10
106.9475027715223
 20
75.60017517450837
 10
109.9475027715223
 20
75.60017517450837
  0
LWPOLYLINE
  5
275
100
AcDbEntity
  8
0
  6
ByLayer
 62
  256
370
   -1
100
AcDbPolyline
 90
    4
 70
    1
 43
0
 10
47.74807283128554
 20
125.6001751745084
 10
50.74807283128554
 20
125.6001751745084
 10
50.74807283128554
 20
75.60017517450837
 10
47.74807283128554
 20
75.60017517450837
  0
LWPOLYLINE
  5
276
100
AcDbEntity
  8
0
  6
ByLayer
 62
  256
370
   -1
100
AcDbPolyline
 90
    4
 70
    1
 43
0
 10
100.9475027715223
 20
125.6001751745084
 10
97.94750277152234
 20
125.6001751745084
 10
97.94750277152234
 20
75.60017517450837
 10
100.9475027715223
 20
75.60017517450837
  0
CIRCLE
  5
277
100
AcDbEntity
  8
0
  6
ByLayer
 62
  256
370
   -1
100
AcDbCircle
 10
44.74807283128554
 20
114.6001751745084
 40
1
  0
CIRCLE
  5
278
100
AcDbEntity
  8
0
  6
ByLayer
 62
  256
370
   -1
100
AcDbCircle
 10
44.74807283128554
 20
84.60017517450837
 40
1
  0
CIRCLE
  5
279
100
AcDbEntity
  8
0
  6
ByLayer
 62
  256
370
   -1
100
AcDbCircle
 10
103.9475027715223
 20
114.6001751745084
 40
1
  0
CIRCLE
  5
27A
100
AcDbEntity
  8
0
  6
ByLayer
 62
  256
370
   -1
100
AcDbCircle
 10
103.9475027715223
 20
84.60017517450837
 40
1
  0
LINE
  5
27B
100
AcDbEntity
  8
0
  6
ByLayer
 62
  256
370
   -1
100
AcDbLine
 10
32.72977691333583
 20
478.3807813726653
 11
45.72025808911002
 21
465.3903001968911
  0
ARC
  5
27C
100
AcDbEntity
  8
0
  6
ByLayer
 62
  256
370
   -1
100
AcDbCircle
 10
44.65959791733022
 20
464.3296400251114
 40
1.5
100
AcDbArc
 50
353.0000000000006
 51
45
  0
LINE
  5
27D
100
AcDbEntity
  8
0
  6
ByLayer
 62
  256
370
   -1
100
AcDbLine
 10
34.68512681718281
 20
370.7858283775023
 11
46.14841714479221
 21
464.1468360100037
  0
LINE
  5
27E
100
AcDbEntity
  8
0
  6
ByLayer
 62
  256
370
   -1
100
AcDbLine
 10
32.72977691333583
 20
368.3807813726653
 11
34.2569677615007
 21
369.9079722208302
  0
ARC
  5
27F
100
AcDbEntity
  8
0
  6
ByLayer
 62
  256
370
   -1
100
AcDbCircle
 10
33.19630758972082
 20
370.96863239261
 40
1.5
100
AcDbArc
 50
315
 51
353.0000000000006
  0
LINE
  5
280
100
AcDbEntity
  8
0
  6
ByLayer
 62
  256
370
   -1
100
AcDbLine
 10
60.05307284248411
 20
453.3807813726653
 11
57.05307284248411
 21
453.3807813726653
  0
LINE
  5
281
100
AcDbEntity
  8
0
  6
ByLayer
 62
  256
370
   -1
100
AcDbLine
 10
57.05307284248411
 20
453.3807813726653
 11
57.05307284248411
 21
403.3807813726653
  0
LINE
  5
282
100
AcDbEntity
  8
0
  6
ByLayer
 62
  256
370
   -1
100
AcDbLine
 10
57.05307284248411
 20
403.3807813726653
 11
60.05307284248411
 21
403.3807813726653
  0
LINE
  5
283
100
AcDbEntity
  8
0
  6
ByLayer
 62
  256
370
   -1
100
AcDbLine
 10
60.05307284248411
 20
403.3807813726653
 11
60.05307284248411
 21
368.3807813726653
  0
LINE
  5
284
100
AcDbEntity
  8
0
  6
ByLayer
 62
  256
370
   -1
100
AcDbLine
 10
60.05307284248411
 20
453.3807813726653
 11
60.05307284248411
 21
478.3807813726653
  0
LINE
  5
285
100
AcDbEntity
  8
0
  6
ByLayer
 62
  256
370
   -1
100
AcDbLine
 10
60.05307284248411
 20
478.3807813726653
 11
73.04355401825831
 21
465.3903001968911
  0
ARC
  5
286
100
AcDbEntity
  8
0
  6
ByLayer
 62
  256
370
   -1
100
AcDbCircle
 10
71.9828938464785
 20
464.3296400251114
 40
1.5
100
AcDbArc
 50
353.0000000000006
 51
45
  0
LINE
  5
287
100
AcDbEntity
  8
0
  6
ByLayer
 62
  256
370
   -1
100
AcDbLine
 10
62.00842274633112
 20
370.7858283775023
 11
73.47171307394052
 21
464.1468360100037
  0
LINE
  5
288
100
AcDbEntity
  8
0
  6
ByLayer
 62
  256
370
   -1
100
AcDbLine
 10
60.05307284248411
 20
368.3807813726653
 11
61.58026369064902
 21
369.9079722208302
  0
ARC
  5
289
100
AcDbEntity
  8
0
  6
ByLayer
 62
  256
370
   -1
100
AcDbCircle
 10
60.5196035188691
 20
370.96863239261
 40
1.5
100
AcDbArc
 50
315
 51
353.0000000000006
  0
CIRCLE
  5
28A
100
AcDbEntity
  8
0
  6
ByLayer
 62
  256
370
   -1
100
AcDbCircle
 10
64.05307284248411
 20
418.3807813726653
 40
1.6
  0
CIRCLE
  5
28B
100
AcDbEntity
  8
0
  6
ByLayer
 62
  256
370
   -1
100
AcDbCircle
 10
64.05307284248411
 20
457.3807813726653
 40
1.6
  0
LINE
  5
28C
100
AcDbEntity
  8
0
  6
ByLayer
 62
  256
370
   -1
100
AcDbLine
 10
87.37636877163243
 20
478.3807813726653
 11
100.3668499474066
 21
465.3903001968911
  0
ARC
  5
28D
100
AcDbEntity
  8
0
  6
ByLayer
 62
  256
370
   -1
100
AcDbCircle
 10
99.30618977562682
 20
464.3296400251114
 40
1.5
100
AcDbArc
 50
353.0000000000006
 51
45
  0
LINE
  5
28E
100
AcDbEntity
  8
0
  6
ByLayer
 62
  256
370
   -1
100
AcDbLine
 10
89.33171867547941
 20
370.7858283775023
 11
100.7950090030888
 21
464.1468360100037
  0
LINE
  5
28F
100
AcDbEntity
  8
0
  6
ByLayer
 62
  256
370
   -1
100
AcDbLine
 10
87.37636877163243
 20
368.3807813726653
 11
88.90355961979731
 21
369.9079722208302
  0
ARC
  5
290
100
AcDbEntity
  8
0
  6
ByLayer
 62
  256
370
   -1
100
AcDbCircle
 10
87.84289944801742
 20
370.96863239261
 40
1.5
100
AcDbArc
 50
315
 51
353.0000000000006
  0
CIRCLE
  5
291
100
AcDbEntity
  8
0
  6
ByLayer
 62
  256
370
   -1
100
AcDbCircle
 10
91.37636877163243
 20
418.3807813726653
 40
1.6
  0
CIRCLE
  5
292
100
AcDbEntity
  8
0
  6
ByLayer
 62
  256
370
   -1
100
AcDbCircle
 10
91.37636877163243
 20
457.3807813726653
 40
1.6
  0
LINE
  5
293
100
AcDbEntity
  8
0
  6
ByLayer
 62
  256
370
   -1
100
AcDbLine
 10
114.6996647007808
 20
478.3807813726653
 11
127.6901458765549
 21
465.3903001968911
  0
ARC
  5
294
100
AcDbEntity
  8
0
  6
ByLayer
 62
  256
370
   -1
100
AcDbCircle
 10
126.6294857047751
 20
464.3296400251114
 40
1.5
100
AcDbArc
 50
353.0000000000006
 51
45
  0
LINE
  5
295
100
AcDbEntity
  8
0
  6
ByLayer
 62
  256
370
   -1
100
AcDbLine
 10
116.6550146046277
 20
370.7858283775023
 11
128.1183049322371
 21
464.1468360100037
  0
LINE
  5
296
100
AcDbEntity
  8
0
  6
ByLayer
 62
  256
370
   -1
100
AcDbLine
 10
114.6996647007808
 20
368.3807813726653
 11
116.2268555489456
 21
369.9079722208302
  0
ARC
  5
297
100
AcDbEntity
  8
0
  6
ByLayer
 62
  256
370
   -1
100
AcDbCircle
 10
115.1661953771657
 20
370.96863239261
 40
1.5
100
AcDbArc
 50
315
 51
353.0000000000006
  0
CIRCLE
  5
298
100
AcDbEntity
  8
0
  6
ByLayer
 62
  256
370
   -1
100
AcDbCircle
 10
118.6996647007808
 20
418.3807813726653
 40
1.6
  0
CIRCLE
  5
299
100
AcDbEntity
  8
0
  6
ByLayer
 62
  256
370
   -1
100
AcDbCircle
 10
118.6996647007808
 20
457.3807813726653
 40
1.6
  0
LINE
  5
29A
100
AcDbEntity
  8
0
  6
ByLayer
 62
  256
370
   -1
100
AcDbLine
 10
142.0229606299291
 20
453.3807813726653
 11
139.0229606299291
 21
453.3807813726653
  0
LINE
  5
29B
100
AcDbEntity
  8
0
  6
ByLayer
 62
  256
370
   -1
100
AcDbLine
 10
139.0229606299291
 20
453.3807813726653
 11
139.0229606299291
 21
403.3807813726653
  0
LINE
  5
29C
100
AcDbEntity
  8
0
  6
ByLayer
 62
  256
370
   -1
100
AcDbLine
 10
139.0229606299291
 20
403.3807813726653
 11
142.0229606299291
 21
403.3807813726653
  0
LINE
  5
29D
100
AcDbEntity
  8
0
  6
ByLayer
 62
  256
370
   -1
100
AcDbLine
 10
142.0229606299291
 20
403.3807813726653
 11
142.0229606299291
 21
368.3807813726653
  0
LINE
  5
29E
100
AcDbEntity
  8
0
  6
ByLayer
 62
  256
370
   -1
100
AcDbLine
 10
142.0229606299291
 20
453.3807813726653
 11
142.0229606299291
 21
478.3807813726653
  0
LINE
  5
29F
100
AcDbEntity
  8
0
  6
ByLayer
 62
  256
370
   -1
100
AcDbLine
 10
142.0229606299291
 20
478.3807813726653
 11
155.0134418057033
 21
465.3903001968911
  0
ARC
  5
2A0
100
AcDbEntity
  8
0
  6
ByLayer
 62
  256
370
   -1
100
AcDbCircle
 10
153.9527816339234
 20
464.3296400251114
 40
1.5
100
AcDbArc
 50
353.0000000000006
 51
45
  0
LINE
  5
2A1
100
AcDbEntity
  8
0
  6
ByLayer
 62
  256
370
   -1
100
AcDbLine
 10
143.978310533776
 20
370.7858283775023
 11
155.4416008613855
 21
464.1468360100037
  0
LINE
  5
2A2
100
AcDbEntity
  8
0
  6
ByLayer
 62
  256
370
   -1
100
AcDbLine
 10
142.0229606299291
 20
368.3807813726653
 11
143.550151478094
 21
369.9079722208302
  0
ARC
  5
2A3
100
AcDbEntity
  8
0
  6
ByLayer
 62
  256
370
   -1
100
AcDbCircle
 10
142.4894913063141
 20
370.96863239261
 40
1.5
100
AcDbArc
 50
315
 51
353.0000000000006
  0
LINE
  5
2A4
100
AcDbEntity
  8
0
  6
ByLayer
 62
  256
370
   -1
100
AcDbLine
 10
32.72977691333583
 20
478.3807813726653
 11
32.72977691333583
 21
368.3807813726653
  0
LINE
  5
2A5
100
AcDbEntity
  8
0
  6
ByLayer
 62
  256
370
   -1
100
AcDbLine
 10
87.37636877163243
 20
441.3807813726653
 11
87.37636877163243
 21
413.3807813726653
  0
LINE
  5
2A6
100
AcDbEntity
  8
0
  6
ByLayer
 62
  256
370
   -1
100
AcDbLine
 10
87.37636877163243
 20
411.3807813726653
 11
87.37636877163243
 21
368.3807813726653
  0
LINE
  5
2A7
100
AcDbEntity
  8
0
  6
ByLayer
 62
  256
370
   -1
100
AcDbLine
 10
87.37636877163243
 20
478.3807813726653
 11
87.37636877163243
 21
443.3807813726653
  0
LINE
  5
2A8
100
AcDbEntity
  8
0
  6
ByLayer
 62
  256
370
   -1
100
AcDbLine
 10
114.6996647007808
 20
478.3807813726653
 11
114.7006570553517
 21
443.3807813726653
  0
LINE
  5
2A9
100
AcDbEntity
  8
0
  6
ByLayer
 62
  256
370
   -1
100
AcDbLine
 10
114.7006570553516
 20
441.3807813726653
 11
114.7006570553517
 21
413.3807813726653
  0
LINE
  5
2AA
100
AcDbEntity
  8
0
  6
ByLayer
 62
  256
370
   -1
100
AcDbLine
 10
114.7006570553516
 20
411.3807813726653
 11
114.6996647007808
 21
368.3807813726653
  0
CIRCLE
  5
2AB
100
AcDbEntity
  8
0
  6
ByLayer
 62
  256
370
   -1
100
AcDbCircle
 10
36.72977691333583
 20
457.3807813726653
 40
1
  0
CIRCLE
  5
2AC
100
AcDbEntity
  8
0
  6
ByLayer
 62
  256
370
   -1
100
AcDbCircle
 10
36.72977691333583
 20
418.3807813726653
 40
1
  0
CIRCLE
  5
2AD
100
AcDbEntity
  8
0
  6
ByLayer
 62
  256
370
   -1
100
AcDbCircle
 10
146.0229606299291
 20
457.3807813726653
 40
1
  0
CIRCLE
  5
2AE
100
AcDbEntity
  8
0
  6
ByLayer
 62
  256
370
   -1
100
AcDbCircle
 10
146.0229606299291
 20
418.3807813726653
 40
1
  0
LINE
  5
2AF
100
AcDbEntity
  8
0
  6
ByLayer
 62
  256
370
   -1
100
AcDbLine
 10
294.3414074216479
 20
478.3807813726653
 11
281.3509262458737
 21
465.3903001968911
  0
ARC
  5
2B0
100
AcDbEntity
  8
0
  6
ByLayer
 62
  256
370
   -1
100
AcDbCircle
 10
282.4115864176535
 20
464.3296400251114
 40
1.5
100
AcDbArc
 50
134.9999999999999
 51
186.9999999999993
  0
LINE
  5
2B1
100
AcDbEntity
  8
0
  6
ByLayer
 62
  256
370
   -1
100
AcDbLine
 10
292.3860575178008
 20
370.7858283775023
 11
280.9227671901915
 21
464.1468360100037
  0
LINE
  5
2B2
100
AcDbEntity
  8
0
  6
ByLayer
 62
  256
370
   -1
100
AcDbLine
 10
294.3414074216478
 20
368.3807813726653
 11
292.8142165734829
 21
369.9079722208302
  0
ARC
  5
2B3
100
AcDbEntity
  8
0
  6
ByLayer
 62
  256
370
   -1
100
AcDbCircle
 10
293.8748767452628
 20
370.96863239261
 40
1.5
100
AcDbArc
 50
186.9999999999993
 51
225
  0
LINE
  5
2B4
100
AcDbEntity
  8
0
  6
ByLayer
 62
  256
370
   -1
100
AcDbLine
 10
267.0181114924996
 20
453.3807813726653
 11
270.0181114924996
 21
453.3807813726653
  0
LINE
  5
2B5
100
AcDbEntity
  8
0
  6
ByLayer
 62
  256
370
   -1
100
AcDbLine
 10
270.0181114924996
 20
453.3807813726653
 11
270.0181114924995
 21
403.3807813726653
  0
LINE
  5
2B6
100
AcDbEntity
  8
0
  6
ByLayer
 62
  256
370
   -1
100
AcDbLine
 10
270.0181114924995
 20
403.3807813726653
 11
267.0181114924995
 21
403.3807813726653
  0
LINE
  5
2B7
100
AcDbEntity
  8
0
  6
ByLayer
 62
  256
370
   -1
100
AcDbLine
 10
267.0181114924995
 20
403.3807813726653
 11
267.0181114924995
 21
368.3807813726653
  0
LINE
  5
2B8
100
AcDbEntity
  8
0
  6
ByLayer
 62
  256
370
   -1
100
AcDbLine
 10
267.0181114924996
 20
453.3807813726653
 11
267.0181114924996
 21
478.3807813726653
  0
LINE
  5
2B9
100
AcDbEntity
  8
0
  6
ByLayer
 62
  256
370
   -1
100
AcDbLine
 10
267.0181114924996
 20
478.3807813726653
 11
254.0276303167254
 21
465.3903001968911
  0
ARC
  5
2BA
100
AcDbEntity
  8
0
  6
ByLayer
 62
  256
370
   -1
100
AcDbCircle
 10
255.0882904885052
 20
464.3296400251114
 40
1.5
100
AcDbArc
 50
134.9999999999999
 51
186.9999999999993
  0
LINE
  5
2BB
100
AcDbEntity
  8
0
  6
ByLayer
 62
  256
370
   -1
100
AcDbLine
 10
265.0627615886525
 20
370.7858283775023
 11
253.5994712610432
 21
464.1468360100037
  0
LINE
  5
2BC
100
AcDbEntity
  8
0
  6
ByLayer
 62
  256
370
   -1
100
AcDbLine
 10
267.0181114924995
 20
368.3807813726653
 11
265.4909206443346
 21
369.9079722208302
  0
ARC
  5
2BD
100
AcDbEntity
  8
0
  6
ByLayer
 62
  256
370
   -1
100
AcDbCircle
 10
266.5515808161145
 20
370.96863239261
 40
1.5
100
AcDbArc
 50
186.9999999999993
 51
225
  0
CIRCLE
  5
2BE
100
AcDbEntity
  8
0
  6
ByLayer
 62
  256
370
   -1
100
AcDbCircle
 10
263.0181114924995
 20
418.3807813726653
 40
1.6
  0
CIRCLE
  5
2BF
100
AcDbEntity
  8
0
  6
ByLayer
 62
  256
370
   -1
100
AcDbCircle
 10
263.0181114924996
 20
457.3807813726653
 40
1.6
  0
LINE
  5
2C0
100
AcDbEntity
  8
0
  6
ByLayer
 62
  256
370
   -1
100
AcDbLine
 10
239.6948155633513
 20
478.3807813726653
 11
226.7043343875771
 21
465.3903001968911
  0
ARC
  5
2C1
100
AcDbEntity
  8
0
  6
ByLayer
 62
  256
370
   -1
100
AcDbCircle
 10
227.7649945593569
 20
464.3296400251114
 40
1.5
100
AcDbArc
 50
134.9999999999999
 51
186.9999999999993
  0
LINE
  5
2C2
100
AcDbEntity
  8
0
  6
ByLayer
 62
  256
370
   -1
100
AcDbLine
 10
237.7394656595042
 20
370.7858283775023
 11
226.2761753318949
 21
464.1468360100037
  0
LINE
  5
2C3
100
AcDbEntity
  8
0
  6
ByLayer
 62
  256
370
   -1
100
AcDbLine
 10
239.6948155633512
 20
368.3807813726653
 11
238.1676247151863
 21
369.9079722208302
  0
ARC
  5
2C4
100
AcDbEntity
  8
0
  6
ByLayer
 62
  256
370
   -1
100
AcDbCircle
 10
239.2282848869662
 20
370.96863239261
 40
1.5
100
AcDbArc
 50
186.9999999999993
 51
225
  0
CIRCLE
  5
2C5
100
AcDbEntity
  8
0
  6
ByLayer
 62
  256
370
   -1
100
AcDbCircle
 10
235.6948155633512
 20
418.3807813726653
 40
1.6
  0
CIRCLE
  5
2C6
100
AcDbEntity
  8
0
  6
ByLayer
 62
  256
370
   -1
100
AcDbCircle
 10
235.6948155633513
 20
457.3807813726653
 40
1.6
  0
LINE
  5
2C7
100
AcDbEntity
  8
0
  6
ByLayer
 62
  256
370
   -1
100
AcDbLine
 10
212.371519634203
 20
478.3807813726653
 11
199.3810384584288
 21
465.3903001968911
  0
ARC
  5
2C8
100
AcDbEntity
  8
0
  6
ByLayer
 62
  256
370
   -1
100
AcDbCircle
 10
200.4416986302086
 20
464.3296400251114
 40
1.5
100
AcDbArc
 50
134.9999999999999
 51
186.9999999999993
  0
LINE
  5
2C9
100
AcDbEntity
  8
0
  6
ByLayer
 62
  256
370
   -1
100
AcDbLine
 10
210.4161697303559
 20
370.7858283775023
 11
198.9528794027466
 21
464.1468360100037
  0
LINE
  5
2CA
100
AcDbEntity
  8
0
  6
ByLayer
 62
  256
370
   -1
100
AcDbLine
 10
212.3715196342029
 20
368.3807813726653
 11
210.844328786038
 21
369.9079722208302
  0
ARC
  5
2CB
100
AcDbEntity
  8
0
  6
ByLayer
 62
  256
370
   -1
100
AcDbCircle
 10
211.9049889578179
 20
370.96863239261
 40
1.5
100
AcDbArc
 50
186.9999999999993
 51
225
  0
CIRCLE
  5
2CC
100
AcDbEntity
  8
0
  6
ByLayer
 62
  256
370
   -1
100
AcDbCircle
 10
208.3715196342029
 20
418.3807813726653
 40
1.6
  0
CIRCLE
  5
2CD
100
AcDbEntity
  8
0
  6
ByLayer
 62
  256
370
   -1
100
AcDbCircle
 10
208.371519634203
 20
457.3807813726653
 40
1.6
  0
LINE
  5
2CE
100
AcDbEntity
  8
0
  6
ByLayer
 62
  256
370
   -1
100
AcDbLine
 10
185.0482237050547
 20
453.3807813726653
 11
188.0482237050547
 21
453.3807813726653
  0
LINE
  5
2CF
100
AcDbEntity
  8
0
  6
ByLayer
 62
  256
370
   -1
100
AcDbLine
 10
188.0482237050547
 20
453.3807813726653
 11
188.0482237050546
 21
403.3807813726653
  0
LINE
  5
2D0
100
AcDbEntity
  8
0
  6
ByLayer
 62
  256
370
   -1
100
AcDbLine
 10
188.0482237050546
 20
403.3807813726653
 11
185.0482237050546
 21
403.3807813726653
  0
LINE
  5
2D1
100
AcDbEntity
  8
0
  6
ByLayer
 62
  256
370
   -1
100
AcDbLine
 10
185.0482237050546
 20
403.3807813726653
 11
185.0482237050546
 21
368.3807813726653
  0
LINE
  5
2D2
100
AcDbEntity
  8
0
  6
ByLayer
 62
  256
370
   -1
100
AcDbLine
 10
185.0482237050547
 20
453.3807813726653
 11
185.0482237050547
 21
478.3807813726653
  0
LINE
  5
2D3
100
AcDbEntity
  8
0
  6
ByLayer
 62
  256
370
   -1
100
AcDbLine
 10
185.0482237050547
 20
478.3807813726653
 11
172.0577425292804
 21
465.3903001968911
  0
ARC
  5
2D4
100
AcDbEntity
  8
0
  6
ByLayer
 62
  256
370
   -1
100
AcDbCircle
 10
173.1184027010603
 20
464.3296400251114
 40
1.5
100
AcDbArc
 50
134.9999999999999
 51
186.9999999999993
  0
LINE
  5
2D5
100
AcDbEntity
  8
0
  6
ByLayer
 62
  256
370
   -1
100
AcDbLine
 10
183.0928738012076
 20
370.7858283775023
 11
171.6295834735983
 21
464.1468360100037
  0
LINE
  5
2D6
100
AcDbEntity
  8
0
  6
ByLayer
 62
  256
370
   -1
100
AcDbLine
 10
185.0482237050546
 20
368.3807813726653
 11
183.5210328568897
 21
369.9079722208302
  0
ARC
  5
2D7
100
AcDbEntity
  8
0
  6
ByLayer
 62
  256
370
   -1
100
AcDbCircle
 10
184.5816930286696
 20
370.96863239261
 40
1.5
100
AcDbArc
 50
186.9999999999993
 51
225
  0
LINE
  5
2D8
100
AcDbEntity
  8
0
  6
ByLayer
 62
  256
370
   -1
100
AcDbLine
 10
294.3414074216479
 20
478.3807813726653
 11
294.3414074216478
 21
368.3807813726653
  0
LINE
  5
2D9
100
AcDbEntity
  8
0
  6
ByLayer
 62
  256
370
   -1
100
AcDbLine
 10
239.6948155633513
 20
443.3807813726653
 11
237.6948155633513
 21
443.3807813726653
  0
LINE
  5
2DA
100
AcDbEntity
  8
0
  6
ByLayer
 62
  256
370
   -1
100
AcDbLine
 10
237.6948155633513
 20
443.3807813726653
 11
237.6948155633513
 21
444.3807813726653
  0
LINE
  5
2DB
100
AcDbEntity
  8
0
  6
ByLayer
 62
  256
370
   -1
100
AcDbLine
 10
237.6948155633513
 20
444.3807813726653
 11
236.0948155633513
 21
444.3807813726653
  0
LINE
  5
2DC
100
AcDbEntity
  8
0
  6
ByLayer
 62
  256
370
   -1
100
AcDbLine
 10
236.0948155633513
 20
444.3807813726653
 11
236.0948155633512
 21
440.3807813726653
  0
LINE
  5
2DD
100
AcDbEntity
  8
0
  6
ByLayer
 62
  256
370
   -1
100
AcDbLine
 10
236.0948155633512
 20
440.3807813726653
 11
237.6948155633512
 21
440.3807813726653
  0
LINE
  5
2DE
100
AcDbEntity
  8
0
  6
ByLayer
 62
  256
370
   -1
100
AcDbLine
 10
237.6948155633512
 20
440.3807813726653
 11
237.6948155633512
 21
441.3807813726653
  0
LINE
  5
2DF
100
AcDbEntity
  8
0
  6
ByLayer
 62
  256
370
   -1
100
AcDbLine
 10
237.6948155633512
 20
441.3807813726653
 11
239.6948155633512
 21
441.3807813726653
  0
LINE
  5
2E0
100
AcDbEntity
  8
0
  6
ByLayer
 62
  256
370
   -1
100
AcDbLine
 10
239.6948155633512
 20
413.3807813726653
 11
237.6948155633512
 21
413.3807813726653
  0
LINE
  5
2E1
100
AcDbEntity
  8
0
  6
ByLayer
 62
  256
370
   -1
100
AcDbLine
 10
237.6948155633512
 20
413.3807813726653
 11
237.6948155633512
 21
414.3807813726653
  0
LINE
  5
2E2
100
AcDbEntity
  8
0
  6
ByLayer
 62
  256
370
   -1
100
AcDbLine
 10
237.6948155633512
 20
414.3807813726653
 11
236.0948155633512
 21
414.3807813726653
  0
LINE
  5
2E3
100
AcDbEntity
  8
0
  6
ByLayer
 62
  256
370
   -1
100
AcDbLine
 10
236.0948155633512
 20
414.3807813726653
 11
236.0948155633512
 21
410.3807813726653
  0
LINE
  5
2E4
100
AcDbEntity
  8
0
  6
ByLayer
 62
  256
370
   -1
100
AcDbLine
 10
236.0948155633512
 20
410.3807813726653
 11
237.6948155633512
 21
410.3807813726653
  0
LINE
  5
2E5
100
AcDbEntity
  8
0
  6
ByLayer
 62
  256
370
   -1
100
AcDbLine
 10
237.6948155633512
 20
410.3807813726653
 11
237.6948155633512
 21
411.3807813726653
  0
LINE
  5
2E6
100
AcDbEntity
  8
0
  6
ByLayer
 62
  256
370
   -1
100
AcDbLine
 10
237.6948155633512
 20
411.3807813726653
 11
239.6948155633512
 21
411.3807813726653
  0
LINE
  5
2E7
100
AcDbEntity
  8
0
  6
ByLayer
 62
  256
370
   -1
100
AcDbLine
 10
239.6948155633512
 20
441.3807813726653
 11
239.6948155633512
 21
413.3807813726653
  0
LINE
  5
2E8
100
AcDbEntity
  8
0
  6
ByLayer
 62
  256
370
   -1
100
AcDbLine
 10
239.6948155633512
 20
411.3807813726653
 11
239.6948155633512
 21
368.3807813726653
  0
LINE
  5
2E9
100
AcDbEntity
  8
0
  6
ByLayer
 62
  256
370
   -1
100
AcDbLine
 10
239.6948155633513
 20
478.3807813726653
 11
239.6948155633513
 21
443.3807813726653
  0
LINE
  5
2EA
100
AcDbEntity
  8
0
  6
ByLayer
 62
  256
370
   -1
100
AcDbLine
 10
212.3705272796321
 20
443.3807813726653
 11
210.3705272796321
 21
443.3807813726653
  0
LINE
  5
2EB
100
AcDbEntity
  8
0
  6
ByLayer
 62
  256
370
   -1
100
AcDbLine
 10
210.3705272796321
 20
443.3807813726653
 11
210.3705272796321
 21
444.3807813726653
  0
LINE
  5
2EC
100
AcDbEntity
  8
0
  6
ByLayer
 62
  256
370
   -1
100
AcDbLine
 10
210.3705272796321
 20
444.3807813726653
 11
208.770527279632
 21
444.3807813726653
  0
LINE
  5
2ED
100
AcDbEntity
  8
0
  6
ByLayer
 62
  256
370
   -1
100
AcDbLine
 10
208.770527279632
 20
444.3807813726653
 11
208.7705272796319
 21
440.3807813726653
  0
LINE
  5
2EE
100
AcDbEntity
  8
0
  6
ByLayer
 62
  256
370
   -1
100
AcDbLine
 10
208.7705272796319
 20
440.3807813726653
 11
210.370527279632
 21
440.3807813726653
  0
LINE
  5
2EF
100
AcDbEntity
  8
0
  6
ByLayer
 62
  256
370
   -1
100
AcDbLine
 10
210.370527279632
 20
440.3807813726653
 11
210.370527279632
 21
441.3807813726653
  0
LINE
  5
2F0
100
AcDbEntity
  8
0
  6
ByLayer
 62
  256
370
   -1
100
AcDbLine
 10
210.370527279632
 20
441.3807813726653
 11
212.370527279632
 21
441.3807813726653
  0
LINE
  5
2F1
100
AcDbEntity
  8
0
  6
ByLayer
 62
  256
370
   -1
100
AcDbLine
 10
212.370527279632
 20
413.3807813726653
 11
210.370527279632
 21
413.3807813726653
  0
LINE
  5
2F2
100
AcDbEntity
  8
0
  6
ByLayer
 62
  256
370
   -1
100
AcDbLine
 10
210.370527279632
 20
413.3807813726653
 11
210.370527279632
 21
414.3807813726653
  0
LINE
  5
2F3
100
AcDbEntity
  8
0
  6
ByLayer
 62
  256
370
   -1
100
AcDbLine
 10
210.370527279632
 20
414.3807813726653
 11
208.7705272796319
 21
414.3807813726653
  0
LINE
  5
2F4
100
AcDbEntity
  8
0
  6
ByLayer
 62
  256
370
   -1
100
AcDbLine
 10
208.7705272796319
 20
414.3807813726653
 11
208.7705272796319
 21
410.3807813726653
  0
LINE
  5
2F5
100
AcDbEntity
  8
0
  6
ByLayer
 62
  256
370
   -1
100
AcDbLine
 10
208.7705272796319
 20
410.3807813726653
 11
210.370527279632
 21
410.3807813726653
  0
LINE
  5
2F6
100
AcDbEntity
  8
0
  6
ByLayer
 62
  256
370
   -1
100
AcDbLine
 10
210.370527279632
 20
410.3807813726653
 11
210.370527279632
 21
411.3807813726653
  0
LINE
  5
2F7
100
AcDbEntity
  8
0
  6
ByLayer
 62
  256
370
   -1
100
AcDbLine
 10
210.370527279632
 20
411.3807813726653
 11
212.370527279632
 21
411.3807813726653
  0
LINE
  5
2F8
100
AcDbEntity
  8
0
  6
ByLayer
 62
  256
370
   -1
100
AcDbLine
 10
212.371519634203
 20
478.3807813726653
 11
212.3705272796321
 21
443.3807813726653
  0
LINE
  5
2F9
100
AcDbEntity
  8
0
  6
ByLayer
 62
  256
370
   -1
100
AcDbLine
 10
212.370527279632
 20
441.3807813726653
 11
212.370527279632
 21
413.3807813726653
  0
LINE
  5
2FA
100
AcDbEntity
  8
0
  6
ByLayer
 62
  256
370
   -1
100
AcDbLine
 10
212.370527279632
 20
411.3807813726653
 11
212.3715196342029
 21
368.3807813726653
  0
CIRCLE
  5
2FB
100
AcDbEntity
  8
0
  6
ByLayer
 62
  256
370
   -1
100
AcDbCircle
 10
290.3414074216479
 20
457.3807813726653
 40
1
  0
CIRCLE
  5
2FC
100
AcDbEntity
  8
0
  6
ByLayer
 62
  256
370
   -1
100
AcDbCircle
 10
290.3414074216478
 20
418.3807813726653
 40
1
  0
CIRCLE
  5
2FD
100
AcDbEntity
  8
0
  6
ByLayer
 62
  256
370
   -1
100
AcDbCircle
 10
181.0482237050547
 20
457.3807813726653
 40
1
  0
CIRCLE
  5
2FE
100
AcDbEntity
  8
0
  6
ByLayer
 62
  256
370
   -1
100
AcDbCircle
 10
181.0482237050546
 20
418.3807813726653
 40
1
  0
CIRCLE
  5
2FF
100
AcDbEntity
  8
0
  6
ByLayer
 62
  256
370
   -1
100
AcDbCircle
 10
519.426
 20
159.001
 40
1
  0
LINE
  5
300
100
AcDbEntity
  8
0
  6
ByLayer
 62
  256
370
   -1
100
AcDbLine
 10
88.77636877163243
 20
443.3807813726653
 11
88.77636877163243
 21
444.3807813726653
  0
LINE
  5
301
100
AcDbEntity
  8
0
  6
ByLayer
 62
  256
370
   -1
100
AcDbLine
 10
88.77636877163243
 20
440.3807813726653
 11
88.77636877163243
 21
441.3807813726653
  0
LINE
  5
302
100
AcDbEntity
  8
0
  6
ByLayer
 62
  256
370
   -1
100
AcDbLine
 10
88.77636877163243
 20
413.3807813726653
 11
88.77636877163243
 21
414.3807813726653
  0
LINE
  5
303
100
AcDbEntity
  8
0
  6
ByLayer
 62
  256
370
   -1
100
AcDbLine
 10
88.77636877163243
 20
410.3807813726653
 11
88.77636877163243
 21
411.3807813726653
  0
LINE
  5
304
100
AcDbEntity
  8
0
  6
ByLayer
 62
  256
370
   -1
100
AcDbLine
 10
116.1006570553517
 20
443.3807813726653
 11
116.1006570553517
 21
444.3807813726653
  0
LINE
  5
305
100
AcDbEntity
  8
0
  6
ByLayer
 62
  256
370
   -1
100
AcDbLine
 10
116.1006570553517
 20
440.3807813726653
 11
116.1006570553517
 21
441.3807813726653
  0
LINE
  5
306
100
AcDbEntity
  8
0
  6
ByLayer
 62
  256
370
   -1
100
AcDbLine
 10
116.1006570553517
 20
413.3807813726653
 11
116.1006570553517
 21
414.3807813726653
  0
LINE
  5
307
100
AcDbEntity
  8
0
  6
ByLayer
 62
  256
370
   -1
100
AcDbLine
 10
116.1006570553517
 20
410.3807813726653
 11
116.1006570553517
 21
411.3807813726653
  0
LINE
  5
308
100
AcDbEntity
  8
0
  6
ByLayer
 62
  256
370
   -1
100
AcDbLine
 10
88.77636877163243
 20
444.3807813726653
 11
90.47636877163242
 21
444.3807813726653
  0
LINE
  5
309
100
AcDbEntity
  8
0
  6
ByLayer
 62
  256
370
   -1
100
AcDbLine
 10
90.47636877163242
 20
444.3807813726653
 11
90.47636877163242
 21
440.3807813726653
  0
LINE
  5
30A
100
AcDbEntity
  8
0
  6
ByLayer
 62
  256
370
   -1
100
AcDbLine
 10
90.47636877163242
 20
414.3807813726653
 11
90.47636877163242
 21
410.3807813726653
  0
LINE
  5
30B
100
AcDbEntity
  8
0
  6
ByLayer
 62
  256
370
   -1
100
AcDbLine
 10
117.8006570553517
 20
444.3807813726653
 11
117.8006570553517
 21
440.3807813726653
  0
LINE
  5
30C
100
AcDbEntity
  8
0
  6
ByLayer
 62
  256
370
   -1
100
AcDbLine
 10
117.8006570553517
 20
414.3807813726653
 11
117.8006570553517
 21
410.3807813726653
  0
LINE
  5
30D
100
AcDbEntity
  8
0
  6
ByLayer
 62
  256
370
   -1
100
AcDbLine
 10
90.47636877163242
 20
410.3807813726653
 11
88.77636877163243
 21
410.3807813726653
  0
LINE
  5
30E
100
AcDbEntity
  8
0
  6
ByLayer
 62
  256
370
   -1
100
AcDbLine
 10
88.77636877163243
 20
414.3807813726653
 11
90.47636877163242
 21
414.3807813726653
  0
LINE
  5
30F
100
AcDbEntity
  8
0
  6
ByLayer
 62
  256
370
   -1
100
AcDbLine
 10
90.47636877163242
 20
440.3807813726653
 11
88.77636877163243
 21
440.3807813726653
  0
LINE
  5
310
100
AcDbEntity
  8
0
  6
ByLayer
 62
  256
370
   -1
100
AcDbLine
 10
116.1006570553517
 20
444.3807813726653
 11
117.8006570553517
 21
444.3807813726653
  0
LINE
  5
311
100
AcDbEntity
  8
0
  6
ByLayer
 62
  256
370
   -1
100
AcDbLine
 10
117.8006570553517
 20
440.3807813726653
 11
116.1006570553517
 21
440.3807813726653
  0
LINE
  5
312
100
AcDbEntity
  8
0
  6
ByLayer
 62
  256
370
   -1
100
AcDbLine
 10
117.8006570553517
 20
410.3807813726653
 11
116.1006570553517
 21
410.3807813726653
  0
LINE
  5
313
100
AcDbEntity
  8
0
  6
ByLayer
 62
  256
370
   -1
100
AcDbLine
 10
116.1006570553517
 20
414.3807813726653
 11
117.8006570553517
 21
414.3807813726653
  0
LINE
  5
314
100
AcDbEntity
  8
0
  6
ByLayer
 62
  256
370
   -1
100
AcDbLine
 10
88.77636877163243
 20
441.3807813726653
 11
87.37636877163243
 21
441.3807813726653
  0
LINE
  5
315
100
AcDbEntity
  8
0
  6
ByLayer
 62
  256
370
   -1
100
AcDbLine
 10
87.37636877163243
 20
443.3807813726653
 11
88.77636877163243
 21
443.3807813726653
  0
LINE
  5
316
100
AcDbEntity
  8
0
  6
ByLayer
 62
  256
370
   -1
100
AcDbLine
 10
116.1006570553517
 20
411.3807813726653
 11
114.7006570553516
 21
411.3807813726653
  0
LINE
  5
317
100
AcDbEntity
  8
0
  6
ByLayer
 62
  256
370
   -1
100
AcDbLine
 10
114.7006570553517
 20
413.3807813726653
 11
116.1006570553517
 21
413.3807813726653
  0
LINE
  5
318
100
AcDbEntity
  8
0
  6
ByLayer
 62
  256
370
   -1
100
AcDbLine
 10
88.77636877163243
 20
411.3807813726653
 11
87.37636877163243
 21
411.3807813726653
  0
LINE
  5
319
100
AcDbEntity
  8
0
  6
ByLayer
 62
  256
370
   -1
100
AcDbLine
 10
87.37636877163243
 20
413.3807813726653
 11
88.77636877163243
 21
413.3807813726653
  0
LINE
  5
31A
100
AcDbEntity
  8
0
  6
ByLayer
 62
  256
370
   -1
100
AcDbLine
 10
116.1006570553517
 20
441.3807813726653
 11
114.7006570553516
 21
441.3807813726653
  0
LINE
  5
31B
100
AcDbEntity
  8
0
  6
ByLayer
 62
  256
370
   -1
100
AcDbLine
 10
114.7006570553517
 20
443.3807813726653
 11
116.1006570553517
 21
443.3807813726653
  0
ARC
  5
31C
100
AcDbEntity
  8
0
  6
ByLayer
 62
  256
370
   -1
100
AcDbCircle
 10
357.2630847151866
 20
149.5028449679362
 40
2
100
AcDbArc
 50
90
 51
180
  0
LINE
  5
31D
100
AcDbEntity
  8
0
  6
ByLayer
 62
  256
370
   -1
100
AcDbLine
 10
355.2630847151866
 20
123.7028449679361
 11
355.2630847151866
 21
149.5028449679362
  0
ARC
  5
31E
100
AcDbEntity
  8
0
  6
ByLayer
 62
  256
370
   -1
100
AcDbCircle
 10
357.2630847151866
 20
123.7028449679361
 40
2
100
AcDbArc
 50
180
 51
270
  0
ARC
  5
31F
100
AcDbEntity
  8
0
  6
ByLayer
 62
  256
370
   -1
100
AcDbCircle
 10
220.0819862385139
 20
148.8045744171077
 40
2
100
AcDbArc
 50
90
 51
180
  0
LINE
  5
320
100
AcDbEntity
  8
0
  6
ByLayer
 62
  256
370
   -1
100
AcDbLine
 10
218.0819862385139
 20
123.0045744171077
 11
218.0819862385139
 21
148.8045744171077
  0
ARC
  5
321
100
AcDbEntity
  8
0
  6
ByLayer
 62
  256
370
   -1
100
AcDbCircle
 10
220.0819862385139
 20
123.0045744171077
 40
2
100
AcDbArc
 50
180
 51
270
  0
ARC
  5
322
100
AcDbEntity
  8
0
  6
ByLayer
 62
  256
370
   -1
100
AcDbCircle
 10
381.5630847151866
 20
149.5028449679362
 40
2
100
AcDbArc
 50
0
 51
90
  0
LINE
  5
323
100
AcDbEntity
  8
0
  6
ByLayer
 62
  256
370
   -1
100
AcDbLine
 10
383.5630847151866
 20
149.5028449679362
 11
383.5630847151866
 21
123.7028449679361
  0
ARC
  5
324
100
AcDbEntity
  8
0
  6
ByLayer
 62
  256
370
   -1
100
AcDbCircle
 10
381.5630847151866
 20
123.7028449679361
 40
2
100
AcDbArc
 50
270
 51
0
  0
ARC
  5
325
100
AcDbEntity
  8
0
  6
ByLayer
 62
  256
370
   -1
100
AcDbCircle
 10
244.3819862385138
 20
148.8045744171077
 40
2
100
AcDbArc
 50
0
 51
90
  0
LINE
  5
326
100
AcDbEntity
  8
0
  6
ByLayer
 62
  256
370
   -1
100
AcDbLine
 10
246.3819862385138
 20
148.8045744171077
 11
246.3819862385138
 21
123.0045744171077
  0
ARC
  5
327
100
AcDbEntity
  8
0
  6
ByLayer
 62
  256
370
   -1
100
AcDbCircle
 10
244.3819862385138
 20
123.0045744171077
 40
2
100
AcDbArc
 50
270
 51
0
  0
LINE
  5
328
100
AcDbEntity
  8
0
  6
ByLayer
 62
  256
370
   -1
100
AcDbLine
 10
244.3819862385138
 20
121.0045744171077
 11
220.0819862385139
 21
121.0045744171077
  0
LINE
  5
329
100
AcDbEntity
  8
0
  6
ByLayer
 62
  256
370
   -1
100
AcDbLine
 10
220.0819862385139
 20
150.8045744171077
 11
244.3819862385138
 21
150.8045744171077
  0
LINE
  5
32A
100
AcDbEntity
  8
0
  6
ByLayer
 62
  256
370
   -1
100
AcDbLine
 10
357.2630847151866
 20
151.5028449679362
 11
381.5630847151866
 21
151.5028449679362
  0
LINE
  5
32B
100
AcDbEntity
  8
0
  6
ByLayer
 62
  256
370
   -1
100
AcDbLine
 10
381.5630847151866
 20
121.7028449679361
 11
357.2630847151866
 21
121.7028449679361
  0
CIRCLE
  5
32C
100
AcDbEntity
  8
0
  6
ByLayer
 62
  256
370
   -1
100
AcDbCircle
 10
472.9666226170107
 20
139.1007089070073
 40
11
  0
LWPOLYLINE
  5
32D
100
AcDbEntity
  8
0
  6
ByLayer
 62
  256
370
   -1
100
AcDbPolyline
 90
    8
 70
    1
 43
0
 10
486.8646637787601
 20
132.4711155187645
 10
514.1686637787599
 20
132.4711155187645
 42
0.414213562373095
 10
515.6686637787599
 20
133.9711155187645
 10
515.6686637787599
 20
144.8351155187645
 42
0.414213562373095
 10
514.1686637787599
 20
146.3351155187645
 10
486.86466377876
 20
146.3351155187645
 42
0.414213562373095
 10
485.36466377876
 20
144.8351155187645
 10
485.3646637787601
 20
133.9711155187645
 42
0.414213562373095
  0
ENDSEC
  0
SECTION
  2
OBJECTS
  0
DICTIONARY
  5
C
330
0
100
AcDbDictionary
281
    1
  3
ACAD_GROUP
350
D
  0
DICTIONARY
  5
D
330
C
100
AcDbDictionary
281
    1
  0
ENDSEC
  0
EOF
