<?xml version="1.0" encoding="UTF-8" standalone="no"?>
<!-- Created with Inkscape (http://www.inkscape.org/) -->

<svg
   width="211.58202mm"
   height="72.842003mm"
   viewBox="0 0 211.58202 72.842004"
   version="1.1"
   id="svg5"
   inkscape:version="1.2 (dc2aedaf03, 2022-05-15)"
   sodipodi:docname="logo-mulpad_with_author_for_pcb.svg"
   inkscape:export-filename="logo-mulpad.png"
   inkscape:export-xdpi="96"
   inkscape:export-ydpi="96"
   xmlns:inkscape="http://www.inkscape.org/namespaces/inkscape"
   xmlns:sodipodi="http://sodipodi.sourceforge.net/DTD/sodipodi-0.dtd"
   xmlns="http://www.w3.org/2000/svg"
   xmlns:svg="http://www.w3.org/2000/svg">
  <sodipodi:namedview
     id="namedview7"
     pagecolor="#505050"
     bordercolor="#eeeeee"
     borderopacity="1"
     inkscape:showpageshadow="0"
     inkscape:pageopacity="0"
     inkscape:pagecheckerboard="0"
     inkscape:deskcolor="#505050"
     inkscape:document-units="mm"
     showgrid="false"
     inkscape:zoom="2.0000001"
     inkscape:cx="418.99999"
     inkscape:cy="143.5"
     inkscape:window-width="1920"
     inkscape:window-height="973"
     inkscape:window-x="0"
     inkscape:window-y="28"
     inkscape:window-maximized="1"
     inkscape:current-layer="layer1" />
  <defs
     id="defs2">
    <linearGradient
       id="linearGradient4634"
       inkscape:swatch="gradient">
      <stop
         style="stop-color:#000000;stop-opacity:1;"
         offset="0"
         id="stop4630" />
      <stop
         style="stop-color:#000000;stop-opacity:0;"
         offset="1"
         id="stop4632" />
    </linearGradient>
  </defs>
  <g
     inkscape:label="Layer 1"
     inkscape:groupmode="layer"
     id="layer1"
     transform="translate(-43.713867,-16.821752)">
    <text
       xml:space="preserve"
       style="font-style:normal;font-variant:normal;font-weight:normal;font-stretch:normal;font-size:50.8px;line-height:1.25;font-family:'Sarasa Mono Slab SC';-inkscape-font-specification:'Sarasa Mono Slab SC, Normal';font-variant-ligatures:normal;font-variant-caps:normal;font-variant-numeric:normal;font-variant-east-asian:normal;fill:#2ca05a;fill-opacity:1;stroke:none;stroke-width:0.264583"
       x="73.691322"
       y="62.782642"
       id="text113"><tspan
         sodipodi:role="line"
         id="tspan111"
         style="font-style:normal;font-variant:normal;font-weight:normal;font-stretch:normal;font-size:50.8px;font-family:'Sarasa Mono Slab SC';-inkscape-font-specification:'Sarasa Mono Slab SC, Normal';font-variant-ligatures:normal;font-variant-caps:normal;font-variant-numeric:normal;font-variant-east-asian:normal;fill:#2ca05a;stroke-width:0.264583"
         x="73.691322"
         y="62.782642">M lPad</tspan><tspan
         sodipodi:role="line"
         style="font-style:normal;font-variant:normal;font-weight:normal;font-stretch:normal;font-size:50.8px;font-family:'Sarasa Mono Slab SC';-inkscape-font-specification:'Sarasa Mono Slab SC, Normal';font-variant-ligatures:normal;font-variant-caps:normal;font-variant-numeric:normal;font-variant-east-asian:normal;fill:#2ca05a;stroke-width:0.264583"
         x="73.691322"
         y="126.28264"
         id="tspan115" /></text>
    <path
       style="fill:none;stroke:#2ca05a;stroke-width:1;stroke-linecap:round;stroke-linejoin:round;stroke-dasharray:none;stroke-dashoffset:0;paint-order:normal"
       d="m 109.9928,62.850682 c -0.001,-0.04502 0.0559,-0.665128 0.12648,-1.378018 0.0705,-0.712894 0.11795,-1.306492 0.10533,-1.319104 -0.0126,-0.01262 -0.27474,-0.09923 -0.58251,-0.192472 -1.25141,-0.379134 -2.61959,-1.004183 -3.59066,-1.640387 -2.24238,-1.469112 -3.45699,-3.41407 -3.63354,-5.818359 -0.0277,-0.37787 -0.0465,-3.594259 -0.0468,-8.009735 l -5.3e-4,-7.378309 h 1.98688 1.98688 l 0.0127,7.775873 c 0.0142,8.715766 -0.0196,7.895076 0.35503,8.617772 0.22384,0.431814 0.91366,1.13334 1.46825,1.493179 0.49264,0.319641 1.39316,0.759706 2.00967,0.982086 l 0.45275,0.163314 0.025,-0.126601 c 0.0138,-0.06963 0.0697,-0.57912 0.12442,-1.132199 0.0547,-0.553083 0.10279,-1.008775 0.1069,-1.012653 0.004,-0.0039 1.3019,0.929063 2.88397,2.073208 1.58207,1.144143 3.24902,2.349122 3.70434,2.677729 l 0.82785,0.597472 -4.12529,1.854673 c -2.26891,1.020072 -4.14108,1.85461 -4.16037,1.854528 -0.0193,-9.2e-5 -0.0359,-0.03698 -0.0369,-0.082 z"
       id="path3146" />
    <path
       style="fill:none;stroke:#2ca05a;stroke-width:1;stroke-linecap:round;stroke-linejoin:round;stroke-dasharray:none;stroke-dashoffset:0;paint-order:normal"
       d="m 120.05059,52.970061 v -9.447976 h -1.29013 c -0.70957,0 -1.28311,-0.01812 -1.27454,-0.04026 0.0409,-0.105651 4.54309,-7.865843 4.55599,-7.852947 0.008,0.0081 1.03669,1.78218 2.28566,3.94231 l 2.27087,3.927509 -1.28611,0.01243 -1.2861,0.01243 v 9.447238 9.447239 h -1.98782 -1.98782 z"
       id="path3148" />
    <text
       xml:space="preserve"
       style="font-style:normal;font-variant:normal;font-weight:normal;font-stretch:normal;font-size:8.46667px;line-height:1.25;font-family:'Sarasa Mono Slab SC';-inkscape-font-specification:'Sarasa Mono Slab SC, Normal';font-variant-ligatures:normal;font-variant-caps:normal;font-variant-numeric:normal;font-variant-east-asian:normal;fill:#2ca05a;fill-opacity:1;stroke:none;stroke-width:0.264583"
       x="138.00375"
       y="73.080559"
       id="text295"><tspan
         sodipodi:role="line"
         id="tspan293"
         x="138.00375"
         y="73.080559"
         style="font-style:normal;font-variant:normal;font-weight:normal;font-stretch:normal;font-size:8.46667px;font-family:'Sarasa Mono Slab SC';-inkscape-font-specification:'Sarasa Mono Slab SC, Normal';font-variant-ligatures:normal;font-variant-caps:normal;font-variant-numeric:normal;font-variant-east-asian:normal;fill:#2ca05a;stroke-width:0.264583">Designed by @logicskky</tspan></text>
  </g>
</svg>
